<svg width="17" height="16" viewBox="0 0 17 16" fill="none" xmlns="http://www.w3.org/2000/svg">
<g filter="url(#filter0_d_1_315)">
<path fill-rule="evenodd" clip-rule="evenodd" d="M4.64091 3.2803C4.47701 3.66885 4.43082 4.31872 4.53858 4.71961C4.61752 5.01329 4.83161 5.25785 6.22287 6.64393L7.81668 8.2318L8.00859 8.05019L8.20042 7.86859L9.18145 8.96099C11.053 11.0452 11.0045 10.9999 11.3719 10.9999C11.6413 10.9999 11.7291 10.961 11.8915 10.7699C12.3204 10.2648 12.455 10.4341 8.5222 6.53454C6.56171 4.59056 4.91296 3 4.85833 3C4.80377 3 4.70589 3.12613 4.64091 3.2803ZM9.45373 4.00126C8.64377 4.80566 8.50816 4.97561 8.4247 5.29097L8.32856 5.65418L8.86631 6.19623C9.16206 6.49432 9.43886 6.73806 9.48142 6.73783C9.52399 6.73761 9.69461 6.70045 9.86063 6.65522C10.0946 6.59152 10.3787 6.36146 11.1236 5.63235C12.0317 4.74361 12.0779 4.68417 11.9609 4.5561C11.8927 4.48156 11.7991 4.42055 11.7527 4.42055C11.7062 4.42055 11.3988 4.68903 11.0696 5.01718L10.4709 5.61381L10.2957 5.45074L10.1204 5.2876L10.767 4.64402L11.4136 4.00044L11.2568 3.85988C11.1012 3.72037 11.0952 3.72403 10.4616 4.3484L9.82335 4.97755L9.65522 4.81097L9.48708 4.6444L10.1221 4.01203C10.7482 3.38841 10.7552 3.37742 10.6179 3.22714C10.5413 3.14333 10.458 3.07477 10.4327 3.07477C10.4073 3.07477 9.96681 3.49166 9.45373 4.00126ZM5.23542 8.85557C3.87608 10.2114 3.82069 10.3144 4.20752 10.7699C4.36705 10.9578 4.4595 10.9999 4.7117 10.9999C5.00986 10.9999 5.06329 10.9579 6.25253 9.78745L7.48449 8.57505L7.01449 8.10522C6.75603 7.84683 6.52526 7.63547 6.50164 7.63547C6.47809 7.63547 5.90826 8.18447 5.23542 8.85557Z" fill="white"/>
</g>
<defs>
<filter id="filter0_d_1_315" x="0" y="0" width="16.1003" height="16" filterUnits="userSpaceOnUse" color-interpolation-filters="sRGB">
<feFlood flood-opacity="0" result="BackgroundImageFix"/>
<feColorMatrix in="SourceAlpha" type="matrix" values="0 0 0 0 0 0 0 0 0 0 0 0 0 0 0 0 0 0 127 0" result="hardAlpha"/>
<feOffset dy="1"/>
<feGaussianBlur stdDeviation="2"/>
<feComposite in2="hardAlpha" operator="out"/>
<feColorMatrix type="matrix" values="0 0 0 0 0 0 0 0 0 0 0 0 0 0 0 0 0 0 0.32 0"/>
<feBlend mode="normal" in2="BackgroundImageFix" result="effect1_dropShadow_1_315"/>
<feBlend mode="normal" in="SourceGraphic" in2="effect1_dropShadow_1_315" result="shape"/>
</filter>
</defs>
</svg>
