<svg width="16" height="16" viewBox="0 0 16 16" fill="none" xmlns="http://www.w3.org/2000/svg">
<g filter="url(#filter0_d_1_307)">
<path fill-rule="evenodd" clip-rule="evenodd" d="M5.81301 3.03774C5.76182 3.0622 5.7174 3.09838 5.68861 3.13909L5.64384 3.20237L5.63895 3.84048C5.63563 4.27602 5.63958 4.49656 5.65141 4.53516C5.67166 4.60125 5.74677 4.68835 5.81099 4.7202C5.83577 4.73249 5.90114 4.74659 5.95621 4.75153C6.14054 4.76803 6.27535 4.71078 6.34456 4.58658C6.37896 4.52487 6.37974 4.51198 6.38439 3.92554C6.38965 3.26332 6.38392 3.20396 6.30589 3.11319C6.23587 3.03172 6.15427 3.00041 6.0109 3.00001C5.91526 2.99974 5.87742 3.00696 5.81301 3.03774ZM9.87084 3.02002C9.80825 3.04738 9.73915 3.11529 9.70818 3.17985C9.68667 3.22468 9.68227 3.31777 9.67822 3.81394C9.6722 4.54816 9.67659 4.57472 9.82242 4.68793C9.87626 4.72973 9.89357 4.73432 10.0157 4.73923C10.1693 4.74542 10.2475 4.7276 10.3185 4.67026C10.4254 4.58403 10.4259 4.58035 10.4263 3.86994C10.4266 3.23689 10.4263 3.23067 10.3914 3.16514C10.372 3.12877 10.3291 3.07835 10.296 3.0531C10.239 3.0095 10.2279 3.00699 10.0769 3.00334C9.968 3.00071 9.90298 3.00597 9.87084 3.02002ZM4.36714 3.63572C4.22729 3.67189 4.09821 3.77944 4.03346 3.91373L4 3.98312V7.07609V10.1691L4.0415 10.254C4.0905 10.3542 4.18441 10.4464 4.28661 10.4947L4.36008 10.5294H8H11.6399L11.7134 10.4947C11.8156 10.4464 11.9095 10.3542 11.9585 10.254L12 10.1691V7.07609V3.98312L11.9566 3.89841C11.906 3.79959 11.8011 3.70117 11.6975 3.65522C11.6284 3.62462 11.5973 3.62251 11.1507 3.61803L10.6771 3.61329V4.11459C10.6771 4.52858 10.6729 4.62781 10.6528 4.68437C10.5952 4.84651 10.4283 4.95406 10.1886 4.98362C9.85171 5.02515 9.60393 4.91403 9.48094 4.66628L9.43249 4.56868L9.42741 4.09198L9.42233 3.61527H8.03015H6.63796L6.63771 4.05444C6.63745 4.53037 6.62755 4.61131 6.55515 4.7298C6.50087 4.81863 6.40286 4.90133 6.29542 4.94897C6.17918 5.00051 5.93799 5.01308 5.80056 4.97476C5.63771 4.92936 5.51068 4.82717 5.43576 4.68129L5.39335 4.59871L5.38882 4.10699L5.3843 3.61527L4.91133 3.61627C4.58995 3.61697 4.41553 3.6232 4.36714 3.63572ZM11.4912 7.8118V10.0565H8H4.50881V7.8118V5.56714H8H11.4912V7.8118ZM8.21396 6.19275C8.20822 6.19825 8.20352 6.38945 8.20352 6.61766C8.20352 6.92033 8.20861 7.03743 8.22231 7.05057C8.24917 7.07633 9.20679 7.07633 9.23366 7.05057C9.26045 7.02488 9.26045 6.22644 9.23366 6.20075C9.21984 6.18749 9.08395 6.18274 8.71964 6.18274C8.44725 6.18274 8.21969 6.18724 8.21396 6.19275ZM9.7169 6.19275C9.71115 6.19825 9.70646 6.38945 9.70646 6.61766C9.70646 6.92033 9.71155 7.03743 9.72524 7.05057C9.75211 7.07633 10.7097 7.07633 10.7366 7.05057C10.7634 7.02488 10.7634 6.22644 10.7366 6.20075C10.7228 6.18749 10.5869 6.18274 10.2226 6.18274C9.95018 6.18274 9.72263 6.18724 9.7169 6.19275ZM5.21497 7.44953C5.20236 7.46411 5.19837 7.59242 5.20132 7.8887L5.20548 8.30728L5.70458 8.31124C6.05984 8.31406 6.20988 8.31029 6.22513 8.29815C6.25436 8.27488 6.25686 7.47483 6.22779 7.44695C6.19859 7.41895 5.23933 7.4214 5.21497 7.44953ZM6.7179 7.44953C6.7053 7.46411 6.70131 7.59242 6.70425 7.8887L6.70841 8.30728L7.20751 8.31124C7.56277 8.31406 7.71281 8.31029 7.72806 8.29815C7.75729 8.27488 7.7598 7.47483 7.73072 7.44695C7.70153 7.41895 6.74226 7.4214 6.7179 7.44953ZM8.22084 7.44953C8.20823 7.46411 8.20424 7.59242 8.20719 7.8887L8.21135 8.30728L8.71045 8.31124C9.06571 8.31406 9.21575 8.31029 9.231 8.29815C9.26023 8.27488 9.26273 7.47483 9.23366 7.44695C9.20446 7.41895 8.2452 7.4214 8.22084 7.44953ZM9.72377 7.44953C9.71117 7.46411 9.70718 7.59242 9.71012 7.8887L9.71429 8.30728L10.2134 8.31124C10.5686 8.31406 10.7187 8.31029 10.7339 8.29815C10.7632 8.27488 10.7657 7.47483 10.7366 7.44695C10.7074 7.41895 9.74813 7.4214 9.72377 7.44953ZM5.22505 8.69135C5.2 8.70534 5.19765 8.74233 5.19765 9.12331C5.19765 9.42735 5.20272 9.54483 5.21644 9.55798C5.23023 9.57121 5.36301 9.576 5.71631 9.576C6.13276 9.576 6.20067 9.57283 6.22198 9.55241C6.24312 9.53212 6.24658 9.47211 6.24658 9.12534C6.24658 8.72543 6.24626 8.72167 6.21177 8.69851C6.18215 8.6786 6.10831 8.67521 5.71471 8.67558C5.42996 8.67587 5.24193 8.68192 5.22505 8.69135ZM6.72798 8.69135C6.70294 8.70534 6.70059 8.74233 6.70059 9.12331C6.70059 9.42735 6.70566 9.54483 6.71937 9.55798C6.73317 9.57121 6.86594 9.576 7.21924 9.576C7.63569 9.576 7.70361 9.57283 7.72492 9.55241C7.74605 9.53212 7.74951 9.47211 7.74951 9.12534C7.74951 8.72543 7.7492 8.72167 7.71471 8.69851C7.68509 8.6786 7.61124 8.67521 7.21764 8.67558C6.9329 8.67587 6.74486 8.68192 6.72798 8.69135ZM8.23092 8.69135C8.20586 8.70534 8.20352 8.74246 8.20352 9.12579C8.20352 9.5248 8.20498 9.54565 8.2338 9.56046C8.25274 9.57017 8.43991 9.576 8.73367 9.576C9.13968 9.576 9.20657 9.5728 9.22785 9.55241C9.24899 9.53212 9.25245 9.47211 9.25245 9.12534C9.25245 8.72543 9.25213 8.72167 9.21764 8.69851C9.18802 8.6786 9.11418 8.67521 8.72058 8.67558C8.43584 8.67587 8.2478 8.68192 8.23092 8.69135ZM9.73386 8.69135C9.70879 8.70534 9.70646 8.74246 9.70646 9.12579C9.70646 9.5248 9.70791 9.54565 9.73674 9.56046C9.75568 9.57017 9.94284 9.576 10.2366 9.576C10.6426 9.576 10.7095 9.5728 10.7308 9.55241C10.7519 9.53212 10.7554 9.47211 10.7554 9.12534C10.7554 8.72543 10.7551 8.72167 10.7206 8.69851C10.691 8.6786 10.6171 8.67521 10.2235 8.67558C9.93877 8.67587 9.75073 8.68192 9.73386 8.69135Z" fill="white"/>
</g>
<defs>
<filter id="filter0_d_1_307" x="0" y="0" width="16" height="15.5294" filterUnits="userSpaceOnUse" color-interpolation-filters="sRGB">
<feFlood flood-opacity="0" result="BackgroundImageFix"/>
<feColorMatrix in="SourceAlpha" type="matrix" values="0 0 0 0 0 0 0 0 0 0 0 0 0 0 0 0 0 0 127 0" result="hardAlpha"/>
<feOffset dy="1"/>
<feGaussianBlur stdDeviation="2"/>
<feComposite in2="hardAlpha" operator="out"/>
<feColorMatrix type="matrix" values="0 0 0 0 0 0 0 0 0 0 0 0 0 0 0 0 0 0 0.32 0"/>
<feBlend mode="normal" in2="BackgroundImageFix" result="effect1_dropShadow_1_307"/>
<feBlend mode="normal" in="SourceGraphic" in2="effect1_dropShadow_1_307" result="shape"/>
</filter>
</defs>
</svg>
