<svg width="19" height="16" viewBox="0 0 19 16" fill="none" xmlns="http://www.w3.org/2000/svg">
<path d="M13.3 12.6667V16H0V12.6667C0 12.6667 0 8 6.65 8C13.3 8 13.3 12.6667 13.3 12.6667ZM13.243 8C13.827 8.55504 14.3049 9.2605 14.643 10.0668C14.9811 10.873 15.1712 11.7605 15.2 12.6667V16H19V12.6667C19 12.6667 19 8.43167 13.243 8Z" fill="url(#paint0_linear_1_570)"/>
<path d="M9.42397 1.33331C9.74939 1.82665 9.92308 2.40666 9.92308 3C9.92308 3.79564 9.61106 4.55869 9.05566 5.12129C8.50027 5.68389 7.74699 5.99995 6.96154 5.99995C6.3758 5.99995 5.80322 5.82401 5.3162 5.49437C4.82917 5.16473 4.44959 4.6962 4.22544 4.14803C4.00128 3.59986 3.94263 2.99667 4.05691 2.41474C4.17118 1.8328 4.45324 1.29826 4.86742 0.878712C5.28159 0.45916 5.80929 0.173442 6.38377 0.0576885C6.95825 -0.0580654 7.55372 0.00134368 8.09487 0.228403C8.63602 0.455463 9.09855 0.839974 9.42397 1.33331Z" fill="url(#paint1_linear_1_570)"/>
<path d="M10.4054 0.505752C10.8864 0.173147 11.456 -0.00324007 12.0385 4.5067e-05C12.8239 4.5067e-05 13.5772 0.316111 14.1326 0.878712C14.688 1.44131 15 2.20436 15 3C15 3.79564 14.688 4.55869 14.1326 5.12129C13.5772 5.68389 12.8239 5.99995 12.0385 5.99995C11.456 6.00324 10.8864 5.82685 10.4054 5.49425C10.9194 4.76677 11.1957 3.8946 11.1957 3C11.1957 2.1054 10.9194 1.23323 10.4054 0.505752Z" fill="url(#paint2_linear_1_570)"/>
<defs>
<linearGradient id="paint0_linear_1_570" x1="7.32292" y1="9.58333" x2="7.33983" y2="16.0239" gradientUnits="userSpaceOnUse">
<stop stop-color="#00A6DB"/>
<stop offset="1" stop-color="#0065C1"/>
</linearGradient>
<linearGradient id="paint1_linear_1_570" x1="8.23958" y1="1.1875" x2="8.25601" y2="6.01787" gradientUnits="userSpaceOnUse">
<stop stop-color="#00A6DB"/>
<stop offset="1" stop-color="#0065C1"/>
</linearGradient>
<linearGradient id="paint2_linear_1_570" x1="8.23958" y1="1.1875" x2="8.25601" y2="6.01787" gradientUnits="userSpaceOnUse">
<stop stop-color="#00A6DB"/>
<stop offset="1" stop-color="#0065C1"/>
</linearGradient>
</defs>
</svg>
