<svg width="17" height="16" viewBox="0 0 17 16" fill="none" xmlns="http://www.w3.org/2000/svg">
<path clip-rule="evenodd" d="M3.85265 0.0801943C3.74386 0.132169 3.64948 0.209061 3.5883 0.295557L3.49315 0.43004L3.48277 1.78603C3.47572 2.71155 3.4841 3.18018 3.50925 3.26221C3.55227 3.40266 3.71189 3.58774 3.84835 3.65541C3.90102 3.68155 4.03991 3.7115 4.15695 3.722C4.54865 3.75707 4.83512 3.63541 4.9822 3.37149C5.05529 3.24035 5.05695 3.21295 5.06683 1.96678C5.07801 0.559545 5.06583 0.433422 4.90003 0.24052C4.75122 0.0674001 4.57782 0.000876795 4.27315 1.53425e-05C4.06992 -0.000558959 3.98951 0.0147877 3.85265 0.0801943ZM12.4755 0.0425456C12.3425 0.100678 12.1957 0.244987 12.1299 0.382181C12.0842 0.477452 12.0748 0.675267 12.0662 1.72962C12.0534 3.28984 12.0627 3.34628 12.3726 3.58685C12.487 3.67567 12.5238 3.68544 12.7834 3.69587C13.1098 3.70902 13.2759 3.67114 13.4269 3.5493C13.654 3.36606 13.655 3.35825 13.6558 1.84863C13.6566 0.503391 13.6559 0.490182 13.5817 0.350914C13.5405 0.273638 13.4494 0.166499 13.3791 0.112834C13.2578 0.0201797 13.2344 0.0148515 12.9133 0.0070984C12.682 0.00151491 12.5438 0.0126819 12.4755 0.0425456ZM0.78017 1.3509C0.482986 1.42776 0.208691 1.6563 0.0710939 1.94167L0 2.08913V8.6617V15.2343L0.0881937 15.4147C0.192323 15.6277 0.391865 15.8237 0.609039 15.9262L0.765166 16H8.5H16.2348L16.391 15.9262C16.6081 15.8237 16.8077 15.6277 16.9118 15.4147L17 15.2343V8.6617V2.08913L16.9078 1.90912C16.8003 1.69912 16.5774 1.48998 16.3571 1.39235C16.2104 1.32732 16.1442 1.32282 15.1952 1.31332L14.1888 1.30323V2.3685C14.1888 3.24823 14.1798 3.4591 14.1371 3.57929C14.0147 3.92384 13.6602 4.15238 13.1507 4.2152C12.4349 4.30345 11.9083 4.06732 11.647 3.54084L11.544 3.33345L11.5333 2.32045L11.5224 1.30745H8.56407H5.60568L5.60514 2.24069C5.60458 3.25203 5.58355 3.42403 5.42969 3.67583C5.31435 3.86459 5.10609 4.04032 4.87777 4.14156C4.63075 4.25109 4.11823 4.2778 3.8262 4.19637C3.48014 4.09989 3.21021 3.88274 3.05098 3.57275L2.96086 3.39727L2.95125 2.35236L2.94163 1.30745L1.93657 1.30958C1.25364 1.31105 0.883002 1.32429 0.78017 1.3509ZM15.9188 10.2251V14.995H8.5H1.08121V10.2251V5.45518H8.5H15.9188V10.2251ZM8.95467 6.78459C8.94247 6.79627 8.93249 7.20259 8.93249 7.68752C8.93249 8.33071 8.9433 8.57954 8.97241 8.60746C9.0295 8.66221 11.0644 8.66221 11.1215 8.60746C11.1784 8.55287 11.1784 6.85619 11.1215 6.8016C11.0921 6.77343 10.8034 6.76331 10.0292 6.76331C9.4504 6.76331 8.96685 6.77288 8.95467 6.78459ZM12.1484 6.78459C12.1362 6.79627 12.1262 7.20259 12.1262 7.68752C12.1262 8.33071 12.137 8.57954 12.1661 8.60746C12.2232 8.66221 14.2582 8.66221 14.3153 8.60746C14.3722 8.55287 14.3722 6.85619 14.3153 6.8016C14.2859 6.77343 13.9971 6.76331 13.223 6.76331C12.6441 6.76331 12.1606 6.77288 12.1484 6.78459ZM2.5818 9.45526C2.55502 9.48624 2.54654 9.7589 2.55279 10.3885L2.56164 11.278L3.62223 11.2864C4.37715 11.2924 4.69599 11.2844 4.7284 11.2586C4.79051 11.2091 4.79583 9.50902 4.73405 9.44977C4.67201 9.39026 2.63357 9.39547 2.5818 9.45526ZM5.77554 9.45526C5.74876 9.48624 5.74028 9.7589 5.74653 10.3885L5.75538 11.278L6.81597 11.2864C7.57089 11.2924 7.88973 11.2844 7.92213 11.2586C7.98424 11.2091 7.98957 9.50902 7.92779 9.44977C7.86574 9.39026 5.82731 9.39547 5.77554 9.45526ZM8.96928 9.45526C8.9425 9.48624 8.93402 9.7589 8.94027 10.3885L8.94912 11.278L10.0097 11.2864C10.7646 11.2924 11.0835 11.2844 11.1159 11.2586C11.178 11.2091 11.1833 9.50902 11.1215 9.44977C11.0595 9.39026 9.02104 9.39547 8.96928 9.45526ZM12.163 9.45526C12.1362 9.48624 12.1278 9.7589 12.134 10.3885L12.1429 11.278L13.2034 11.2864C13.9584 11.2924 14.2772 11.2844 14.3096 11.2586C14.3717 11.2091 14.377 9.50902 14.3153 9.44977C14.2532 9.39026 12.2148 9.39547 12.163 9.45526ZM2.60323 12.0941C2.55 12.1238 2.54501 12.2025 2.54501 13.012C2.54501 13.6581 2.55579 13.9078 2.58493 13.9357C2.61424 13.9638 2.89639 13.974 3.64715 13.974C4.53211 13.974 4.67643 13.9673 4.72171 13.9239C4.76662 13.8808 4.77397 13.7532 4.77397 13.0163C4.77397 12.1665 4.77331 12.1586 4.70002 12.1093C4.63707 12.067 4.48015 12.0598 3.64376 12.0606C3.03868 12.0612 2.63909 12.0741 2.60323 12.0941ZM5.79697 12.0941C5.74374 12.1238 5.73875 12.2025 5.73875 13.012C5.73875 13.6581 5.74953 13.9078 5.77867 13.9357C5.80798 13.9638 6.09013 13.974 6.84089 13.974C7.72585 13.974 7.87017 13.9673 7.91545 13.9239C7.96036 13.8808 7.96771 13.7532 7.96771 13.0163C7.96771 12.1665 7.96704 12.1586 7.89375 12.1093C7.83081 12.067 7.67389 12.0598 6.83749 12.0606C6.23241 12.0612 5.83283 12.0741 5.79697 12.0941ZM8.9907 12.0941C8.93744 12.1238 8.93249 12.2027 8.93249 13.0173C8.93249 13.8652 8.93558 13.9095 8.99683 13.941C9.03708 13.9616 9.4348 13.974 10.059 13.974C10.9218 13.974 11.064 13.9672 11.1092 13.9239C11.1541 13.8808 11.1614 13.7532 11.1614 13.0163C11.1614 12.1665 11.1608 12.1586 11.0875 12.1093C11.0246 12.067 10.8676 12.0598 10.0312 12.0606C9.42615 12.0612 9.02657 12.0741 8.9907 12.0941ZM12.1844 12.0941C12.1312 12.1238 12.1262 12.2027 12.1262 13.0173C12.1262 13.8652 12.1293 13.9095 12.1906 13.941C12.2308 13.9616 12.6285 13.974 13.2528 13.974C14.1156 13.974 14.2577 13.9672 14.3029 13.9239C14.3478 13.8808 14.3552 13.7532 14.3552 13.0163C14.3552 12.1665 14.3545 12.1586 14.2812 12.1093C14.2183 12.067 14.0614 12.0598 13.225 12.0606C12.6199 12.0612 12.2203 12.0741 12.1844 12.0941Z" fill="url(#paint0_linear_1_565)"/>
<defs>
<linearGradient id="paint0_linear_1_565" x1="6.55208" y1="3.16667" x2="6.62768" y2="16.0474" gradientUnits="userSpaceOnUse">
<stop stop-color="#00A6DB"/>
<stop offset="1" stop-color="#0065C1"/>
</linearGradient>
</defs>
</svg>
