<svg width="26" height="25" viewBox="0 0 26 25" fill="none" xmlns="http://www.w3.org/2000/svg">
<g filter="url(#filter0_d_1_240)">
<path d="M19.3665 1.00908L6.64635 1C5.19332 0.998964 4.01012 2.18048 4.00908 3.63351L4 16.3537C3.99896 17.8067 5.18048 18.9899 6.63351 18.9909L11.9394 18.9947L11.944 12.6346L9.83565 12.6331L9.83791 9.47066L11.9462 9.47217L11.9478 7.32872C11.949 5.58483 13.3686 4.16727 15.1125 4.16851L18.3101 4.17079L18.3078 7.33326L15.1102 7.33098L15.1087 9.47443L18.3063 9.47671L17.777 12.6388L15.1064 12.6369L15.1019 18.997L19.3537 19C20.8067 19.001 21.9899 17.8195 21.9909 16.3665L22 3.64635C22.001 2.19332 20.8195 1.01012 19.3665 1.00908Z" fill="white"/>
</g>
<defs>
<filter id="filter0_d_1_240" x="0.963363" y="0.240841" width="24.0733" height="24.0733" filterUnits="userSpaceOnUse" color-interpolation-filters="sRGB">
<feFlood flood-opacity="0" result="BackgroundImageFix"/>
<feColorMatrix in="SourceAlpha" type="matrix" values="0 0 0 0 0 0 0 0 0 0 0 0 0 0 0 0 0 0 127 0" result="hardAlpha"/>
<feOffset dy="2.27748"/>
<feGaussianBlur stdDeviation="1.51832"/>
<feComposite in2="hardAlpha" operator="out"/>
<feColorMatrix type="matrix" values="0 0 0 0 0 0 0 0 0 0 0 0 0 0 0 0 0 0 0.32 0"/>
<feBlend mode="normal" in2="BackgroundImageFix" result="effect1_dropShadow_1_240"/>
<feBlend mode="normal" in="SourceGraphic" in2="effect1_dropShadow_1_240" result="shape"/>
</filter>
</defs>
</svg>
