<svg width="26" height="25" viewBox="0 0 26 25" fill="none" xmlns="http://www.w3.org/2000/svg">
<g filter="url(#filter0_d_1_242)">
<path d="M19.3633 1H6.63672C5.18295 1 4 2.18295 4 3.63672V16.3633C4 17.817 5.18295 19 6.63672 19H19.3633C20.817 19 22 17.817 22 16.3633V3.63672C22 2.18295 20.817 1 19.3633 1ZM13.0352 14.7109C10.4181 14.7109 8.28906 12.5819 8.28906 9.96484C8.28906 7.34776 10.4181 5.21875 13.0352 5.21875C15.6522 5.21875 17.7812 7.34776 17.7812 9.96484C17.7812 12.5819 15.6522 14.7109 13.0352 14.7109ZM18.3086 6.27344C17.4363 6.27344 16.7266 5.56372 16.7266 4.69141C16.7266 3.81909 17.4363 3.10938 18.3086 3.10938C19.1809 3.10938 19.8906 3.81909 19.8906 4.69141C19.8906 5.56372 19.1809 6.27344 18.3086 6.27344Z" fill="white"/>
<path d="M18.3086 4.16406C18.0176 4.16406 17.7812 4.40041 17.7812 4.69141C17.7812 4.98241 18.0176 5.21875 18.3086 5.21875C18.5996 5.21875 18.8359 4.98241 18.8359 4.69141C18.8359 4.40041 18.5996 4.16406 18.3086 4.16406Z" fill="white"/>
<path d="M13.0352 7.15234C11.4845 7.15234 10.2227 8.4142 10.2227 9.96484C10.2227 11.5155 11.4845 12.7773 13.0352 12.7773C14.5858 12.7773 15.8477 11.5155 15.8477 9.96484C15.8477 8.4142 14.5858 7.15234 13.0352 7.15234Z" fill="white"/>
</g>
<defs>
<filter id="filter0_d_1_242" x="0.963363" y="0.240841" width="24.0733" height="24.0733" filterUnits="userSpaceOnUse" color-interpolation-filters="sRGB">
<feFlood flood-opacity="0" result="BackgroundImageFix"/>
<feColorMatrix in="SourceAlpha" type="matrix" values="0 0 0 0 0 0 0 0 0 0 0 0 0 0 0 0 0 0 127 0" result="hardAlpha"/>
<feOffset dy="2.27748"/>
<feGaussianBlur stdDeviation="1.51832"/>
<feComposite in2="hardAlpha" operator="out"/>
<feColorMatrix type="matrix" values="0 0 0 0 0 0 0 0 0 0 0 0 0 0 0 0 0 0 0.32 0"/>
<feBlend mode="normal" in2="BackgroundImageFix" result="effect1_dropShadow_1_242"/>
<feBlend mode="normal" in="SourceGraphic" in2="effect1_dropShadow_1_242" result="shape"/>
</filter>
</defs>
</svg>
