<svg width="32" height="32" viewBox="0 0 32 32" fill="none" xmlns="http://www.w3.org/2000/svg">
<g filter="url(#filter0_d_1_216)">
<path d="M25.2286 20.6546C26.4604 19.1737 27.3172 17.4182 27.7264 15.5365C28.1356 13.6548 28.0852 11.7023 27.5794 9.84413C27.0737 7.986 26.1275 6.27691 24.8209 4.86145C23.5142 3.44598 21.8857 2.36578 20.0729 1.71222C18.2601 1.05866 16.3164 0.850964 14.4063 1.10671C12.4961 1.36245 10.6758 2.07411 9.09911 3.18148C7.52247 4.28885 6.23595 5.75936 5.34839 7.4686C4.46082 9.17784 3.99832 11.0755 4 13.0011C4.00065 15.8004 4.98792 18.5101 6.78857 20.6546L6.77141 20.6692C6.83146 20.7412 6.90008 20.8029 6.96183 20.874C7.03903 20.9623 7.12223 21.0454 7.20201 21.1311C7.44218 21.3917 7.68921 21.6419 7.94825 21.8768C8.02717 21.9488 8.10865 22.0156 8.18842 22.0842C8.46291 22.3207 8.74511 22.5453 9.0376 22.7544C9.07534 22.7801 9.10965 22.8135 9.1474 22.8401V22.8298C11.1563 24.2424 13.5529 25.0005 16.0094 25.0005C18.466 25.0005 20.8625 24.2424 22.8715 22.8298V22.8401C22.9092 22.8135 22.9427 22.7801 22.9813 22.7544C23.2729 22.5444 23.556 22.3207 23.8305 22.0842C23.9102 22.0156 23.9917 21.9479 24.0706 21.8768C24.3297 21.6411 24.5767 21.3917 24.8169 21.1311C24.8966 21.0454 24.979 20.9623 25.057 20.874C25.1179 20.8029 25.1874 20.7412 25.2475 20.6683L25.2286 20.6546ZM16.0086 6.14473C16.772 6.14473 17.5183 6.37093 18.153 6.79471C18.7878 7.21849 19.2825 7.82083 19.5747 8.52556C19.8668 9.23028 19.9432 10.0057 19.7943 10.7539C19.6454 11.502 19.2778 12.1892 18.7379 12.7286C18.1981 13.268 17.5104 13.6353 16.7616 13.7841C16.0129 13.9329 15.2368 13.8565 14.5315 13.5646C13.8262 13.2727 13.2233 12.7784 12.7992 12.1442C12.3751 11.5099 12.1487 10.7643 12.1487 10.0015C12.1487 8.9786 12.5553 7.99762 13.2792 7.27434C14.0031 6.55107 14.9849 6.14473 16.0086 6.14473ZM9.15254 20.6546C9.16742 19.5293 9.62512 18.455 10.4266 17.6643C11.2281 16.8736 12.309 16.4299 13.4353 16.4294H18.5818C19.7082 16.4299 20.7891 16.8736 21.5905 17.6643C22.392 18.455 22.8497 19.5293 22.8646 20.6546C20.9834 22.3484 18.5409 23.2858 16.0086 23.2858C13.4763 23.2858 11.0337 22.3484 9.15254 20.6546Z" fill="white"/>
</g>
<defs>
<filter id="filter0_d_1_216" x="0" y="0.000488281" width="32" height="32" filterUnits="userSpaceOnUse" color-interpolation-filters="sRGB">
<feFlood flood-opacity="0" result="BackgroundImageFix"/>
<feColorMatrix in="SourceAlpha" type="matrix" values="0 0 0 0 0 0 0 0 0 0 0 0 0 0 0 0 0 0 127 0" result="hardAlpha"/>
<feOffset dy="3"/>
<feGaussianBlur stdDeviation="2"/>
<feComposite in2="hardAlpha" operator="out"/>
<feColorMatrix type="matrix" values="0 0 0 0 0 0 0 0 0 0 0 0 0 0 0 0 0 0 0.32 0"/>
<feBlend mode="normal" in2="BackgroundImageFix" result="effect1_dropShadow_1_216"/>
<feBlend mode="normal" in="SourceGraphic" in2="effect1_dropShadow_1_216" result="shape"/>
</filter>
</defs>
</svg>
