<svg width="18" height="18" viewBox="0 0 18 18" fill="none" xmlns="http://www.w3.org/2000/svg">
<path d="M4.52813 6.77799C4.58484 6.55711 4.72424 6.35989 4.92352 6.21864C5.12279 6.07739 5.37012 6.00047 5.625 6.00049H12.375C12.6299 6.00047 12.8772 6.07739 13.0765 6.21864C13.2758 6.35989 13.4152 6.55711 13.4719 6.77799L9 9.20749L4.52813 6.77799ZM4.5 7.34899V10.901L7.76419 9.12199L4.5 7.34899ZM8.30306 9.41549L4.60744 11.429C4.69875 11.6001 4.84286 11.7447 5.023 11.8459C5.20315 11.9471 5.41191 12.0007 5.625 12.0005H12.375C12.5881 12.0005 12.7967 11.9468 12.9768 11.8455C13.1568 11.7443 13.3008 11.5996 13.392 11.4285L9.69637 9.41499L9 9.79349L8.30306 9.41549ZM10.2358 9.12249L13.5 10.901V7.34899L10.2358 9.12199V9.12249Z" fill="white"/>
<circle cx="9" cy="9.00049" r="8.3" stroke="white" stroke-width="1.4"/>
</svg>
