<svg width="1071" height="596" viewBox="0 0 1071 596" fill="none" xmlns="http://www.w3.org/2000/svg">
<path d="M945.181 151.32C944.542 151.534 943.903 151.32 943.477 151.747C942.624 152.173 941.985 153.025 941.346 153.664C941.133 153.877 941.985 155.156 942.411 155.156C943.264 155.156 944.542 155.156 945.181 154.517C946.034 153.664 947.099 152.599 947.312 151.32C947.951 148.124 949.869 147.911 952.213 148.977C953.917 149.829 957.539 148.977 956.048 153.451C955.196 156.008 957.965 157.073 960.096 157.499C961.162 157.713 962.44 157.499 963.718 157.499C963.931 158.778 963.931 159.843 964.145 161.548C966.062 161.335 967.98 161.122 969.897 160.909C973.52 160.483 977.142 159.843 980.551 159.843C984.812 159.843 986.517 162.613 985.665 166.875C985.025 170.923 987.369 174.119 989.5 178.167C990.139 176.037 990.778 174.971 990.992 173.693C991.418 169.858 993.761 169.432 996.957 169.858C999.514 170.284 1002.28 170.71 1005.05 170.923C1007.18 171.136 1009.74 171.562 1009.95 168.153C1009.95 167.727 1011.23 167.088 1011.87 167.088C1012.94 167.514 1014.22 168.153 1014.43 169.005C1014.86 169.858 1014.43 171.136 1014 172.201C1013.79 172.841 1012.72 173.054 1011.45 173.693C1014 174.758 1016.13 175.611 1019.33 176.889C1018.48 173.906 1018.05 171.775 1017.41 169.858C1016.35 167.088 1017.41 166.235 1019.97 166.448C1021.03 166.448 1022.1 166.448 1023.17 166.875C1026.15 168.153 1029.13 169.645 1032.54 167.94C1033.18 167.514 1034.67 168.366 1035.52 168.792C1042.13 172.841 1048.73 176.676 1055.13 180.724C1056.83 181.79 1058.53 182.855 1060.03 183.92C1061.94 185.199 1063.01 186.69 1062.58 189.247C1062.37 190.312 1063.01 191.378 1063.22 192.017C1064.5 190.525 1065.57 188.608 1066.63 188.608C1067.7 188.608 1069.61 190.312 1070.04 191.591C1071.96 196.278 1070.68 200.753 1068.98 205.227C1068.55 206.08 1066.42 207.358 1065.78 206.932C1063.44 206.08 1060.03 204.801 1059.39 202.884C1058.32 199.901 1056.4 199.048 1053.85 198.409C1052.14 197.983 1050.65 196.918 1048.95 196.278C1048.95 197.344 1048.95 198.196 1048.73 199.048C1048.09 201.818 1046.6 203.31 1043.62 203.097C1042.34 203.097 1040.64 203.523 1040.21 204.375C1039.78 205.227 1040.64 206.719 1041.28 207.997C1042.55 210.128 1044.26 212.259 1045.11 214.603C1045.96 216.52 1045.32 218.225 1042.55 217.372C1038.29 215.881 1034.67 216.946 1031.26 219.716C1026.79 223.125 1022.1 226.108 1017.41 229.091C1016.77 229.517 1015.28 228.878 1014.43 228.665C1013.15 228.452 1011.87 227.6 1010.81 227.813C1006.55 228.665 1002.28 229.73 998.023 231.009C994.614 232.074 993.122 235.057 992.483 237.401C994.188 239.106 996.105 240.384 996.105 241.662C996.318 242.941 994.614 244.645 993.974 246.137C993.335 247.415 992.27 248.907 992.057 250.398C991.631 251.89 992.057 253.594 992.057 255.725C987.795 254.234 986.73 256.364 986.091 259.773C985.878 260.626 984.386 261.052 983.534 261.904C982.682 262.756 981.616 263.609 981.403 264.674C980.764 268.936 978.846 272.132 975.65 273.836C975.437 270.427 975.65 267.018 975.011 263.609C973.733 256.791 972.454 250.185 974.159 243.154C974.798 240.81 975.65 239.106 978.633 239.532C979.912 239.745 981.403 238.466 982.469 237.614C986.517 233.992 990.352 230.157 994.401 226.321C995.466 225.256 996.318 223.978 997.17 222.699C998.236 220.782 999.301 218.864 1000.79 216.094C999.514 216.52 998.236 216.307 997.384 217.159C995.466 218.864 993.761 220.782 992.057 222.699C990.565 224.191 989.287 226.534 986.943 225.043C985.878 224.404 985.878 222.06 985.452 220.142C980.551 219.077 971.602 223.125 969.897 228.452C969.471 229.944 970.963 232.287 971.602 233.992C968.832 234.418 964.997 235.057 960.735 235.696C961.162 232.074 958.818 231.009 956.048 230.796C954.983 230.583 953.065 231.435 952.639 232.287C951.573 234.418 950.295 234.631 948.377 234.205C945.607 233.566 942.624 232.5 939.854 232.714C937.298 232.927 934.741 233.992 932.61 235.27C930.479 236.549 928.988 238.892 927.07 240.597C923.022 244.006 918.974 247.415 914.712 250.825C914.073 251.464 913.221 251.89 912.581 252.316C913.86 254.02 914.925 255.725 915.991 257.217C917.908 259.56 920.252 258.708 922.383 257.643C926.005 255.725 928.988 256.577 930.053 260.413C930.692 262.543 930.479 265.313 930.266 267.657C929.84 270.64 928.988 273.836 928.136 276.819C927.07 280.015 926.005 283.424 924.3 286.407C922.383 289.39 919.613 291.947 917.269 294.717C913.86 298.765 910.025 301.322 904.485 301.748C900.436 301.961 896.814 303.453 895.11 307.927C894.683 308.993 893.831 309.845 892.766 310.484C889.783 311.976 889.996 313.893 891.487 316.237C892.34 317.302 893.405 318.155 894.257 319.433C895.323 321.138 896.388 323.055 896.601 324.973C896.814 327.317 895.962 328.808 892.766 327.956C890.422 327.53 887.439 328.595 884.243 329.235C884.456 327.743 884.456 325.825 885.095 324.121C887.439 318.155 887.013 317.089 881.899 316.237C881.26 314.32 881.047 312.189 879.982 311.55C877.638 310.484 875.507 311.763 874.016 313.893C872.737 315.811 871.459 316.663 869.541 314.533C870.393 312.828 871.246 310.91 872.098 309.206C871.672 308.78 871.459 308.567 871.033 308.14C866.984 310.697 862.723 313.254 857.822 316.237C860.379 317.942 862.084 319.22 864.001 320.073C864.427 320.286 865.493 318.794 866.345 317.942C867.624 318.155 869.541 318.368 871.246 319.007C871.885 319.22 872.524 320.072 873.163 320.499C872.524 321.138 872.098 321.99 871.459 322.203C870.18 322.842 868.476 322.842 867.197 323.482C864.427 324.76 864.001 326.678 865.706 329.021C866.771 330.3 868.05 331.365 869.328 332.644C869.967 333.283 871.033 333.922 871.459 334.774C872.95 337.118 871.672 345.854 869.754 347.985C867.41 350.755 865.28 353.951 862.936 356.721C861.444 358.425 859.527 360.556 857.396 361.195C852.282 363.113 846.743 364.604 841.416 365.67C839.072 366.309 837.581 366.522 838.007 369.718C838.22 371.423 837.581 373.34 836.728 374.832C836.302 375.471 834.384 375.258 833.106 375.471C833.106 374.406 832.68 373.127 833.106 372.275C833.745 370.996 834.811 369.931 835.663 368.653C832.68 365.457 829.058 365.456 825.862 368.439C822.879 371.209 822.666 374.192 825.436 377.175C826.927 378.88 828.632 380.585 830.549 382.076C836.515 386.977 835.876 392.303 829.058 395.713C826.714 396.991 824.37 398.056 822.666 398.909C821.174 397.63 819.896 395.926 818.404 395.286C815.421 394.008 812.438 393.156 810.947 389.747C810.521 388.681 808.39 387.616 807.325 387.829C806.259 388.042 804.981 389.533 804.555 390.812C802.637 396.778 805.194 403.17 810.734 406.153C813.93 407.858 817.126 409.562 817.126 414.037C817.126 415.528 818.404 417.02 819.47 419.576C814.569 417.446 810.094 416.38 808.603 411.054C808.177 409.349 807.111 407.431 805.833 406.366C801.785 403.17 801.145 399.122 802.211 394.86C803.915 388.255 799.654 383.781 797.523 378.454C797.097 378.241 796.671 378.028 796.245 377.602C795.606 378.667 794.966 380.585 793.901 381.011C792.41 381.65 790.066 381.863 788.787 381.224C786.657 379.945 788.787 378.667 789.64 377.602C791.131 375.897 790.279 374.619 788.787 373.553C786.23 371.849 783.247 370.783 781.969 367.374C781.756 366.735 780.478 366.309 779.625 366.096C774.725 365.883 769.824 365.456 766.202 369.931C765.35 370.996 763.858 371.636 762.58 372.701C760.236 374.618 757.892 376.536 755.335 378.454C753.631 379.732 751.5 380.798 750.008 382.076C748.73 383.141 747.452 384.633 747.025 386.124C745.747 390.386 744.895 394.647 743.616 398.909C742.977 401.252 741.273 402.744 738.929 402.105C737.65 401.679 736.585 399.974 735.733 398.696C734.241 396.565 733.176 394.434 731.897 392.303C731.684 391.877 731.045 391.451 731.045 390.812C730.619 383.994 724.227 379.306 725.292 371.849C725.718 368.653 722.735 368.013 720.392 368.653C717.409 369.292 716.13 368.227 714.852 365.883C713.786 363.965 712.508 362.047 711.017 360.343C709.099 357.999 706.542 357.36 703.346 357.573C698.445 357.999 693.545 357.147 688.644 356.934C686.3 356.721 683.957 356.508 681.826 356.081C680.76 355.868 679.482 355.229 679.269 354.377C678.204 351.181 675.647 350.968 673.729 352.033C667.55 355.442 663.715 352.246 659.88 347.772C658.601 346.28 657.11 345.002 655.618 343.723C654.979 343.297 653.487 342.871 652.848 343.297C652.209 343.936 651.783 345.215 651.996 346.067C652.209 347.132 653.061 348.411 653.914 349.263C656.257 352.033 658.601 354.803 660.945 357.573C662.863 359.704 665.419 359.917 667.976 357.999C669.468 356.934 670.959 355.655 672.451 354.803C675.008 353.312 676.925 353.738 678.204 356.508C679.269 359.064 680.974 360.769 683.53 361.621C686.087 362.474 686.087 364.817 685.022 366.522C683.104 369.505 681.187 372.914 678.204 374.619C673.09 378.028 667.55 380.372 662.223 382.928C656.044 385.698 649.865 388.255 643.686 391.025C638.999 393.156 636.655 391.451 636.442 386.337C636.229 380.585 632.606 376.11 628.558 372.488C626.64 370.783 625.788 369.292 625.362 366.735C624.936 364.391 623.018 362.26 621.527 360.13C620.248 358.212 618.544 356.721 617.265 355.016C616.626 354.164 616.2 352.885 615.561 352.033C614.069 349.476 612.152 347.772 608.956 349.902C608.316 350.329 607.464 350.329 606.399 350.542C609.808 355.442 612.791 360.556 616.413 365.03C618.544 367.8 619.822 369.931 617.265 373.553C622.805 374.619 623.658 379.732 626.214 383.141C628.345 385.698 631.115 387.829 633.459 389.96C635.376 391.664 637.294 393.369 638.999 395.286C640.916 397.417 642.621 397.63 645.178 396.565C648.161 395.073 650.931 393.582 654.127 392.517C655.618 392.09 658.601 392.09 659.027 392.943C659.88 394.434 660.306 397.417 659.453 398.696C654.979 405.727 650.291 412.758 642.834 417.233C640.277 418.724 638.359 420.855 636.229 422.772C633.672 425.116 632.18 428.312 628.132 429.165C627.067 429.378 626.001 431.295 625.575 432.574C623.444 438.966 625.149 444.719 627.919 450.472C629.624 453.881 631.115 457.503 629.623 461.551C628.558 464.534 626.64 466.665 623.444 467.091C620.888 467.517 619.183 468.37 618.118 470.927C617.692 471.992 616.2 472.844 614.922 473.27C611.512 474.549 610.66 476.253 612.152 479.236C614.495 484.563 613.643 486.694 608.103 488.824C607.038 489.251 605.973 490.955 605.973 491.807C607.251 499.691 602.35 504.379 597.024 508.853C588.501 516.098 578.06 517.589 567.62 518.228C562.506 518.441 560.162 515.671 560.589 510.345C561.015 506.509 560.376 503.1 556.54 500.756C552.918 498.626 551.64 495.217 551.427 490.742C551.213 486.907 549.083 483.285 547.378 479.662C546.1 477.106 544.608 474.549 542.904 472.205C540.56 468.583 540.986 464.961 543.117 461.338C543.33 460.912 543.756 460.273 543.969 459.847C546.952 456.651 548.657 453.242 546.952 448.554C545.674 444.506 544.395 440.884 540.773 438.327C539.282 437.261 538.216 435.983 536.938 434.918C533.102 431.295 530.972 427.673 533.529 422.133C534.594 420.216 534.381 417.659 535.02 415.102C529.48 417.446 528.628 417.233 525.006 412.758C521.384 408.284 515.844 408.497 510.943 408.497C508.386 408.497 505.829 409.349 503.486 410.414C500.077 411.906 496.88 412.119 493.684 410.628C490.914 409.349 488.571 409.775 485.801 411.054C483.883 411.906 480.261 411.906 478.769 410.628C473.869 407.005 469.607 402.531 464.92 398.483C462.789 396.778 460.871 394.647 458.528 393.582C453.84 391.451 452.349 386.551 455.332 382.502C458.315 378.454 459.38 374.405 457.036 369.505C456.184 367.8 456.61 365.03 457.675 363.326C459.806 359.277 462.576 355.442 465.346 351.82C466.198 350.755 467.69 350.328 468.968 349.689C474.082 347.772 478.556 345.215 478.556 338.823C478.556 337.757 478.982 336.692 479.622 335.84C482.392 332.644 485.162 329.234 488.145 326.251C488.784 325.612 490.701 325.825 491.98 325.825C495.389 326.251 498.585 326.891 501.994 327.104C503.699 327.104 505.616 326.038 506.682 324.973C510.091 320.925 512.861 319.859 518.188 321.351C520.531 321.99 522.875 323.055 525.219 323.055C527.563 323.055 529.906 321.99 532.25 321.351C533.316 321.138 534.807 320.072 535.446 320.499C536.299 321.138 536.938 322.629 537.151 323.908C537.79 327.743 537.364 331.791 541.412 334.135C542.904 334.987 544.821 335.627 546.313 335.414C549.083 334.774 550.574 336.053 552.705 337.331C555.901 339.249 559.31 340.953 562.932 342.445C565.063 343.297 566.768 342.871 566.342 339.462C566.128 338.397 567.62 335.84 568.685 335.84C570.816 335.414 573.373 335.627 575.29 336.479C582.748 339.675 590.419 341.166 598.302 338.61C602.564 337.118 602.777 337.544 604.268 341.806C608.316 339.675 608.316 339.462 611.086 334.348C612.152 332.431 614.069 330.726 615.135 328.595C616.2 326.678 617.052 324.334 614.495 322.629C612.365 321.138 610.447 321.99 608.743 323.695C607.89 324.547 605.333 324.76 604.481 324.121C602.137 321.99 599.794 322.416 598.089 323.908C595.319 326.038 593.401 324.76 591.271 323.055C590.205 322.203 589.353 321.351 588.501 320.286C586.37 317.942 586.37 315.811 588.714 313.68C592.123 310.697 594.893 306.649 600.22 308.14C600.859 308.354 601.711 308.14 602.137 307.714C605.333 304.518 608.53 306.01 612.152 306.862C617.052 308.141 622.379 308.354 627.706 308.567C629.197 308.567 630.689 307.075 632.393 306.223C631.328 304.945 630.689 303.24 629.41 302.175C626.427 299.831 623.018 298.126 620.035 295.782C619.396 295.356 620.035 293.226 620.248 291.947C620.461 290.456 621.101 289.177 621.527 287.686C619.609 287.899 617.692 287.686 615.987 288.325C614.709 288.751 613.643 290.243 612.152 291.734C613.43 292.799 614.495 293.439 615.561 294.078C610.234 297.7 610.234 297.7 606.186 293.013C605.546 292.373 605.12 291.521 604.481 291.308C602.99 290.669 600.859 289.603 599.581 290.029C598.302 290.669 598.089 293.013 597.45 294.504C597.237 294.93 597.45 295.356 597.45 295.782C593.188 297.487 591.058 302.175 592.549 306.223C592.762 306.862 592.549 307.927 592.123 308.567C591.484 309.632 590.205 310.271 589.566 311.337C588.288 313.68 586.583 313.893 584.453 312.615C581.896 311.337 581.896 311.55 578.06 314.32C578.913 316.024 579.765 317.729 580.404 318.581C578.06 321.138 576.143 323.269 573.586 326.251C570.177 319.007 567.407 312.402 564.424 306.01C563.998 305.157 562.932 304.092 562.08 303.879C557.393 303.027 553.983 300.896 551.427 296.422C549.509 292.799 547.378 292.799 545.248 295.569C547.165 298.552 548.444 301.961 550.787 304.305C552.918 306.436 556.327 307.075 559.31 308.567C560.802 309.206 562.293 310.058 563.572 310.697C563.358 311.124 563.145 311.55 562.932 311.976C561.654 311.763 560.376 311.55 558.884 311.337C556.54 314.106 559.523 319.22 553.983 321.138C554.196 319.859 554.196 319.22 554.41 318.368C555.901 314.32 555.049 311.55 551 310.271C545.461 308.567 541.199 305.158 537.364 300.896C535.02 298.339 532.676 297.913 530.333 300.683C528.415 302.814 526.284 302.601 523.94 301.748C522.449 301.109 520.744 300.47 519.253 300.47C516.27 300.257 515.418 302.388 516.057 306.436C513.926 307.714 511.369 308.78 509.665 310.484C508.386 311.763 507.747 313.68 507.321 315.385C506.895 317.303 507.321 319.433 504.125 319.433C503.699 319.433 503.273 320.072 502.846 320.286C502.633 320.499 502.42 320.925 502.42 321.138C500.503 324.547 497.733 320.925 495.602 322.203C493.471 323.269 491.554 325.825 489.21 322.416C488.571 321.564 486.227 321.351 484.948 321.777C482.605 322.629 481.752 321.777 480.9 320.073C480.261 318.794 479.622 317.516 479.409 316.663C480.261 312.828 481.113 309.206 481.752 305.797C481.965 305.158 481.965 304.092 481.752 303.453C480.474 299.831 481.539 298.126 485.375 298.339C487.931 298.339 490.488 298.978 493.045 299.405C493.471 299.405 493.897 299.618 494.324 299.618C501.994 300.896 506.469 295.782 503.699 288.325C503.273 286.833 501.142 285.981 499.437 285.129C497.307 283.85 494.963 282.998 492.619 281.72C495.815 277.671 497.946 282.359 500.29 281.72C500.929 279.802 501.568 278.098 502.207 276.18C503.273 276.819 504.551 277.458 506.469 278.524C509.025 275.967 512.222 272.984 514.991 270.001C517.335 267.444 519.679 264.674 522.236 262.33C523.088 261.691 524.58 261.691 525.858 261.478C527.35 261.265 528.841 261.265 530.333 260.626C533.102 259.56 533.742 257.217 531.611 255.299C529.693 253.381 529.906 251.89 531.185 249.759C532.676 247.202 533.742 244.645 535.233 241.876C538.429 242.941 539.495 245.924 539.068 248.481C538.855 251.038 536.725 253.381 536.512 254.447C537.79 255.938 539.068 257.217 540.134 258.495C540.986 256.79 542.904 257.004 545.674 257.856C549.509 258.921 553.131 257.643 556.753 255.938C557.819 255.299 559.736 255.086 560.802 255.512C563.572 256.577 565.702 256.151 566.981 253.381C568.685 249.759 570.177 246.137 571.668 242.089C574.225 242.728 576.995 243.58 579.978 244.432C580.191 244.219 580.191 243.793 580.404 243.58C579.978 243.154 579.765 242.302 579.339 242.089C576.995 241.449 575.077 240.384 573.586 238.253C572.307 236.549 573.16 235.697 574.225 234.844C578.7 231.648 583.6 231.648 588.714 232.5C589.779 232.713 591.058 232.287 591.697 231.648C592.123 231.435 592.123 229.73 591.484 229.091C590.845 228.452 589.566 228.026 588.501 227.813C588.075 227.6 587.649 228.026 587.222 228.026C584.666 228.452 582.109 229.091 579.765 229.517C575.93 230.157 572.521 229.517 570.39 225.895C568.259 221.847 568.472 218.012 571.029 214.389C572.307 212.685 574.012 211.193 575.504 209.489C577.421 207.571 579.339 205.653 581.043 203.736C582.535 201.818 582.322 199.474 580.617 197.983C579.339 196.918 576.995 196.278 575.29 196.492C571.455 197.344 569.751 201.179 569.964 205.227C570.177 206.932 569.111 209.063 568.046 210.128C565.915 212.472 562.932 214.176 560.589 216.52C556.966 220.142 556.966 223.338 560.375 227.174C563.572 230.796 562.932 233.353 558.245 235.057C555.475 236.123 554.196 239.106 555.262 242.728C556.54 247.628 555.901 248.694 551 249.546C551.64 251.89 550.361 252.742 548.23 252.529C546.1 252.529 544.395 252.103 543.756 249.546C543.33 247.628 542.264 245.924 541.412 244.219C540.56 242.089 539.495 239.745 538.642 237.401C538.216 236.123 538.003 234.844 537.364 232.927C536.512 233.992 536.085 234.631 535.446 235.27C534.168 236.549 532.889 238.466 531.185 238.679C529.054 239.319 526.497 239.106 524.367 238.253C523.727 238.04 523.94 234.844 524.153 232.927C524.153 232.074 524.58 231.222 525.006 230.157C522.023 231.435 520.318 230.157 520.318 227.6C520.318 225.256 520.531 222.273 521.81 220.781C525.006 217.372 528.628 213.75 532.676 211.619C538.003 208.636 540.986 204.588 542.904 199.048C543.756 196.491 545.248 194.361 546.313 192.017C547.591 188.821 548.87 185.838 550.361 182.429C550.148 182.429 550.787 182.855 551.213 182.855C552.279 182.855 553.557 182.855 554.41 182.216C554.836 181.79 554.41 180.298 554.196 179.446C553.983 178.807 553.77 178.167 553.557 177.528C554.41 177.528 555.049 177.741 555.901 177.528C556.966 177.315 557.819 176.889 558.884 176.676C558.458 176.037 558.032 175.184 557.606 174.545C557.179 173.906 556.966 173.267 556.753 172.628C556.966 172.414 557.179 172.201 557.393 171.988C558.671 172.841 559.736 173.48 561.867 174.758C561.654 172.201 561.654 170.284 561.441 168.153C564.85 167.088 565.063 171.136 567.833 171.988C569.111 170.71 570.603 169.218 572.094 167.514C572.521 167.727 573.373 168.366 574.438 169.005C574.225 168.366 574.012 167.94 574.012 167.514C573.799 166.022 571.029 164.531 573.586 163.252C576.356 161.974 575.504 165.17 576.569 166.448C576.782 166.662 576.782 166.875 577.421 167.514C577.847 166.235 578.273 165.17 578.913 164.531C579.339 163.892 580.191 163.679 581.043 163.252C581.256 163.892 581.683 164.744 581.896 165.383C581.896 166.448 581.896 167.301 581.683 168.366C581.896 168.366 582.322 168.579 582.535 168.579C582.961 167.514 583.174 166.448 583.6 165.383C584.026 164.531 584.452 163.892 584.879 163.252C585.518 163.679 586.157 164.105 587.009 164.744C587.435 163.465 587.649 162.187 588.075 161.122C588.288 161.122 588.501 161.122 588.714 161.122C589.14 162.4 589.566 163.679 589.992 164.531C591.484 164.744 592.762 164.744 594.041 165.17C595.319 165.596 596.384 166.662 597.663 167.301C596.598 168.366 595.319 169.431 594.254 170.497C596.171 171.775 598.302 173.054 600.859 171.136C602.777 169.645 604.481 170.923 604.907 172.628C605.333 175.397 607.038 175.611 609.169 175.184C613.856 174.332 617.265 176.25 620.035 179.872C621.74 182.003 623.871 183.707 626.214 184.773C628.558 186.051 629.197 187.542 628.771 189.886C628.345 192.443 627.28 194.574 624.51 194.787C618.331 195.426 612.152 195 606.399 192.443C604.907 191.804 603.842 190.099 602.564 189.034C602.564 192.656 604.268 194.361 609.808 196.065C609.808 197.131 609.808 198.196 609.808 199.474C609.595 204.801 611.512 207.358 616.413 208.636C617.265 208.849 618.544 208.21 619.609 207.997C619.183 207.145 618.757 205.867 617.905 205.227C617.052 204.588 615.987 204.162 614.282 203.523C615.774 201.392 617.265 200.753 619.183 202.67C619.822 203.31 620.675 204.375 621.314 204.375C625.149 204.375 628.345 205.654 630.689 208.85C630.902 209.063 631.967 208.85 633.033 208.85C630.902 206.506 628.984 204.801 627.706 202.884C626.854 201.392 625.788 198.196 626.427 197.77C628.558 196.065 631.328 194.787 633.885 193.935C635.376 193.508 637.081 193.935 638.786 194.148C638.572 192.017 638.146 190.099 637.933 187.969C637.72 186.264 637.081 184.559 637.294 182.855C637.507 181.79 638.572 179.872 639.425 179.872C640.916 179.872 642.834 180.511 644.112 181.363C644.538 181.79 644.112 183.494 643.899 184.773C643.686 185.625 642.621 186.264 642.834 186.903C643.047 188.608 643.473 190.525 644.538 191.591C646.03 192.869 647.948 192.23 648.8 190.099C650.931 184.773 655.192 182.216 660.306 180.298C661.584 179.872 662.436 178.593 663.715 178.167C664.78 177.741 666.059 178.167 667.124 178.167C666.698 179.233 666.698 180.724 666.059 181.577C664.78 183.281 663.076 184.559 661.584 186.051C661.797 186.477 662.01 186.903 662.436 187.329C663.715 186.903 664.993 186.477 666.059 185.625C667.976 183.92 669.681 182.003 671.385 180.085C671.598 179.872 671.598 179.659 671.812 179.659C675.434 178.594 679.056 177.741 682.891 176.676C683.104 177.954 683.317 179.02 683.53 180.085C688.431 177.102 688.644 173.906 684.596 170.71C683.104 169.431 682.039 167.94 680.334 166.448C683.104 164.957 684.596 166.022 685.661 167.514C687.153 169.858 689.283 170.71 692.053 171.136C697.806 171.775 703.133 173.693 707.394 177.954C708.673 179.233 710.59 179.446 712.295 180.298C712.721 179.872 713.147 179.446 713.36 179.02C712.295 177.528 711.443 175.611 709.951 174.332C707.82 172.628 707.181 170.71 707.607 168.153C707.82 166.875 707.82 165.383 707.607 164.105C707.181 161.974 707.394 160.269 709.312 158.565C710.59 157.286 711.23 154.943 711.443 153.025C712.082 145.568 714.426 143.65 721.67 145.568C724.866 146.42 726.358 148.977 724.653 151.96C722.948 155.156 721.67 157.926 724.866 161.122C725.505 161.761 724.866 163.892 725.079 165.383C725.079 169.431 724.653 173.693 725.505 177.315C727.423 184.133 722.949 191.804 716.769 192.443C716.343 192.443 716.13 192.656 715.491 192.869C719.113 194.148 722.522 195 725.292 192.656C728.488 190.099 731.258 186.903 729.554 182.003C728.914 179.659 730.832 177.315 733.602 176.889C736.585 176.463 737.65 178.167 737.65 180.724C737.65 182.429 737.65 183.92 737.65 186.477C739.142 185.412 740.633 184.773 740.633 184.346C740.207 181.363 739.781 178.38 738.503 175.824C737.011 173.267 734.454 174.119 731.897 175.184C729.341 176.25 727.636 174.971 728.062 172.201C728.914 167.088 729.128 161.974 727.423 157.073C727.21 156.434 727.423 155.156 727.849 154.517C730.832 150.042 730.832 150.042 730.619 145.994C734.028 146.42 734.454 147.485 733.389 151.107C732.111 155.369 733.176 157.926 737.224 159.843C738.076 160.269 739.355 160.269 740.42 160.269C740.633 160.056 740.633 159.63 740.846 159.417C739.781 158.565 738.503 157.926 737.437 157.073C736.372 156.221 735.733 154.943 734.667 153.877C735.946 153.664 737.011 153.451 738.29 153.238C738.716 153.238 739.142 153.025 740.42 152.812C739.355 151.747 738.716 151.32 738.077 150.468C737.65 150.042 737.437 149.403 737.224 148.764C737.863 148.551 738.503 148.124 738.929 148.124C744.682 149.19 749.156 153.025 753.631 156.434C754.483 157.073 754.27 159.417 753.844 160.909C752.139 166.875 752.778 168.579 757.892 172.201C757.04 166.448 756.401 160.482 755.548 155.156C753.205 152.173 750.648 149.403 748.73 146.42C746.173 141.732 748.517 138.536 753.844 138.536C758.318 138.536 762.58 138.11 767.054 137.897C767.267 137.471 767.267 137.258 767.267 137.045C764.923 129.161 766.841 125.326 775.364 121.277C779.199 119.36 783.674 118.721 786.657 114.885C787.509 113.82 790.066 113.82 791.557 114.033C795.393 114.885 799.015 116.164 802.211 111.689C802.85 113.394 803.489 114.246 803.702 115.098C804.555 120.638 805.407 125.965 806.472 131.505C806.685 132.57 807.751 133.636 808.816 134.275C809.029 134.488 810.307 133.422 810.947 132.996C811.799 132.57 812.651 131.931 813.504 132.144C816.913 132.57 819.043 130.866 820.961 128.309C822.239 126.604 822.026 126.178 819.683 124.687C818.617 126.178 817.978 128.309 816.487 129.161C814.995 130.013 812.651 130.226 810.947 129.587C808.39 128.735 805.407 120.425 805.407 117.442C805.407 115.311 804.342 113.181 803.702 110.624C806.046 110.411 808.177 110.411 811.16 110.198C807.324 104.871 811.373 102.101 813.93 98.905C814.569 98.2658 815.421 97.6266 816.06 97.2005C818.404 96.3482 821.174 95.709 822.666 98.0528C823.305 99.1181 821.813 101.462 820.961 103.806C821.387 104.019 822.453 104.445 823.731 104.871C825.009 105.297 826.075 105.936 827.353 106.576C826.501 107.641 825.862 108.706 824.37 110.411C826.075 110.198 827.566 110.198 828.845 109.559C835.45 106.362 842.694 108.706 845.89 115.525C847.808 119.786 846.53 124.9 842.055 128.522C836.089 133.423 830.123 138.11 824.157 143.011C823.305 143.65 822.666 144.289 822.026 145.141C822.026 145.568 822.239 145.781 822.239 146.207C823.731 146.207 825.435 146.633 826.714 146.207C830.975 144.715 833.745 141.306 835.663 137.258C836.302 136.192 837.794 135.553 838.859 134.488C839.498 135.34 840.137 136.406 840.99 137.471C842.055 137.471 843.547 137.471 845.464 137.471C845.251 139.602 845.251 141.519 845.038 143.65C845.464 143.863 845.677 144.076 846.103 144.289C846.103 139.815 848.447 137.684 852.495 137.684C856.97 137.684 860.592 139.175 862.936 143.224C863.575 144.289 865.493 145.568 866.345 145.141C871.033 143.863 875.081 145.568 879.129 147.272C879.769 147.485 880.621 147.698 881.473 148.124C882.538 145.781 881.473 144.928 879.555 144.289C877.851 143.65 876.146 142.371 874.868 140.88C874.442 140.454 875.081 138.323 875.72 137.897C879.982 135.34 891.7 140.241 892.766 145.141C893.192 147.272 893.192 149.829 892.553 151.96C891.487 155.582 891.914 158.565 895.11 160.482C896.388 161.335 898.732 162.187 899.371 161.548C900.436 160.696 900.65 158.565 901.076 157.073C901.289 155.795 901.289 154.73 902.141 153.238C903.846 157.499 907.042 156.86 910.238 156.647C912.581 156.434 915.351 157.073 917.695 157.713C922.596 159.417 924.94 158.139 925.153 153.025C925.366 148.337 927.709 146.42 932.397 147.059C934.954 147.272 937.511 147.485 940.068 147.485C944.542 146.633 945.82 147.911 945.181 151.32Z" fill="#747474" fill-opacity="0.05"/>
<path d="M309.592 591.951C308.526 594.295 305.97 596 302.987 595.147C298.512 593.869 293.825 592.377 289.563 590.247C286.154 588.542 286.154 584.92 285.941 581.724C285.728 578.741 285.089 576.61 282.532 574.479C280.614 572.775 281.04 568.514 280.827 565.317C280.827 565.104 283.171 564.465 284.662 564.039C283.81 562.761 282.745 561.482 282.106 560.204C281.466 559.138 281.253 557.86 280.827 556.795C282.319 557.008 283.81 557.008 285.089 557.221C285.302 557.221 285.728 557.647 286.793 558.286C287.432 553.172 287.859 548.485 288.498 543.158C287.219 544.436 286.367 545.076 285.515 545.715C285.302 545.715 285.089 545.502 284.662 545.502C285.089 542.945 285.515 540.601 285.941 538.044C286.367 535.701 286.367 533.144 287.006 530.8C288.285 525.686 289.776 520.786 291.268 515.672C291.907 513.328 292.546 510.984 292.759 508.428C293.825 500.118 295.103 491.595 295.955 483.072C296.381 479.876 296.594 476.467 295.955 473.484C295.316 469.436 292.759 466.879 288.285 466.453C283.171 466.026 279.975 462.404 277.205 458.569C275.714 456.438 274.435 454.308 273.37 451.964C271.239 447.702 269.321 443.228 264.634 440.458C263.355 439.819 262.503 437.901 262.29 436.41C262.077 435.344 263.782 434.279 264.208 433.001C264.634 432.361 264.847 431.296 264.634 430.657C261.651 422.986 267.191 419.577 272.304 416.381C274.222 415.103 274.861 414.037 274.222 411.907C273.157 409.137 272.304 406.154 271.239 403.384C270.6 401.466 269.534 400.827 267.404 401.892C262.716 404.236 258.029 403.597 253.98 400.401C249.932 397.205 246.31 393.795 242.048 390.812C240.131 389.534 237.787 388.682 235.443 388.043C233.526 387.616 231.395 387.616 229.477 387.19C228.625 386.977 227.133 386.338 226.92 385.699C226.494 381.224 223.511 382.503 220.741 382.503C216.267 382.29 211.579 381.864 207.318 381.011C205.826 380.798 204.761 379.094 203.483 378.028C202.63 377.389 201.778 375.684 201.139 375.898C197.943 376.537 196.238 374.406 194.107 372.915C191.764 371.21 188.994 369.932 185.798 368.014C187.715 367.162 188.994 366.522 190.059 365.883C187.076 362.474 184.093 359.278 181.11 356.082C177.062 352.034 172.587 348.198 168.539 343.937C167.474 342.872 167.261 340.954 166.408 339.675C165.982 338.823 164.704 338.61 163.851 338.184C163.851 339.249 163.212 340.315 163.638 340.954C167.474 346.281 171.522 351.607 175.357 357.147C176.423 358.639 177.275 360.13 178.553 362.048C174.292 362.048 171.096 358.852 170.03 355.443C169.391 353.525 167.047 352.247 165.343 350.968C164.064 350.116 162.36 349.477 160.229 348.624C161.721 347.346 162.36 346.707 163.638 345.642C161.934 343.298 159.803 340.954 158.312 338.61C154.902 333.496 151.067 329.022 145.314 326.039C137.218 321.778 132.956 310.059 134.874 301.11C135.939 296.209 136.791 291.522 135.3 286.621C133.595 281.72 131.038 277.885 126.138 275.754C123.155 274.476 121.876 272.771 123.368 269.149C125.286 265.101 122.942 260.2 119.107 257.643C116.763 255.939 113.993 254.021 112.714 251.464C110.371 247.203 106.962 244.433 102.487 242.302C98.6517 240.385 95.2426 238.041 92.6858 234.205C89.9159 230.157 84.8022 229.092 79.9015 229.305C77.5578 229.518 75.214 229.731 72.8702 229.518C71.1656 229.305 69.248 228.24 67.9696 226.961C64.7735 223.552 63.282 223.552 60.5121 227.174C58.3814 229.944 55.1853 232.075 52.4154 234.419C52.2023 234.632 50.4978 233.779 50.4978 233.566C50.7108 232.288 51.137 230.796 51.7762 229.518C52.8415 227.813 54.12 226.322 55.6115 224.191C52.4154 223.552 51.5631 225.043 50.7108 226.748C50.2847 227.813 49.4324 229.092 48.3671 229.518C44.3187 231.436 44.1056 231.649 45.8102 235.697C45.8102 235.91 45.5971 236.123 45.5971 236.336C41.1226 239.958 36.4351 243.794 31.7475 247.416C30.4691 248.481 28.9776 249.334 27.4861 249.973C20.6679 252.53 13.8496 255.086 7.88362 259.561C5.96598 260.839 2.98299 260.626 0.426143 261.052C0.213072 260.626 0.213071 260.2 0 259.774C3.40913 257.856 6.81826 256.152 10.2274 254.234C17.2587 250.612 24.2901 246.99 31.1083 243.154C32.5998 242.302 33.6652 239.958 33.8782 238.254C34.3044 235.058 32.5998 234.419 29.6168 235.271C27.4861 235.91 25.3554 236.336 23.2247 236.336C19.3894 236.123 18.9633 235.058 20.2417 231.649C20.4548 231.01 20.6679 230.157 21.094 228.879C15.3411 229.944 11.2927 228.026 8.52283 223.339C6.17905 219.291 6.60519 216.095 10.2274 213.538C12.9973 211.62 16.4064 210.342 19.6025 208.85C20.8809 208.211 22.1594 207.998 24.077 207.359C21.5201 204.163 18.3241 203.736 14.915 203.31C12.145 202.884 9.37511 202.458 6.81826 201.393C3.19606 199.688 2.13071 197.344 3.19606 194.787C4.47449 192.017 8.09669 191.165 11.2927 191.804C14.4888 192.657 17.8979 193.083 21.094 193.296C22.3724 193.296 23.4378 192.444 24.5031 190.952C23.4378 190.739 22.3724 190.739 21.3071 190.526C14.2757 189.248 8.94897 185.838 5.96598 179.233C4.68755 176.25 5.32677 174.972 8.52283 175.185C12.5712 175.611 15.128 174.12 16.8326 170.071C21.094 160.696 33.4521 156.009 43.0403 159.205C47.5148 160.696 51.9893 162.401 56.6768 163.466C60.0859 164.105 63.9212 164.318 67.3304 164.105C70.5264 163.892 73.2963 164.318 75.6401 166.662C78.197 169.006 80.9669 169.858 84.376 170.071C87.5721 170.497 90.7681 172.202 93.538 173.693C95.8818 174.972 97.7995 176.676 100.143 173.906C100.782 173.267 102.061 173.054 102.913 172.628C106.322 171.137 109.945 170.071 112.927 168.154C117.402 165.597 117.402 165.384 119.959 170.71C120.385 167.514 120.811 165.384 121.237 162.188C123.581 166.023 126.351 169.006 130.399 167.941C130.612 169.645 130.825 170.923 131.038 172.415C132.317 172.202 134.021 172.415 135.087 171.776C138.496 169.645 141.692 169.432 144.462 171.776C148.297 174.972 152.772 175.824 157.459 176.25C160.016 176.463 162.36 177.529 164.917 178.168C164.917 178.594 164.917 179.02 164.917 179.446C163.425 180.725 161.934 181.79 160.442 183.068C160.442 183.495 160.442 183.921 160.442 184.134C163.851 184.347 167.047 184.56 170.457 184.56C171.735 184.56 173.013 183.921 174.292 183.708C178.979 182.856 180.684 184.134 181.323 188.821C181.323 189.248 181.536 189.674 181.536 190.1C181.749 190.313 181.962 190.739 182.175 190.952C184.306 190.313 185.372 189.248 184.093 186.904C182.815 184.56 183.241 182.429 184.732 180.299C186.437 178.168 188.141 177.742 190.698 179.446C192.829 180.938 195.386 181.577 197.943 182.429C200.926 183.282 203.909 183.495 206.892 184.134C211.366 184.986 213.497 182.642 212.005 178.381C210.94 175.398 210.301 172.628 212.645 169.432C214.775 171.35 216.693 173.054 218.397 175.185C218.824 175.824 217.971 177.742 217.545 178.807C215.414 183.068 215.841 185.625 218.611 187.33C220.315 184.347 221.807 181.364 223.724 178.381C225.216 176.037 224.363 173.48 221.594 171.989C216.48 169.219 215.201 164.318 218.184 159.205C219.463 157.074 220.315 154.517 220.315 151.96C220.528 146.42 220.102 140.667 219.889 135.128C219.676 131.718 220.741 130.44 224.15 130.866C226.068 131.079 227.986 131.719 229.69 132.571C232.247 133.849 234.591 135.767 234.378 138.963C234.165 142.159 232.247 144.29 229.264 145.568C227.133 146.42 226.92 147.699 226.281 149.616C224.79 153.452 225.216 156.222 227.773 159.205C229.477 161.335 230.543 164.105 232.247 167.088C231.608 167.514 230.329 168.367 229.051 169.219C230.969 172.628 236.722 172.415 235.443 177.955C236.082 176.89 236.722 175.824 237.574 174.972C238.639 174.12 240.131 173.054 240.983 173.267C242.048 173.693 243.114 175.185 243.327 176.463C243.54 178.594 243.114 180.938 242.901 183.068C242.688 185.625 243.966 186.051 246.31 185.199C249.719 183.921 251.21 180.086 249.293 176.037C247.801 172.841 249.08 171.35 251.85 170.71C255.259 169.858 258.455 169.432 261.438 171.989C263.995 174.333 264.421 176.889 262.29 179.659C260.799 181.577 260.799 183.282 261.651 185.412C263.995 190.526 262.29 193.083 256.75 194.148C255.685 194.361 254.833 195.853 253.767 196.918C253.767 196.918 253.341 196.705 252.915 196.492C248.867 193.722 245.671 195 245.457 200.114C245.244 205.015 242.688 206.932 238.852 208.85C236.935 209.702 235.656 211.833 233.952 213.325C232.673 214.603 231.608 216.095 230.329 216.947C226.281 219.291 223.298 222.7 221.594 226.961C220.528 229.518 220.741 231.649 223.298 233.353C224.363 233.992 225.216 234.845 226.494 235.697C228.625 236.975 229.903 238.68 229.477 241.45C229.051 243.581 230.116 244.22 232.034 244.007C237.148 243.368 241.409 245.072 245.244 248.481C248.654 251.677 252.702 252.743 257.176 252.316C258.242 252.316 259.094 252.316 260.799 252.316C258.881 256.791 259.733 260.626 262.077 264.249C262.503 264.888 262.929 265.527 263.355 265.953C264.847 266.805 266.551 267.445 268.256 268.084C268.895 266.379 270.174 264.462 270.174 262.757C269.961 259.987 268.895 257.217 268.043 254.021C268.469 253.808 269.321 253.382 270.174 253.169C273.583 252.53 275.714 250.612 275.927 247.203C276.353 242.728 274.648 238.68 271.878 236.975C270.813 236.336 270.174 235.058 268.895 233.566C273.583 233.353 273.583 231.436 272.731 228.453C271.665 224.83 271.452 220.995 271.239 217.16C271.239 216.521 272.091 215.455 272.731 215.455C274.435 215.242 276.14 215.242 277.844 215.455C278.91 215.455 279.975 216.521 280.827 216.094C285.515 214.39 287.645 216.947 290.202 220.356C291.481 222.274 294.464 223.126 296.808 223.765C298.938 224.404 299.791 225.257 298.938 227.387C298.938 227.6 298.725 227.813 298.725 228.026C297.873 231.436 299.151 234.845 301.708 235.91C304.904 236.975 307.461 235.484 309.166 232.927C310.657 230.583 311.936 227.813 313.001 225.896C316.197 232.501 318.967 239.319 322.802 245.924C324.081 248.268 327.277 249.973 329.62 251.89C332.816 254.447 336.439 256.578 338.996 259.561C341.978 262.757 341.552 266.379 338.996 270.214C338.143 271.28 337.717 273.411 338.143 274.263C338.569 275.115 340.7 275.115 341.979 275.967C343.257 277.033 344.322 278.311 345.388 279.59C346.027 280.229 346.027 281.72 346.666 282.146C349.649 284.064 349.649 284.703 347.092 288.325C346.24 287.686 345.601 286.621 344.748 286.408C343.683 286.195 342.192 286.408 341.126 286.834C340.274 287.26 339.422 287.899 338.782 288.538C338.356 287.473 337.93 286.408 337.078 284.49C334.521 284.49 331.325 284.49 327.064 284.49C327.916 282.146 328.342 280.655 329.194 279.376C331.325 276.393 333.669 273.624 335.586 270.641C336.013 270.214 335.799 269.149 335.799 268.51C335.16 268.51 333.882 268.297 333.669 268.723C330.047 274.05 324.933 273.41 319.606 272.558C318.967 272.558 317.688 274.263 317.475 275.328C317.262 275.967 318.328 277.033 318.541 278.311C317.475 277.459 315.558 276.82 315.558 275.967C315.132 272.132 312.149 272.558 310.231 273.198C306.183 274.263 302.773 276.82 299.79 279.59C300.004 280.016 300.217 280.229 300.43 280.655C301.921 280.016 303.413 279.163 304.904 278.524C306.396 277.885 307.887 276.82 309.379 276.82C310.657 276.82 312.362 277.672 313.214 278.524C313.64 279.163 313.001 280.868 312.575 282.146C312.362 283.425 311.509 284.703 311.722 285.982C311.936 286.621 313.64 286.834 314.705 287.26C316.41 287.899 318.328 288.325 320.245 288.965C321.098 288.112 322.163 286.834 323.441 286.408C324.507 285.982 325.785 287.047 327.064 287.473C326.424 288.325 325.998 289.178 325.359 290.03C324.933 290.456 323.867 290.456 323.867 290.882C323.654 295.144 320.245 293.865 317.902 294.505C315.558 295.144 313.64 295.357 312.788 298.127C312.575 298.766 311.083 299.618 310.231 299.405C309.379 299.405 308.1 298.127 308.313 297.488C308.526 296.635 309.379 295.57 310.231 294.931C310.657 294.504 311.722 294.718 312.149 294.505C312.575 294.078 312.788 293.226 313.001 292.374C312.362 292.161 311.722 291.948 311.083 291.948C310.657 291.948 310.018 292.374 309.592 292.8C307.035 296.209 303.413 297.061 299.577 297.488C299.151 297.488 298.725 297.488 298.512 297.701C297.447 298.766 296.168 299.618 295.103 300.684C296.168 301.749 297.234 302.814 298.512 304.093C297.447 304.519 295.955 305.584 294.251 306.01C288.711 307.502 284.876 311.55 281.466 315.812C280.401 317.303 279.549 319.434 279.549 321.351C279.549 325.613 277.418 328.383 274.222 330.513C272.091 331.792 269.961 333.283 267.404 334.136C263.782 335.627 262.503 337.971 263.142 341.593C263.782 344.789 264.634 347.985 265.699 350.968C266.978 354.164 266.125 356.508 263.995 358.639C262.716 357.147 261.225 355.869 260.159 354.377C258.881 352.673 257.389 350.755 256.963 348.838C256.111 345.215 254.833 343.298 250.997 342.659C248.227 342.232 245.457 342.019 242.688 342.019C241.196 342.019 239.918 342.872 238.426 343.298C236.508 343.724 234.378 344.789 232.673 344.363C220.741 340.954 216.48 344.363 213.071 356.082C212.645 357.36 212.218 358.852 212.005 360.13C211.792 361.835 211.792 363.752 212.218 365.244C214.136 371.423 224.363 376.75 230.329 374.619C231.608 374.193 232.673 372.488 233.312 371.21C235.017 367.588 237.148 365.031 241.409 364.818C244.605 364.605 245.671 366.096 244.605 369.079C243.54 371.636 242.261 373.98 241.196 376.324C240.557 377.602 240.131 378.881 239.491 380.798C242.901 380.798 245.457 380.798 248.227 380.798C250.784 380.585 253.554 380.372 256.963 379.946C256.324 382.503 255.685 384.847 255.046 387.19C253.554 392.304 254.193 395.287 258.029 397.631C259.52 398.483 261.864 398.909 263.782 398.483C266.978 397.844 269.748 396.565 272.304 399.975C273.37 401.253 278.057 399.335 278.483 397.418C279.123 394.648 279.975 392.943 283.171 394.861C283.597 395.074 285.089 394.435 285.728 394.009C289.776 390.386 294.464 390.599 299.151 391.878C300.217 392.304 300.856 394.222 301.708 395.5C303.2 394.009 305.33 392.943 307.248 395.713C307.461 396.139 309.166 395.713 310.018 395.287C314.705 392.943 317.262 393.582 321.098 396.779C324.933 400.188 329.194 403.384 333.243 406.793C335.16 408.284 337.291 408.923 339.635 407.858C343.257 406.367 346.666 407.645 349.223 410.202C351.354 412.333 353.271 414.676 354.976 417.233C356.68 419.577 354.976 421.069 353.271 422.56C351.567 424.052 349.862 425.543 348.158 426.821C348.371 427.035 348.584 427.461 348.797 427.674C349.862 426.822 350.927 425.969 352.206 425.117C353.484 424.265 354.763 422.56 355.828 422.773C360.729 423.199 366.055 422.773 369.891 426.821C372.874 429.804 375.857 431.083 380.544 430.444C383.527 430.018 387.15 431.935 390.346 433.214C392.689 434.066 394.607 435.557 396.738 436.623C401.638 438.753 402.491 444.08 398.442 447.489C396.312 449.194 394.394 451.112 392.476 452.816C388.428 456.438 386.084 460.7 386.51 466.453C386.51 467.731 386.297 469.01 386.297 470.288C384.806 480.515 381.823 483.498 371.595 484.99C368.825 485.416 366.056 486.268 363.712 487.334C360.516 488.825 358.172 490.956 359.45 495.217C359.876 496.709 359.237 498.839 358.385 500.118C356.467 502.888 353.91 505.232 351.567 507.575C348.797 510.345 346.24 512.902 343.257 515.246C341.765 516.311 339.635 517.164 337.717 517.164C335.799 517.164 333.882 516.098 331.112 515.246C332.177 517.163 332.603 518.655 333.456 519.72C336.439 523.556 335.799 527.817 331.112 529.948C328.555 531.226 325.572 531.439 322.589 531.865C320.245 532.078 318.541 532.505 319.393 535.488C320.032 538.257 318.754 539.11 316.197 538.684C315.132 538.471 314.066 538.684 312.788 538.684C313.001 539.11 313.427 539.323 313.64 539.749C312.788 541.454 311.722 543.371 310.87 545.076C310.444 545.715 310.018 546.567 310.231 547.419C310.87 550.189 309.166 551.681 307.248 553.172C305.97 554.025 304.904 555.516 303.839 556.795C305.33 558.073 306.609 559.351 308.1 560.63C308.526 560.417 308.739 560.204 309.166 560.204C308.953 561.056 308.953 561.908 308.526 562.548C306.609 565.104 303.626 567.022 303.413 570.857C303.413 571.496 301.921 572.349 300.856 572.349C297.873 572.562 297.873 574.053 298.512 576.184C299.577 579.167 300.217 582.363 301.708 584.92C304.691 588.116 307.248 589.608 309.592 591.951Z" fill="#747474" fill-opacity="0.05"/>
<path d="M452.349 122.344C451.923 124.474 451.709 126.179 451.496 128.523C450.005 127.244 449.366 126.179 448.3 125.54C447.448 124.901 446.596 124.261 445.743 124.474C445.317 124.474 444.465 125.966 444.465 126.605C444.678 127.671 445.317 128.523 446.17 129.375C446.596 129.801 447.661 129.375 448.087 129.801C448.726 130.227 449.366 131.719 449.366 131.719C447.874 132.997 446.17 134.276 444.465 134.915C444.039 135.128 442.76 133.637 441.908 132.784C441.695 132.571 441.482 132.145 441.482 132.145C440.63 133.21 439.777 134.276 438.925 135.341C439.777 135.554 441.482 135.554 442.974 136.193C444.252 136.833 444.891 138.111 445.957 138.963C444.891 139.603 444.039 140.668 442.974 141.094C440.843 142.373 438.712 142.159 436.794 140.242C436.155 139.603 434.451 139.603 433.385 139.389C433.172 139.816 432.959 140.242 432.746 140.668C435.516 142.586 438.286 144.29 441.482 146.421C440.204 146.634 439.351 146.847 438.073 147.06C438.925 148.125 439.564 148.978 440.63 150.682C438.499 150.682 437.008 151.108 435.729 150.469C434.877 150.043 434.664 148.338 434.238 147.273C433.812 145.995 433.385 144.716 432.959 143.651C432.533 143.651 432.107 143.651 431.681 143.651C431.468 145.142 431.255 146.634 431.042 148.765C430.615 148.978 429.763 149.83 428.698 150.469C435.729 149.617 438.499 154.304 441.269 158.992C443.187 162.188 441.269 165.81 437.86 166.236C435.516 166.45 434.238 165.597 433.385 163.253C432.746 161.549 431.681 159.844 430.829 158.14C430.402 158.14 430.189 158.353 429.763 158.353C429.55 158.779 429.124 159.418 429.337 159.844C431.042 163.253 429.976 165.171 426.141 166.236C424.436 166.663 422.945 168.367 421.453 169.432C421.666 169.646 421.88 170.072 422.093 170.285C423.584 169.432 424.863 168.58 426.354 167.728C427.419 167.089 428.485 166.023 429.337 166.023C432.746 166.236 436.155 166.876 439.564 167.728C439.991 167.728 440.843 168.793 440.63 169.219C440.417 169.859 439.777 170.711 439.351 170.924C434.025 171.35 431.042 174.759 428.911 179.234C428.698 179.873 427.846 180.725 427.632 180.725C422.945 179.447 418.257 183.921 413.57 180.512C412.931 180.086 412.078 179.873 411.013 179.447C411.439 180.938 411.652 182.004 411.865 183.069C411.652 182.856 411.226 182.856 411.013 182.643C409.948 184.561 408.456 186.265 407.604 188.396C406.538 191.166 405.686 193.722 402.064 193.722C401.638 193.722 400.999 193.936 400.786 194.362C399.081 197.771 396.95 196.279 395.033 194.362C394.393 195.853 394.18 196.919 393.541 197.984C393.328 198.623 392.263 199.262 392.263 199.262C389.067 197.345 387.788 200.328 385.658 201.606C386.723 202.885 388.001 204.163 389.493 205.868C388.001 206.294 387.149 206.507 386.936 206.507C385.871 209.703 385.018 212.473 383.953 215.456C382.461 214.816 381.609 214.39 380.118 213.964C380.544 215.456 380.544 216.521 380.97 217.586C382.035 219.93 379.692 227.814 377.135 228.453C375.856 228.879 373.726 228.027 372.66 226.962C371.382 225.683 370.529 224.831 368.612 225.044C365.416 225.47 362.859 223.765 360.941 221.209C359.024 218.652 357.106 215.882 354.975 213.538C353.484 211.621 352.845 210.342 355.401 208.637C356.254 207.998 356.467 206.294 356.893 205.015C356.467 204.802 356.254 204.802 355.828 204.589C354.975 205.441 354.123 206.294 353.271 206.933C352.845 206.72 352.632 206.72 352.632 206.507C351.14 198.623 347.305 191.166 349.009 183.069C349.222 182.004 350.288 180.725 351.14 180.512C354.549 179.66 355.401 177.316 355.401 174.12C355.401 170.924 354.336 168.58 350.714 167.728C349.009 167.302 347.305 166.236 345.174 165.171C348.796 161.549 351.14 164.745 353.697 165.597C355.401 163.467 354.549 161.762 352.845 160.697C351.14 159.631 349.649 158.779 349.649 156.435C349.649 155.583 349.009 154.731 348.583 153.878C348.157 154.091 347.731 154.518 347.305 154.731C346.879 155.796 346.666 156.861 346.026 157.714C345.6 158.353 344.535 158.566 343.896 159.205C343.469 158.566 342.617 157.714 342.617 157.074C342.83 154.731 343.683 152.6 343.896 150.256C344.109 148.125 344.748 145.355 343.896 143.651C340.487 136.193 337.077 128.523 333.029 121.492C328.555 113.821 315.344 110.838 307.674 114.886C306.395 115.526 304.478 115.739 303.199 115.099C302.347 114.673 301.921 112.543 301.921 111.264C302.134 108.068 299.79 107.216 297.872 105.724C296.168 104.233 294.463 102.528 292.759 100.824C292.546 100.611 292.759 99.9714 292.759 99.1192C297.659 101.889 302.347 104.659 307.674 101.889C309.165 101.25 310.017 99.3322 311.083 98.0538C310.87 97.6277 310.657 97.4146 310.444 96.9885C307.887 97.2015 305.543 97.4146 302.986 97.6276C300.642 98.0538 298.938 97.6277 297.233 95.9231C295.742 94.2185 293.611 92.9401 291.693 91.6617C290.202 90.5963 289.989 89.744 291.267 88.2525C294.463 84.4173 298.299 81.6473 303.199 80.3689C308.313 79.0905 312.574 76.7467 313.64 70.7807C314.492 66.5193 313.213 65.2409 309.165 65.454C306.821 65.667 305.33 64.8148 304.478 62.6841C303.625 60.3403 304.904 59.2749 306.821 58.2096C309.804 56.505 313.213 55.4397 313.64 50.9652C313.853 50.1129 316.836 49.4737 318.54 48.8345C320.032 48.4083 322.162 48.8345 322.802 47.7691C323.654 46.9168 323.015 44.7861 323.015 43.2946C323.015 42.4423 322.162 41.8031 322.162 40.9508C322.162 39.0332 322.375 37.1156 322.589 35.198C324.932 35.8372 327.702 36.0502 329.62 37.3287C331.751 38.8202 333.242 41.377 334.947 43.7208C335.373 43.5077 335.586 43.2946 336.012 43.0815C334.734 41.1639 333.668 39.2463 332.39 37.3287C331.751 36.2633 330.259 35.6241 329.833 34.5587C328.768 32.428 328.555 30.5104 331.751 29.8712C334.734 29.232 338.356 29.6581 340.7 26.6751C340.913 26.4621 344.109 27.5274 344.322 28.5928C344.961 30.7235 344.961 33.0672 344.748 35.411C344.535 37.7548 345.174 38.8201 348.37 40.0986C347.944 35.1979 347.518 31.1496 347.305 26.6751C348.796 26.0359 350.288 27.1012 350.927 29.0189C351.566 30.7234 351.566 32.428 352.418 33.9195C353.058 34.9849 354.762 36.6894 355.615 36.4763C357.958 35.8371 357.319 33.9195 356.467 32.2149C356.041 31.1496 355.188 30.2973 354.549 29.2319C353.697 27.7404 352.845 26.0359 351.779 24.1183C355.615 22.8398 357.958 24.3314 359.876 26.6751C361.794 29.0189 363.498 31.7888 365.416 34.3456C366.268 35.411 367.547 36.4763 368.612 36.6894C369.677 36.9025 370.743 36.0502 372.021 35.411C371.595 34.5587 371.595 33.4934 370.956 32.8542C368.399 29.8712 365.629 26.8882 363.498 23.6921C362.433 22.2006 361.581 20.0699 364.99 19.4307C367.12 19.0045 366.481 17.513 365.629 16.2346C363.498 12.1863 363.711 11.9732 368.399 10.9079C370.743 10.4817 372.873 8.5641 375.43 7.07261C376.495 8.13796 378.2 9.41638 379.265 10.2687C380.544 8.5641 381.396 6.43338 382.888 5.79417C384.379 5.15496 385.444 9.84251 384.379 13.2516C386.084 14.7431 388.001 14.7431 389.28 13.0386C392.05 9.41636 388.214 7.49872 386.51 4.51573C389.067 3.45038 391.41 1.53274 393.967 1.31967C400.786 0.467388 407.817 -0.171772 414.848 0.0412987C419.962 0.254369 424.01 3.45038 426.993 8.77714C425.502 9.20329 424.436 9.62948 423.371 9.62948C415.914 9.41641 408.882 11.5471 401.851 13.8909C400.572 14.317 399.507 15.3823 398.229 16.2346C398.229 16.2346 398.655 17.7261 398.868 17.7261C400.359 17.5131 402.064 17.5131 402.916 16.6608C409.948 10.9079 418.257 12.1863 426.354 11.7602C426.993 11.7602 427.846 12.1863 428.911 12.3994C427.846 14.7431 426.993 16.8738 426.141 18.5784C428.485 17.9392 431.042 16.4477 433.172 16.8739C435.303 17.3 437.221 19.2176 438.925 21.1353C440.63 22.8398 439.991 24.7575 438.073 26.249C433.598 29.232 429.337 31.5758 423.371 30.9365C419.536 30.5104 415.487 31.1496 411.652 31.7888C408.243 32.428 406.112 34.7718 405.26 39.0332C406.538 38.394 407.391 38.1809 408.03 37.7548C413.144 34.1326 419.11 33.7064 425.076 33.7064C426.141 33.7064 427.632 35.198 428.059 36.2633C428.272 37.1156 426.993 38.394 426.141 39.2463C424.863 40.5247 423.158 41.8031 421.027 43.5077C425.502 43.9338 429.55 40.9509 430.615 37.1156C431.255 34.9849 431.255 32.428 434.664 33.0673C437.647 33.7065 439.564 35.8371 439.351 39.0332C438.925 43.5077 437.86 47.9822 434.664 51.6044C432.959 53.522 431.468 55.6527 432.533 58.8488C439.991 54.1612 439.351 44.7861 444.039 38.607C445.957 40.9508 447.022 43.0816 448.726 44.36C451.07 46.0645 452.988 44.9992 452.988 42.0162C452.988 41.1639 452.988 40.3116 452.775 39.6724C451.922 35.1979 452.349 34.3457 456.823 34.7718C460.019 35.1979 463.428 36.0502 466.411 37.3287C468.755 38.394 469.82 40.7378 468.329 43.0815C466.198 46.7037 464.068 50.3259 461.511 53.7351C460.445 55.0135 458.102 55.2266 456.397 55.6527C453.84 56.2919 451.283 56.7181 448.726 57.1442C448.726 57.5704 448.726 58.2096 448.94 58.6357C451.07 58.6357 453.201 58.4227 455.119 58.6357C456.184 58.8488 457.036 59.9142 458.102 60.7664C457.249 61.8318 456.397 63.7494 455.119 63.9625C452.988 64.3886 450.644 64.1755 448.513 64.1755C445.53 64.1755 444.465 65.667 444.891 68.8631C446.383 67.7977 447.448 66.5193 448.94 66.0932C450.218 65.6671 452.136 65.667 453.201 66.3062C454.053 66.9454 454.692 68.8631 454.266 69.9285C454.053 70.7807 452.349 71.4199 451.283 71.8461C449.153 72.4853 448.3 74.403 449.579 76.5337C450.218 77.3859 451.07 78.0251 451.923 79.0905C445.957 80.1558 445.53 85.4826 444.465 89.744C443.4 94.2185 445.956 96.7753 450.644 96.1361C451.922 95.923 453.201 95.9231 454.479 95.9231C454.479 99.5453 450.005 100.824 444.678 98.906C444.465 101.463 446.17 101.676 447.874 101.676C452.988 101.889 453.201 102.102 452.136 107.216C451.709 109.773 451.07 112.33 450.431 115.739C449.792 112.756 449.366 110.625 448.513 108.707C447.874 107.642 446.17 107.003 444.891 106.79C444.465 106.79 443.613 108.494 442.76 109.986C442.547 109.986 441.482 110.199 439.138 110.625C441.269 112.329 442.76 114.46 444.465 114.673C447.661 115.099 448.3 117.017 448.513 119.787C448.3 120.426 448.087 123.409 452.349 122.344Z" fill="#747474" fill-opacity="0.05"/>
<path d="M874.881 464.292C875.946 465.358 876.585 465.997 877.651 467.062C878.929 464.932 880.207 463.014 881.273 461.309C883.83 457.048 887.665 456.835 890.648 460.67C891.926 462.375 893.844 462.375 895.122 460.244C895.335 459.818 895.549 459.179 895.762 458.539C897.466 454.065 897.466 454.065 902.367 453.852C902.793 450.23 904.924 450.443 907.694 451.721C909.611 452.573 911.955 452.36 914.086 452.573C914.938 452.786 916.43 452.786 916.643 453.426C917.069 454.065 916.643 455.556 916.216 456.409C914.086 460.244 914.299 461.735 918.134 463.866C920.691 465.145 923.674 466.21 926.657 466.636C929.001 467.062 930.705 465.784 930.918 463.014C931.131 460.67 931.131 458.113 931.344 455.769C931.558 453.852 932.41 451.934 933.049 450.017C933.475 450.017 933.901 450.017 934.114 450.017C934.541 451.082 935.18 452.147 935.606 453.213C936.671 455.13 937.097 458.113 938.589 458.965C943.276 461.096 943.276 465.571 944.768 469.193C945.62 471.111 946.686 472.389 949.029 472.815C952.225 473.241 954.143 475.159 955.208 478.355C955.421 479.42 956.7 480.059 957.552 480.699C957.978 481.125 958.831 481.551 959.044 481.977C959.896 484.534 960.748 486.665 964.157 486.665C965.01 486.665 966.075 489.222 966.288 490.926C966.927 494.122 966.927 497.531 967.14 500.94C967.566 504.989 966.288 508.611 963.305 511.381C959.896 514.79 957.339 518.412 956.913 523.313C956.7 526.083 954.782 527.148 952.225 527.787C950.095 528.214 948.177 529.492 946.259 529.705C944.981 529.918 943.276 529.705 942.211 529.066C941.359 528.64 940.72 527.361 940.08 526.509C934.754 531.41 933.901 531.41 928.575 527.148C925.805 525.017 923.035 523.313 923.248 519.265C923.248 518.625 922.182 517.56 921.543 517.347C920.904 517.347 920.052 517.986 919.412 518.625C918.56 519.478 917.921 520.543 916.643 522.247C916.003 516.921 922.396 515.216 920.265 509.676C918.986 511.381 917.921 512.872 916.856 514.151C915.79 515.216 914.725 516.495 913.233 516.921C912.807 517.134 911.316 515.216 910.89 514.151C909.611 510.102 906.628 508.185 902.793 508.185C898.745 508.185 894.696 508.824 890.648 509.037C888.943 509.25 887.239 509.463 885.534 509.463C879.994 509.463 879.355 509.889 878.503 515.216C875.733 514.79 873.176 514.151 870.406 514.151C867.849 514.151 865.293 514.364 863.588 516.921C862.523 518.412 853.574 517.56 852.934 515.855C852.508 515.003 852.721 512.872 853.361 512.446C856.77 510.316 855.278 507.546 854.213 504.989C853.787 503.923 853.361 502.645 852.295 502.006C845.903 497.318 846.542 490.074 845.903 483.469C845.69 480.486 848.247 478.568 850.804 477.716C854 476.65 857.409 476.011 860.605 475.585C868.276 475.372 873.815 473.028 874.881 464.292Z" fill="#747474" fill-opacity="0.05"/>
<path d="M279.336 22.8418C280.828 18.3673 278.484 16.4497 276.353 14.319C275.714 13.6797 274.649 12.6144 274.862 12.4013C275.288 11.549 276.14 10.6968 276.993 10.4837C280.189 9.20528 283.598 10.6967 285.089 14.1059C285.516 14.9582 286.368 15.5974 287.433 16.8758C288.072 13.6798 285.942 10.2706 290.203 8.99219C290.629 10.0575 291.055 11.1229 291.695 12.6144C293.399 9.41835 294.678 8.13992 297.447 11.336C298.3 12.4013 301.283 11.9752 303.413 12.4013C304.479 12.6144 305.544 12.8274 306.61 13.0405C306.396 14.1059 306.183 15.5974 305.544 16.4497C304.692 17.9412 303.2 19.0065 302.135 20.285C302.348 20.7111 302.774 20.9242 302.987 21.3503C304.266 20.0719 305.757 19.2196 306.823 17.7281C310.232 13.2536 313.854 13.2536 317.05 17.9412C317.902 19.0065 318.328 20.498 319.181 21.5633C319.82 22.2026 320.672 23.0549 321.524 23.0549C324.721 23.2679 325.573 24.1202 324.507 27.1032C323.229 31.1515 320.033 33.4953 316.411 35.8391C310.658 39.2482 305.118 43.0835 299.578 47.3449C305.331 47.558 308.527 42.8704 313.002 40.7397C313.854 43.2966 312.362 47.7711 310.019 48.8364C305.331 50.9671 302.561 55.0155 300.004 59.2769C298.087 62.4729 296.169 65.4559 294.038 68.4389C289.99 73.9787 286.581 75.0441 280.189 72.9134C279.55 72.7003 278.697 72.9134 277.845 73.1265C277.419 73.3396 277.206 74.4049 277.206 74.618C277.845 75.2572 278.697 75.6833 279.336 75.8964C279.763 76.1094 280.189 75.8964 280.828 75.8964C285.729 75.8964 285.729 75.8964 284.237 80.584C284.024 81.0101 284.663 81.8624 284.663 82.5016C284.45 83.9931 284.237 85.4846 283.811 86.763C282.959 88.8937 281.68 90.8114 280.189 93.7944C277.419 94.0074 272.305 93.7944 274.436 100.613C273.37 100.613 272.944 100.613 272.305 100.826C271.453 101.039 270.601 101.678 269.748 102.104C270.174 102.956 270.387 104.022 271.027 104.661C274.223 107.005 274.223 108.07 271.24 110.84C270.601 111.479 270.174 112.118 269.748 112.758C269.322 113.397 268.896 113.823 268.257 115.101C266.765 113.823 265.274 112.332 263.782 111.266C262.93 110.627 261.652 110.201 260.586 110.201C254.833 110.414 249.72 114.888 243.541 112.545C242.475 112.118 241.197 112.118 240.131 112.545C238.853 112.971 236.935 113.823 236.722 114.675C236.509 115.741 237.575 117.658 238.64 118.298C242.262 120.641 246.31 122.346 250.785 120.428C253.768 119.15 256.964 118.084 260.16 117.871C262.93 117.658 266.126 118.511 268.044 120.002C269.109 120.854 268.896 124.477 268.044 126.394C266.765 129.59 263.356 131.082 260.16 130.443C255.046 129.164 250.572 129.803 245.458 130.869C242.688 131.508 238.853 128.525 235.018 129.59C234.592 129.803 233.739 128.951 233.313 129.164C230.33 129.803 230.117 128.738 229.691 125.968C229.265 122.985 229.478 120.215 229.265 117.445C229.265 115.954 227.134 114.249 225.643 113.397C223.512 112.118 220.955 111.479 218.611 110.414C216.694 109.562 215.841 107.857 216.694 105.726C217.546 103.596 219.25 103.382 221.381 104.235C222.447 104.661 223.512 104.874 224.151 105.726C227.56 110.201 232.248 108.283 236.509 108.07C237.148 108.07 237.788 107.431 238.214 107.005C239.705 105.939 241.197 104.448 242.688 103.809C245.671 102.317 245.884 101.465 243.754 98.908C243.114 98.0557 242.901 96.9904 242.688 95.9251C243.754 95.712 245.032 95.0728 245.884 95.2858C247.163 95.712 248.441 96.7773 249.72 97.6296C250.359 98.2688 250.785 99.3342 251.637 99.5473C252.916 99.9734 254.194 99.7603 255.686 99.9733C255.046 99.1211 254.407 98.0558 253.342 97.6296C250.572 95.925 250.359 95.2859 252.703 92.5159C253.342 91.6636 253.342 90.1721 253.555 89.1068C253.342 88.8937 252.916 88.6806 252.703 88.6806C251.424 89.5329 250.146 90.5983 248.654 91.0244C247.802 91.4505 246.31 91.4505 245.458 91.0244C244.819 90.5983 244.393 89.3199 244.393 88.2545C244.606 85.9107 250.146 81.4362 252.703 81.6493C253.981 81.8624 255.046 82.7147 256.325 83.1408C257.39 83.567 258.456 83.9931 259.521 83.9931C260.16 83.9931 260.586 82.7147 261.225 82.0755C260.373 81.4363 259.521 80.3709 258.669 80.1578C256.325 79.5186 255.473 78.0271 254.62 75.8964C253.768 73.7657 252.063 71.635 250.146 69.9304C247.589 67.5866 248.441 65.0298 248.867 62.4729C248.867 62.0468 250.572 61.1945 250.998 61.4076C252.916 62.0468 255.046 62.686 256.325 63.9645C258.669 66.3082 260.586 69.2912 262.717 72.0611C263.143 71.635 263.569 71.4219 264.208 70.9958C262.291 67.5866 260.16 64.3906 258.029 60.7684C262.504 61.6207 265.487 58.8507 268.257 55.8677C269.535 54.1632 270.814 53.524 272.944 53.9501C274.01 54.1632 275.075 53.9501 276.14 53.737C276.567 53.524 276.993 52.8847 277.419 52.4586C276.78 52.0325 276.353 51.3933 275.714 50.9671C275.501 50.7541 274.862 51.1802 274.436 51.1802C270.387 51.8194 269.748 50.754 271.027 47.1318C271.24 46.7057 271.24 46.0665 271.453 45.6404C271.24 45.4273 270.814 45.4273 270.601 45.2142C269.961 46.4926 268.896 47.558 268.896 48.8364C268.47 53.3109 265.274 55.6547 262.291 57.9984C260.373 59.4899 258.669 59.2769 257.816 56.507C253.129 58.8508 252.063 58.6377 249.72 54.3763C249.293 55.0155 248.867 55.6547 248.441 56.507C245.884 55.0155 241.197 57.3592 240.771 52.6717C244.606 50.9671 248.441 49.2626 252.063 47.558C251.85 47.1319 251.637 46.7057 251.637 46.2796C250.359 46.7057 249.08 47.3449 247.802 47.7711C245.458 48.4103 242.901 49.0495 240.558 49.2625C239.705 49.2625 238.64 48.4103 237.575 47.7711C238.001 46.9188 238.427 45.8534 239.066 45.2142C239.492 44.575 240.344 44.1489 240.984 43.7228C240.771 43.5097 240.771 43.0835 240.558 42.8704C239.279 43.0835 238.001 43.2966 236.296 43.7228C234.592 40.9528 237.362 40.1005 239.066 38.8221C238.64 38.609 238.427 38.1829 238.001 37.9698C236.722 38.8221 235.444 39.8875 233.313 41.379C232.461 40.1005 231.609 38.609 230.543 36.9045C233.526 35.413 235.87 34.3476 238.853 33.0692C239.279 29.6601 240.345 29.2339 244.393 32.0039C245.458 32.8561 246.95 33.0692 248.441 33.4953C248.654 33.0692 249.08 32.643 249.293 32.2169C248.654 31.7907 247.589 31.5777 247.163 30.9385C246.737 30.2993 246.524 29.447 245.884 28.5947C246.95 28.1686 247.802 27.9555 247.802 27.9555C249.08 26.0378 249.507 24.1202 250.785 23.481C252.916 22.2026 253.768 24.3333 254.833 25.8248C256.538 27.9555 258.029 30.0862 260.16 32.0039C261.225 32.8561 262.93 32.8561 264.635 32.8561C259.734 29.8731 256.538 26.464 258.669 20.285C259.947 20.9242 261.012 21.5634 262.504 22.2026C262.504 20.285 262.717 18.5804 262.717 17.0889C263.143 16.8758 263.569 16.4496 263.995 16.2366C264.635 17.7281 265.061 19.2196 265.7 20.7111C266.126 20.2849 266.765 19.8588 267.191 19.4326C266.339 17.9411 265.7 16.6627 264.848 15.1712C272.092 11.7621 276.78 14.532 279.336 22.8418Z" fill="#747474" fill-opacity="0.05"/>
<path d="M303.836 178.166C305.541 179.445 306.393 180.084 307.246 180.723C310.868 183.067 314.277 185.624 317.899 187.968C319.178 188.82 320.456 189.459 321.734 190.098C324.291 191.164 324.291 192.655 322.8 194.573C321.521 196.491 319.817 197.982 318.325 199.9C316.621 202.03 314.916 202.243 313.425 199.9C312.785 198.834 312.359 197.343 311.294 196.704C309.802 195.851 308.098 195.638 306.393 195.212C306.393 196.704 305.967 198.408 306.393 199.474C307.033 200.965 308.737 202.03 309.589 203.522C311.294 206.718 312.998 210.127 314.49 213.749C314.703 214.388 313.851 215.667 313.638 216.519C312.785 216.093 311.933 215.88 311.294 215.454C308.311 213.749 305.328 211.832 302.345 210.127C302.132 210.553 301.706 210.979 301.493 211.406C304.476 213.749 307.246 215.88 310.229 218.224C310.229 218.437 310.229 218.863 310.229 219.076C309.163 219.289 307.885 219.715 307.033 219.289C300.214 216.093 292.97 213.536 288.708 206.718C287.004 204.161 284.234 203.096 281.038 205.013C279.546 205.866 277.842 206.292 276.137 206.505C274.007 206.718 272.941 205.653 272.515 203.522C272.089 201.604 272.728 199.9 274.859 199.687C278.055 199.261 281.251 198.834 285.512 198.408C284.021 197.556 282.956 196.917 281.89 196.277C289.348 193.721 291.478 186.263 287.004 180.723C285.939 179.445 284.234 179.019 282.742 178.38C281.677 177.953 280.186 177.953 279.759 177.314C277.416 174.331 275.498 171.135 273.367 167.939C272.941 167.939 272.302 167.726 272.089 167.939C268.68 171.348 265.058 169.857 261.222 169.004C255.682 167.939 250.143 167.726 244.603 166.874C240.981 166.448 240.341 165.595 240.128 162.186C240.981 162.186 241.62 162.186 242.472 161.973C243.324 161.76 243.964 161.547 245.029 160.695C243.964 160.268 242.685 159.416 241.62 159.203C238.637 158.351 237.145 156.433 237.998 153.45C238.85 149.615 239.702 145.78 241.407 142.158C243.111 138.535 246.307 136.618 250.569 136.618C252.699 136.618 253.978 138.748 252.486 140.027C249.503 142.584 250.569 145.78 249.93 148.763C249.29 152.811 252.273 156.007 251.421 159.842C251.421 160.055 251.847 160.482 252.273 160.908C255.682 157.712 255.469 157.072 250.782 151.959C251.634 151.533 252.486 150.893 253.339 150.467C250.995 145.354 251.421 143.01 256.109 139.388C260.583 135.765 260.796 135.765 264.418 138.535C266.549 138.109 268.467 137.044 269.532 137.47C272.515 138.535 275.285 140.453 278.055 142.158C278.694 142.584 278.907 144.075 278.694 144.714C278.481 145.14 277.203 145.567 276.35 145.78C274.646 146.206 272.941 146.632 271.237 146.632C269.745 146.632 268.041 146.206 265.697 145.78C266.336 147.484 266.549 149.402 267.188 149.615C268.467 150.041 270.81 150.041 271.45 149.189C274.859 144.501 278.907 147.91 282.529 148.337C283.595 148.55 284.234 151.107 284.873 152.811C285.512 154.303 285.939 155.794 286.578 157.499C291.691 153.237 293.396 153.876 294.674 159.629C295.314 163.038 296.805 164.317 300.214 163.038C300.853 162.825 301.493 162.825 303.197 162.612C302.771 164.53 302.345 166.234 302.132 167.087C303.41 167.3 305.115 167.3 306.819 167.513C305.754 169.004 304.476 170.496 303.197 172.2C305.115 173.053 308.95 170.922 310.016 174.97C308.098 176.036 306.393 176.888 303.836 178.166Z" fill="#747474" fill-opacity="0.05"/>
<path d="M200.287 171.777C200.287 173.695 201.352 176.464 200.5 177.104C198.369 179.021 196.026 177.743 193.895 176.038C190.486 173.268 188.142 173.055 184.307 175.186C184.52 175.825 184.946 176.251 185.159 176.891C185.372 177.743 185.159 178.808 185.159 179.661C184.094 179.661 182.389 179.874 181.963 179.448C180.045 176.038 177.489 177.743 174.932 178.382C174.506 178.595 174.079 178.808 173.653 179.021C169.179 180.726 167.687 179.661 167.048 173.695C165.344 173.908 163.426 174.334 161.721 174.121C159.164 173.908 155.968 174.121 155.116 170.925C154.477 169.22 158.099 166.237 161.295 166.237C163.426 166.237 165.557 167.089 167.687 167.515C168.753 167.729 169.605 167.302 170.67 167.302C170.031 166.237 169.605 164.319 168.753 164.106C166.622 163.467 164.491 163.467 162.147 163.467C160.443 163.467 158.525 163.893 156.821 163.68C155.542 163.467 154.264 162.828 153.625 161.763C153.199 161.123 153.199 159.206 153.625 158.993C154.69 158.567 155.968 158.78 157.247 158.566C159.165 158.353 161.082 158.354 162.787 158.14C163.213 158.14 163.213 157.075 163.852 155.584C160.443 156.01 157.886 156.436 155.329 156.862C154.051 157.075 152.772 156.862 151.707 156.649C151.92 155.371 151.92 153.879 152.133 152.601C152.346 150.896 152.772 149.405 153.199 147.7C153.412 147.274 153.412 146.635 153.625 146.422C157.247 144.504 160.443 142.16 165.13 142.586C165.13 144.504 165.13 146.208 165.13 148.339C168.113 147.487 168.753 140.456 173.44 145.356C172.375 147.061 171.523 148.765 170.67 150.47C171.096 150.896 171.31 151.322 171.736 151.535C173.227 150.47 175.145 149.618 176.21 148.126C176.849 147.274 176.21 145.356 176.21 143.652C178.554 142.586 179.619 143.012 180.258 145.995C180.685 148.126 180.898 150.257 181.324 152.174C181.537 153.24 182.389 154.305 183.241 155.797C187.077 150.683 182.176 145.995 183.455 140.882C184.733 141.734 185.798 142.373 187.29 143.226C187.503 141.947 187.503 140.669 187.716 139.816C188.142 138.538 188.568 136.407 189.207 136.407C190.699 136.407 192.83 136.833 193.256 137.899C193.895 139.177 193.682 141.947 192.83 142.586C189.421 144.504 190.699 146.635 191.551 148.978C193.043 153.027 196.026 156.436 194.321 161.337C194.108 161.763 194.96 162.828 195.6 163.041C197.73 164.106 200.074 164.959 202.205 166.237C203.27 166.876 203.909 168.155 204.762 169.007C203.483 169.859 202.205 170.712 200.926 171.351C200.713 171.99 200.074 171.777 200.287 171.777Z" fill="#747474" fill-opacity="0.05"/>
<path d="M223.086 49.9001C225.217 49.0478 227.773 48.6216 227.347 45.2125C227.347 44.7864 229.265 43.2949 230.117 43.2949C230.969 43.2949 232.035 44.5733 232.674 45.4256C234.805 49.2609 236.722 53.3092 239.066 56.9314C239.492 57.5706 240.771 58.2098 241.623 58.2098C243.754 58.2098 244.819 59.0621 244.606 61.1928C244.18 66.0934 246.524 69.5026 250.146 72.4856C250.998 73.3379 252.063 75.0424 251.85 75.8947C251.424 76.96 249.72 77.5993 248.441 78.4516C247.589 79.0908 246.311 79.73 245.884 80.5823C244.18 83.7783 242.901 87.1875 241.197 91.2358C239.918 90.1704 238.64 89.1051 237.788 88.2528C236.083 89.1051 232.887 91.0227 232.674 90.8096C230.756 87.8266 228.839 84.8437 227.773 81.4345C227.134 79.5169 229.052 78.6646 234.592 77.3862C234.379 75.0424 233.1 74.1901 230.969 74.1901C229.904 74.1901 228.839 74.1901 227.773 74.1901C221.807 74.4032 218.824 70.1418 220.742 63.7497C221.594 63.9628 222.66 64.3889 223.512 64.602C223.725 64.3889 223.938 64.1758 224.151 63.9628C223.299 63.1105 222.447 62.0451 221.381 61.4059C219.037 60.1275 218.185 57.1445 220.529 56.0791C221.807 55.4399 223.725 55.653 226.069 55.653C225.217 54.1615 224.151 52.2439 223.086 49.9001Z" fill="#747474" fill-opacity="0.05"/>
<path d="M547.592 68.649C544.822 71.4189 545.887 73.5496 548.657 75.8934C549.296 73.7627 547.592 70.3536 551.64 70.9928C552.279 73.7627 552.705 76.5326 553.558 79.0894C553.771 79.7287 554.836 79.9417 555.049 80.1548C555.049 75.4672 555.049 70.9928 555.049 66.3052C555.475 66.0921 555.901 65.8791 556.114 65.666C556.967 66.9444 557.819 68.4359 558.884 69.7143C559.95 71.2058 561.015 72.4843 562.506 74.4019C562.293 79.3026 568.899 79.3026 571.242 83.1378C570.39 83.7771 569.964 84.4162 569.325 84.4162C564.637 84.8424 564.424 88.0385 563.572 91.6607C562.933 94.6437 560.589 97.4135 559.737 100.397C558.884 103.38 558.884 106.362 558.671 109.559C558.245 109.772 557.819 109.772 557.606 109.985C555.049 107.428 552.279 104.658 549.722 101.888C548.444 100.61 549.083 99.3312 550.788 98.692C552.705 97.8397 554.836 96.9874 556.754 96.3482C556.754 95.922 556.754 95.709 556.754 95.2828C553.984 95.0698 551.427 94.8567 548.018 94.6436C550.788 90.8084 555.901 92.0868 557.18 88.0384C555.049 86.76 553.131 85.6947 550.575 84.2032C551.001 85.9078 551.214 86.547 551.214 87.1862C551.001 88.2515 550.788 89.9561 549.935 90.3822C548.87 90.8084 547.379 90.3822 546.1 90.1691C545.461 89.9561 545.035 89.3168 544.822 88.6776C543.117 84.4162 540.773 80.1548 539.708 75.8934C539.282 74.1888 540.347 71.2058 541.839 69.7143C543.117 68.4359 545.674 68.862 547.592 68.4359C547.165 68.0098 547.378 68.4359 547.592 68.649Z" fill="#747474" fill-opacity="0.05"/>
<path d="M950.098 438.085C949.459 438.724 948.82 439.576 947.541 440.642C950.098 441.92 952.442 442.985 954.572 444.477C955.638 445.329 956.49 446.608 957.342 447.673C955.851 448.312 954.146 449.804 952.868 449.591C950.95 449.378 949.246 447.886 947.541 446.821C945.197 445.329 943.28 443.412 940.723 442.133C940.084 441.707 938.592 442.772 937.527 443.412C936.035 444.264 934.544 445.968 933.265 445.968C930.922 445.968 928.365 445.329 926.234 444.477C924.316 443.625 923.038 442.985 921.12 444.051C920.268 444.477 918.99 444.051 917.924 443.412C918.351 442.985 918.99 442.772 919.416 442.346C920.481 441.707 921.547 441.068 922.399 440.429C921.547 439.15 921.12 437.446 919.842 437.019C916.22 435.528 912.385 433.823 908.336 433.184C903.862 432.545 901.944 429.775 899.813 426.579C899.387 425.94 900.026 423.809 900.879 423.17C903.649 421.039 908.123 422.957 908.762 426.579C909.615 430.201 911.319 430.84 914.515 428.71C920.907 424.235 921.973 424.235 929.004 428.497C930.282 429.349 931.774 429.562 933.265 430.201C935.609 431.266 937.74 432.332 940.084 433.397C943.28 435.102 946.689 436.593 950.098 438.085Z" fill="#747474" fill-opacity="0.05"/>
<path d="M135.938 130.439C137.856 130.226 139.773 130.013 141.691 129.8C143.609 129.587 145.313 129.161 146.378 131.931C146.805 132.996 150.001 133.635 151.705 133.209C154.049 132.783 155.54 132.357 157.032 135.127C158.097 137.257 160.441 138.536 162.572 140.453C161.293 141.306 160.867 141.732 160.441 141.732C152.771 143.437 149.361 149.402 146.165 155.582C145.739 156.647 144.461 157.286 143.609 158.138C142.543 158.991 141.478 159.63 140.412 160.056C139.347 160.482 138.282 160.908 137.216 160.908C136.577 160.908 135.725 159.417 135.938 158.991C137.003 155.795 134.66 155.155 132.529 154.303C130.185 153.451 130.185 152.385 130.824 150.042C132.955 143.649 134.233 137.257 135.938 130.439Z" fill="#747474" fill-opacity="0.05"/>
<path d="M490.713 271.889C491.779 271.463 493.057 271.036 494.336 270.61C493.696 269.332 493.27 268.48 492.844 267.627C493.91 266.988 494.762 266.349 495.827 265.497C494.336 264.218 493.27 263.366 491.992 262.087C493.057 261.661 493.27 261.448 493.483 261.448C495.614 261.874 498.597 262.514 498.597 259.957C498.597 258.252 496.466 255.482 494.549 254.417C491.779 253.138 489.648 252.499 490.927 248.664C491.14 247.812 489.435 246.533 488.796 245.255C487.731 243.763 486.452 242.272 485.813 240.567C485.6 239.928 486.878 238.863 487.304 238.011C487.517 238.224 487.73 238.437 487.944 238.65C487.944 239.928 488.157 241.207 488.157 242.485C488.583 242.698 488.796 242.698 489.222 242.911C490.713 240.141 490.927 235.667 495.614 236.306C496.893 236.519 497.958 237.158 500.089 238.011C498.384 239.289 497.319 240.141 496.253 240.993C496.466 241.42 496.679 241.846 496.893 242.059C499.236 241.206 501.58 240.567 504.563 239.502C503.711 241.206 503.072 243.124 501.793 244.616C500.302 246.533 499.876 247.599 502.432 248.877C503.072 249.09 503.924 250.582 503.711 250.795C502.006 253.352 504.137 253.991 505.415 255.482C507.972 258.465 509.89 261.661 512.234 264.644C512.447 264.857 512.447 265.497 512.447 265.71C511.381 267.627 509.251 268.48 509.038 271.249C509.038 272.102 505.415 272.954 503.498 273.38C501.154 273.806 498.597 274.019 496.253 274.019C494.336 274.019 492.631 273.593 490.713 273.167C490.713 272.741 490.713 272.315 490.713 271.889Z" fill="#747474" fill-opacity="0.05"/>
<path d="M832.903 416.351C836.525 419.334 838.869 418.695 841.639 416.564C843.769 414.859 846.539 413.794 848.67 412.089C850.162 411.024 851.653 409.746 852.505 408.254C854.423 405.271 855.915 405.058 858.897 406.976C859.324 407.189 859.75 407.402 860.176 407.615C861.028 408.041 861.881 408.467 862.733 408.893C862.094 409.533 861.241 409.959 860.602 410.598C859.963 411.45 859.111 412.516 859.324 413.368C859.537 414.433 860.389 415.712 861.241 416.564C863.585 418.908 863.372 420.399 860.176 421.678C859.324 421.891 858.471 422.956 858.045 423.808C857.406 425.087 856.98 426.578 856.341 428.07C853.784 433.61 853.145 433.823 847.818 431.692C846.539 431.266 845.048 431.053 843.769 430.84C839.082 430.2 834.181 426.152 833.116 421.465C832.69 420.186 832.903 418.695 832.903 416.351Z" fill="#747474" fill-opacity="0.05"/>
<path d="M653.066 452.999C653.918 455.556 653.918 457.047 654.771 457.474C658.18 460.03 656.475 462.374 655.41 465.357C652.64 472.175 650.935 479.207 648.379 486.025C647.739 487.73 645.822 489.86 644.117 490.5C639.003 492.204 637.299 490.926 636.233 485.599C636.02 484.96 636.02 484.32 635.594 483.681C634.529 481.551 634.316 480.059 636.66 478.354C638.79 476.863 639.856 474.519 638.151 471.536C635.594 466.849 637.086 463.653 642.626 463.226C646.674 463.013 649.231 460.244 650.722 456.408C651.148 455.343 652.001 454.491 653.066 452.999Z" fill="#747474" fill-opacity="0.05"/>
<path d="M170.882 114.674C170.882 115.526 170.882 117.018 170.882 118.083C172.8 119.362 174.504 120.427 176.209 121.066C176.848 121.492 178.34 121.279 178.766 120.853C180.683 119.149 180.683 116.805 179.192 114.887C178.126 113.396 176.848 112.33 175.783 110.839C177.274 108.708 178.979 106.791 181.11 103.808C181.536 106.364 182.175 108.069 182.175 109.773C182.601 117.444 183.453 117.87 190.058 114.887C193.041 120.427 187.075 128.097 181.11 126.606C179.618 126.18 177.913 127.245 176.422 127.884C173.439 128.95 170.669 130.441 167.686 131.081C166.834 131.294 165.342 129.589 164.277 128.737C165.342 128.097 166.621 127.245 167.899 126.819C169.391 126.393 170.882 126.606 172.374 125.967C173.013 125.754 173.226 124.475 173.226 123.623C173.226 123.197 171.947 122.558 171.947 122.558C168.964 125.115 167.047 122.771 164.703 120.64C163.851 123.623 163.425 126.18 160.016 125.328C157.033 124.688 155.541 121.705 157.033 118.936C158.311 116.379 159.589 114.035 160.868 111.478C162.146 108.921 163.638 109.56 165.342 110.839C166.621 112.117 168.538 113.183 170.882 114.674Z" fill="#747474" fill-opacity="0.05"/>
<path d="M438.075 202.672C438.927 201.82 439.779 200.541 441.058 199.05C438.288 199.05 435.944 199.05 432.961 199.05C434.239 195.641 436.583 194.575 439.353 193.723C441.697 193.084 442.762 194.362 443.401 196.28C443.614 196.919 445.319 197.345 446.171 196.919C448.728 196.28 451.072 195.214 453.416 194.149C457.038 192.658 460.66 192.658 464.069 195.001C466.839 196.919 467.478 199.476 465.561 202.246C462.152 207.573 449.58 212.26 443.614 209.916C442.549 209.49 441.484 208.425 440.631 207.36C439.992 206.294 439.353 204.803 438.075 202.672Z" fill="#747474" fill-opacity="0.05"/>
<path d="M565.281 62.898C565.494 62.0457 565.494 60.9803 565.707 59.9149C569.116 58.8496 570.608 61.4064 572.951 63.7502C574.017 62.2587 574.869 60.9803 575.934 59.7019C576.147 60.5542 576.36 61.4064 576.787 62.2587C580.196 59.4888 582.966 62.4718 585.736 63.5371C586.375 63.7502 586.162 66.9463 585.949 68.6508C585.949 69.7162 585.096 70.7815 584.67 71.8469C582.113 77.3867 578.917 78.239 573.377 75.8952C571.247 74.8299 568.69 74.6168 566.346 73.3384C568.264 71.8469 571.673 72.2731 570.821 68.2247C568.69 68.8639 566.772 69.7162 564.855 69.9293C563.789 70.1423 561.659 69.5031 561.659 68.8639C561.232 66.9463 561.232 64.6025 561.232 62.6849C562.511 62.4718 563.789 62.6849 565.281 62.898Z" fill="#747474" fill-opacity="0.05"/>
<path d="M804.766 81.2227C802.636 82.075 800.292 81.862 798.374 78.879C797.309 77.1744 795.604 76.3221 793.687 77.6006C793.261 77.8136 792.408 78.2397 792.195 78.2397C791.556 77.8136 790.491 76.9613 790.704 76.3221C791.343 72.913 783.459 72.0607 788.36 67.7993C790.065 66.3078 791.769 64.8163 793.474 63.751C796.031 62.2595 798.587 61.4072 801.144 63.964C801.997 64.6033 803.275 65.0293 804.34 65.2424C807.323 66.0947 808.176 67.7993 807.323 70.9954C806.258 73.9783 805.619 77.1744 804.766 81.2227Z" fill="#747474" fill-opacity="0.05"/>
<path d="M824.593 432.757C823.74 434.462 823.101 436.593 822.036 437.019C820.97 437.445 818.84 436.806 817.774 435.74C814.578 432.758 811.808 429.348 808.612 426.152C804.99 422.317 801.155 418.482 797.32 414.86C795.828 413.368 794.123 412.09 792.632 410.598C792.206 409.959 791.78 408.68 792.206 408.254C792.632 407.615 793.91 407.189 794.763 407.402C796.041 407.828 797.32 408.681 798.385 409.533C803.499 412.942 808.612 416.564 813.726 420.186C815.004 421.252 816.283 422.53 817.348 423.808C818.627 425.513 819.266 427.857 822.036 428.283C823.101 428.496 823.74 431.053 824.593 432.757Z" fill="#747474" fill-opacity="0.05"/>
<path d="M212.644 159.419C212.431 159.419 212.218 159.419 212.218 159.419C208.383 156.223 206.039 151.322 201.351 148.766C200.499 148.34 200.925 145.783 201.351 144.291C204.334 147.7 205.613 147.487 207.53 143.439C205.4 141.947 202.417 140.456 204.974 137.26C207.317 134.277 208.17 138.751 210.087 138.751C210.087 138.751 210.087 138.751 210.3 138.751C211.792 137.899 213.923 136.194 214.775 136.621C217.119 137.899 215.627 139.817 214.775 141.734C214.136 142.8 214.136 144.291 213.923 145.783C214.349 145.996 214.562 145.996 214.988 146.209C215.84 145.356 216.479 144.504 217.758 143.226C218.184 145.357 218.397 146.848 218.61 148.553C218.61 149.192 218.184 149.831 218.184 150.683C218.397 154.306 219.462 158.141 213.71 158.141C213.283 157.715 213.07 158.78 212.644 159.419Z" fill="#747474" fill-opacity="0.05"/>
<path d="M806.261 91.6613C805.835 91.0221 804.77 89.9567 804.77 88.8914C804.77 87.613 805.409 86.1215 806.474 85.2692C808.818 82.9254 810.949 80.7947 810.522 76.7464C810.309 73.7634 813.718 72.485 816.062 74.6157C818.619 76.9595 820.963 79.9424 823.094 82.7123C824.372 84.4169 823.52 87.826 821.389 88.2522C816.915 89.3175 812.014 90.3829 806.261 91.6613Z" fill="#747474" fill-opacity="0.05"/>
<path d="M199.219 94.859C200.924 93.7937 202.629 92.5152 205.185 90.8106C200.711 89.7453 196.876 88.893 192.827 88.0407C193.68 84.4185 196.449 85.4839 199.219 85.6969C198.793 83.1401 197.302 82.2878 195.384 81.6486C194.106 81.2225 192.614 80.5832 191.762 79.5179C191.123 78.6656 190.697 76.7479 191.123 75.8957C191.549 75.0434 193.253 74.1911 194.319 74.4042C195.384 74.6173 196.449 75.6826 197.302 76.748C197.941 77.3872 197.941 78.4525 198.154 79.3048C199.646 78.6656 201.137 77.6002 202.202 78.0264C203.268 78.4525 203.907 80.1571 204.972 81.2224C207.742 83.7793 209.447 86.7623 210.086 90.3845C210.512 93.3675 209.66 94.859 206.677 95.2851C204.333 95.4982 202.202 95.9243 199.859 96.1374C199.432 95.2851 199.219 95.0721 199.219 94.859Z" fill="#747474" fill-opacity="0.05"/>
<path d="M783.035 60.9798C783.674 58.4229 784.314 56.7184 784.527 55.0138C784.953 52.457 786.018 51.1785 788.788 50.3263C790.919 49.687 792.41 46.9172 793.902 45.4257C795.393 47.1302 797.95 49.2609 798.802 52.0309C799.655 54.3746 799.015 57.3576 799.015 60.5537C795.606 59.9145 793.05 60.9798 790.067 63.3236C787.936 65.4543 784.953 62.4713 783.035 60.9798Z" fill="#747474" fill-opacity="0.05"/>
<path d="M153.194 112.117C152.981 111.051 152.768 109.986 152.555 109.134C152.342 109.134 152.129 108.921 151.916 108.921C151.489 110.199 150.85 111.264 150.637 112.543C149.998 116.165 148.72 117.23 145.097 116.378C143.819 116.165 142.327 116.165 141.049 115.526C139.984 115.1 139.344 113.821 138.492 113.182C139.131 112.543 139.771 111.904 140.623 111.265C141.901 110.412 143.393 109.56 144.671 108.494C147.015 106.151 148.933 103.594 151.489 101.463C153.194 100.185 156.177 100.398 157.029 97.6279C157.882 97.841 159.16 97.841 159.373 98.4802C160.012 99.7586 160.438 101.25 160.225 102.529C159.799 104.659 158.521 106.577 157.882 108.494C157.029 110.838 155.964 112.117 153.194 112.117Z" fill="#747474" fill-opacity="0.05"/>
<path d="M912.386 330.27C911.747 329.205 910.895 328.139 910.682 326.861C910.682 326.435 912.386 325.583 913.238 325.156C913.452 324.943 913.665 325.156 913.878 324.943C915.369 323.026 917.074 319.404 918.565 319.404C921.974 319.617 923.253 317.486 924.531 315.568C925.597 313.864 925.597 311.52 926.449 309.815C927.088 308.537 928.366 307.472 929.432 306.406C930.284 307.472 931.989 308.537 931.989 309.815C932.202 311.733 931.563 313.651 930.923 315.568C930.071 318.764 929.219 321.96 928.366 325.156C927.94 327.287 926.449 327.5 925.384 326.648C923.679 324.943 922.4 325.583 920.696 326.648C919.844 327.074 918.991 327.287 918.139 327.5C916.435 328.14 914.517 328.779 912.812 329.631C912.599 329.631 912.386 330.057 912.386 330.27Z" fill="#747474" fill-opacity="0.05"/>
<path d="M203.695 108.707C210.726 107.002 214.561 109.985 214.561 116.59C214.561 118.082 214.348 119.36 214.348 120.852C214.135 125.113 209.874 127.457 206.039 125.326C205.186 124.9 204.547 123.409 204.547 122.556C204.547 121.917 205.612 120.852 206.465 120.426C207.317 120 208.595 119.786 209.874 119.573C207.743 117.23 207.743 117.443 205.186 118.508C203.695 119.147 201.777 119.573 200.286 120.213C200.073 119.786 199.86 119.36 199.646 118.934C200.712 117.869 201.564 116.804 202.629 115.738C201.99 114.034 199.433 112.116 202.843 110.838C203.908 112.116 204.76 113.394 205.612 114.673C206.039 114.46 206.252 114.034 206.678 113.82C205.826 112.116 204.76 110.411 203.695 108.707Z" fill="#747474" fill-opacity="0.05"/>
<path d="M249.08 209.277C248.867 209.277 248.014 209.49 247.162 209.49C247.162 209.064 247.162 208.851 247.162 208.638C247.801 207.146 248.867 205.868 249.293 204.163C249.932 202.033 249.932 199.902 250.571 197.984C250.784 197.558 252.489 197.345 253.341 197.558C257.603 200.115 261.864 202.672 266.125 205.442C267.83 206.507 268.682 207.999 267.191 209.49C266.552 210.342 264.421 210.555 263.355 210.129C261.864 209.49 261.012 207.999 259.733 206.933C259.094 206.507 258.242 205.655 257.816 205.868C257.176 206.081 256.537 207.146 256.111 207.786C255.898 207.999 256.111 208.638 255.898 208.851C254.833 210.342 253.767 211.621 252.702 212.899C251.637 212.047 250.571 210.982 249.08 209.277Z" fill="#747474" fill-opacity="0.05"/>
<path d="M479.629 264.218C479.203 263.579 478.99 263.153 478.777 262.727C476.007 259.318 476.22 259.318 479.843 257.187C480.695 256.761 481.547 255.696 481.973 254.843C483.039 252.286 485.169 251.647 487.3 252.499C489.431 253.352 490.496 255.056 489.431 257.613C489.005 258.252 489.005 259.105 488.792 259.957C488.578 261.875 489.218 264.645 488.365 265.284C485.595 267.201 482.399 268.267 479.203 269.545C478.777 269.758 477.712 269.332 477.499 268.906C477.286 268.054 477.073 266.988 477.499 266.349C477.925 265.497 478.777 265.071 479.629 264.218Z" fill="#747474" fill-opacity="0.05"/>
<path d="M935.82 256.973C936.246 258.89 936.885 260.169 936.672 261.447C934.967 267.413 938.376 271.675 941.359 276.149C941.786 277.001 942.425 277.641 942.638 278.493C942.638 278.919 941.999 279.984 941.573 279.984C940.933 279.984 940.294 279.558 939.442 279.345C938.163 279.132 936.672 278.919 935.393 278.493C935.393 279.984 935.18 281.476 935.607 282.967C935.82 283.82 936.885 284.459 937.098 285.311C937.311 286.163 937.524 287.868 937.098 288.081C936.246 288.72 934.967 288.933 933.902 288.507C933.263 288.294 932.624 287.016 932.624 286.163C932.837 280.837 933.476 275.723 933.476 270.396C933.476 268.052 932.837 265.496 932.41 263.152C932.197 261.021 932.837 258.89 935.82 256.973Z" fill="#747474" fill-opacity="0.05"/>
<path d="M867.208 429.775C867.208 433.398 867.208 435.954 867.208 438.511C866.782 438.298 866.356 438.298 866.356 438.298C864.651 432.545 862.521 427.005 865.504 421.039C866.782 418.696 868.7 418.483 871.044 418.483C874.453 418.483 877.862 418.27 881.271 418.27C880.845 420.826 878.714 422.105 874.027 421.892C871.896 421.892 869.765 422.531 867.634 423.17C867.421 423.17 867.208 423.809 866.569 424.875C869.978 424.449 872.961 424.235 875.731 423.809C875.944 424.235 875.944 424.449 876.157 424.875C874.666 425.94 872.961 426.792 871.47 427.858C872.535 429.349 873.387 431.054 874.879 433.184C874.24 434.037 873.6 435.528 871.47 433.397C870.404 432.119 869.126 431.267 867.208 429.775Z" fill="#747474" fill-opacity="0.05"/>
<path d="M823.098 437.445C825.655 437.658 827.572 437.658 829.49 438.084C830.981 438.298 832.473 439.15 834.177 439.363C838.013 439.789 841.848 439.789 845.896 440.002C846.322 440.002 846.748 440.002 846.962 440.215C851.862 444.477 857.615 443.837 863.581 442.985C863.794 442.985 864.007 443.198 865.499 443.624C863.581 444.69 862.303 445.755 861.237 445.755C858.254 445.755 855.484 445.329 852.501 445.116C848.24 444.69 843.979 444.477 839.717 444.05C838.865 444.05 838.013 443.837 837.586 443.411C835.03 440.641 831.834 440.854 828.424 441.281C826.081 441.494 824.163 441.068 823.098 437.445Z" fill="#747474" fill-opacity="0.05"/>
<path d="M933.268 290.639C935.825 296.179 941.151 294.474 946.478 295.752C941.791 298.948 938.808 302.997 932.842 302.145C930.924 301.931 928.58 303.21 926.237 303.849C924.532 301.718 924.745 300.866 927.941 300.227C930.711 299.588 931.776 297.883 931.776 295.326C931.776 294.048 932.202 292.769 932.416 291.491C932.842 291.065 933.055 290.852 933.268 290.639Z" fill="#747474" fill-opacity="0.05"/>
<path d="M222.663 91.6623C222.024 92.0885 221.171 93.58 219.893 93.793C217.762 94.4322 216.058 93.793 214.992 91.4492C213.927 89.1055 212.649 86.9747 211.583 84.844C211.157 84.2048 211.157 82.7133 211.583 82.5002C212.649 81.861 214.14 81.0088 215.205 81.0088C219.254 81.2219 223.089 86.3356 222.663 91.6623Z" fill="#747474" fill-opacity="0.05"/>
<path d="M871.893 392.06C871.041 391.847 869.762 391.634 869.123 391.208C865.501 388.225 865.501 377.997 869.123 375.014C870.827 373.736 873.384 374.801 873.597 377.358C873.81 379.063 873.597 380.98 872.745 382.472C871.254 385.455 870.188 388.438 872.532 391.634C872.319 391.634 872.106 391.847 871.893 392.06Z" fill="#747474" fill-opacity="0.05"/>
<path d="M946.688 548.88C944.131 545.045 942.213 542.275 940.509 539.292C940.083 538.653 940.296 536.948 940.935 536.522C941.361 536.096 942.853 536.309 943.705 536.309C945.409 536.309 946.901 536.948 948.605 536.522C951.162 535.883 953.08 537.161 952.228 539.718C951.162 542.914 948.819 545.471 946.688 548.88Z" fill="#747474" fill-opacity="0.05"/>
<path d="M252.074 366.065C253.566 365 254.844 363.508 256.336 363.082C258.466 362.443 260.81 362.017 262.941 362.656C269.333 364.361 275.512 366.704 281.691 368.835C282.543 369.261 283.396 369.9 284.461 370.54C282.543 372.883 281.478 373.31 279.773 371.605C278.921 370.753 277.43 370.114 276.364 369.687C274.234 368.835 271.89 368.196 269.759 367.344C264.219 365 258.679 363.082 252.926 367.131C252.5 366.917 252.287 366.491 252.074 366.065Z" fill="#747474" fill-opacity="0.05"/>
<path d="M160.869 92.5133C162.787 92.7263 163.639 92.5132 164.065 92.9394C166.835 94.857 169.392 94.0048 171.949 92.3002C172.162 92.0871 172.588 91.874 172.801 91.874C174.08 91.874 175.571 91.874 176.849 92.0871C176.423 93.3655 176.21 94.4309 175.784 95.9224C175.997 97.2008 175.997 98.6923 176.21 99.9707C174.506 100.184 172.801 100.823 171.31 100.397C168.54 99.3315 165.77 97.6269 163.213 96.1354C162.574 95.2832 162.148 94.2178 160.869 92.5133Z" fill="#747474" fill-opacity="0.05"/>
<path d="M283.398 375.654C291.282 369.688 296.183 369.688 302.575 376.506C296.183 376.506 289.791 376.719 283.611 376.719C283.398 376.506 283.398 376.08 283.398 375.654Z" fill="#747474" fill-opacity="0.05"/>
<path d="M228.199 126.391C228.199 129.161 226.708 130.226 224.151 129.587C219.676 128.309 217.546 122.982 220.316 119.36C220.742 118.721 222.233 118.507 223.086 118.721C225.216 119.147 228.412 124.047 228.199 126.391Z" fill="#747474" fill-opacity="0.05"/>
<path d="M877.442 402.928C875.524 403.78 873.82 404.632 872.328 405.485C871.05 402.502 872.968 399.519 875.95 400.584C878.294 401.436 879.573 400.797 881.064 399.519C882.556 398.24 884.26 397.814 885.539 399.519C886.604 401.223 886.391 402.928 884.047 403.567C883.621 403.78 883.408 404.419 882.982 404.846C882.343 405.911 881.916 406.976 881.49 408.042C880.425 406.976 879.147 405.911 878.081 404.846C877.868 404.633 877.868 404.206 877.442 402.928Z" fill="#747474" fill-opacity="0.05"/>
<path d="M579.341 95.2831C578.702 96.7746 578.489 98.4792 577.637 99.9707C577.21 100.61 576.145 101.249 575.506 101.249C574.441 101.249 573.162 100.823 572.097 100.61C572.736 99.9708 573.162 99.5445 573.801 98.9053C572.31 99.3314 571.031 99.9707 568.688 100.823C569.327 98.9054 569.753 97.6269 569.966 96.5616C570.179 95.7093 570.392 94.857 570.818 94.2178C571.245 93.3655 571.671 92.0871 572.31 91.661C573.162 91.4479 574.654 91.661 575.506 92.3002C576.997 92.7263 578.063 94.0047 579.341 95.2831Z" fill="#747474" fill-opacity="0.05"/>
<path d="M169.604 89.744C169.178 89.5309 168.112 89.1048 167.047 88.4656C167.899 87.6133 168.751 86.761 169.817 85.9087C170.243 85.6956 170.669 85.4826 170.882 85.0564C173.226 80.3689 176.209 83.1388 178.979 84.4172C179.831 84.8433 180.47 86.1218 180.47 87.1872C180.47 87.6133 179.192 88.4655 178.34 88.6786C175.357 89.1048 172.8 89.3178 169.604 89.744Z" fill="#747474" fill-opacity="0.05"/>
<path d="M748.102 397.814C751.937 399.732 753.216 402.076 752.363 404.846C751.511 407.403 749.38 408.681 746.61 408.468C744.906 408.255 744.053 407.616 744.693 405.698C745.971 403.141 747.036 400.584 748.102 397.814Z" fill="#747474" fill-opacity="0.05"/>
<path d="M282.532 183.281C282.319 186.904 281.04 188.608 278.483 188.608C277.631 188.608 275.713 186.904 275.927 186.477C276.779 184.56 278.057 182.855 279.336 180.938C280.614 181.79 281.893 182.642 282.532 183.281Z" fill="#747474" fill-opacity="0.05"/>
<path d="M952.441 437.231C956.703 435.1 961.177 433.182 965.439 431.052C965.865 435.526 959.047 439.148 952.441 437.231Z" fill="#747474" fill-opacity="0.05"/>
<path d="M926.004 140.028C927.495 138.75 929.2 137.472 931.544 135.341C933.035 136.193 935.166 137.471 937.51 138.75C933.888 141.946 929.626 142.159 926.004 140.028Z" fill="#747474" fill-opacity="0.05"/>
<path d="M872.956 355.839C872.104 358.396 871.465 360.952 870.4 363.296C870.186 363.935 867.843 364.148 867.63 363.935C866.99 362.657 865.925 360.952 866.564 360.1C867.63 358.182 869.547 356.691 871.252 354.986C871.678 355.199 872.317 355.626 872.956 355.839Z" fill="#747474" fill-opacity="0.05"/>
<path d="M346.451 165.385C348.582 167.729 350.074 169.22 351.139 171.138C351.352 171.351 349.221 173.482 347.943 173.695C345.812 174.121 343.681 171.564 344.108 169.007C344.108 168.155 345.173 167.302 346.451 165.385Z" fill="#747474" fill-opacity="0.05"/>
<path d="M658.387 174.122C656.47 176.04 654.552 177.957 652.634 179.875C652.208 179.662 651.782 179.449 651.356 179.449C651.143 177.105 650.93 174.974 650.717 171.991C653.487 172.417 655.617 172.63 657.748 173.057C657.961 173.27 658.174 173.696 658.387 174.122Z" fill="#747474" fill-opacity="0.05"/>
<path d="M877.439 448.524C879.144 446.819 880.636 445.541 881.701 444.049C883.405 441.492 885.536 440.853 888.945 442.558C885.749 444.902 882.979 447.032 879.996 448.95C879.144 449.376 877.866 448.737 877.439 448.524Z" fill="#747474" fill-opacity="0.05"/>
<path d="M546.959 316.634C548.664 317.06 549.942 316.847 550.582 317.486C551.434 318.338 551.647 319.83 552.286 321.108C551.008 321.321 549.942 321.748 548.664 321.748C548.025 321.748 547.172 321.108 546.533 320.469C545.681 319.83 545.042 319.191 544.189 318.551C545.255 317.699 546.32 317.06 546.959 316.634Z" fill="#747474" fill-opacity="0.05"/>
<path d="M189.635 92.9395C191.127 94.8571 192.618 96.5617 193.684 98.2662C194.323 99.1185 194.536 100.397 194.536 101.462C194.536 101.888 193.257 102.741 192.831 102.528C191.979 102.101 190.701 101.462 190.275 100.61C189.209 98.0532 187.931 95.4963 189.635 92.9395Z" fill="#747474" fill-opacity="0.05"/>
<path d="M194.321 107.642C195.386 108.068 196.025 108.068 196.238 108.494C197.304 110.198 198.582 111.903 199.434 113.608C199.648 114.034 199.008 115.525 198.795 115.525C197.73 115.738 196.025 115.738 195.812 115.312C194.747 113.394 194.321 111.264 193.682 109.133C193.468 108.707 194.108 108.068 194.321 107.642Z" fill="#747474" fill-opacity="0.05"/>
<path d="M530.129 312.586C531.833 310.668 533.112 309.39 534.39 307.898C535.03 308.751 536.308 309.603 536.095 310.242C535.456 311.947 534.39 313.651 533.325 315.143C532.473 314.504 531.833 313.651 530.129 312.586Z" fill="#747474" fill-opacity="0.05"/>
<path d="M783.46 62.4707C784.525 64.1753 785.377 65.4537 786.229 66.7321C785.164 67.3713 783.673 68.8628 783.246 68.6497C781.968 67.7975 781.116 66.306 780.477 64.8145C780.477 64.8145 781.968 63.7491 783.46 62.4707Z" fill="#747474" fill-opacity="0.05"/>
<path d="M442.547 28.3799C444.038 30.7237 445.317 32.2152 446.169 33.9197C446.169 34.1328 444.038 35.8373 443.825 35.6243C442.76 34.5589 441.481 33.4936 440.842 32.0021C440.629 31.3629 441.694 30.0844 442.547 28.3799Z" fill="#747474" fill-opacity="0.05"/>
<path d="M227.347 96.9869C225.216 99.9699 223.085 100.396 220.742 99.5438C220.102 99.3307 219.676 98.4784 219.037 97.8392C219.676 97.2 220.316 96.3477 220.955 96.3477C223.085 96.1346 224.79 96.5608 227.347 96.9869Z" fill="#747474" fill-opacity="0.05"/>
<path d="M873.604 385.669C877.226 385.669 879.783 387.16 881.274 390.143C882.34 392.274 882.553 394.405 879.996 397.388C880.848 390.995 878.504 387.586 873.604 385.669Z" fill="#747474" fill-opacity="0.05"/>
<path d="M574.224 88.2525C573.159 88.6786 571.88 89.744 571.028 89.744C569.963 89.5309 569.11 88.2525 568.045 87.4002C568.897 86.548 569.75 85.2695 570.815 85.2695C572.093 85.2695 573.159 86.3349 574.437 86.9741C574.224 87.4002 574.224 87.8264 574.224 88.2525Z" fill="#747474" fill-opacity="0.05"/>
<path d="M889.159 423.594C889.159 421.676 888.946 419.759 889.372 417.841C889.585 417.202 890.863 416.776 891.716 416.35C892.142 417.202 892.994 418.054 892.781 418.693C892.355 420.398 891.289 422.103 890.65 423.807C890.011 423.807 889.585 423.594 889.159 423.594Z" fill="#747474" fill-opacity="0.05"/>
<path d="M513.293 247.599C514.998 246.108 516.489 244.19 518.62 246.321C519.046 246.747 518.833 248.877 518.407 249.304C516.063 251.008 514.358 249.943 513.293 247.599Z" fill="#747474" fill-opacity="0.05"/>
<path d="M542.261 90.597C538.852 88.4663 538.213 85.4834 538.213 82.0742C541.196 83.7788 541.622 84.6311 542.261 90.597Z" fill="#747474" fill-opacity="0.05"/>
<path d="M210.302 64.6006C213.498 65.879 214.35 67.7967 212.646 71.2058C209.663 69.5012 209.024 68.0097 210.302 64.6006Z" fill="#747474" fill-opacity="0.05"/>
<path d="M873.814 398.026C873.388 396.748 872.748 395.469 872.322 394.191C873.175 393.978 874.24 393.126 875.092 393.339C876.371 393.765 877.436 394.83 878.714 395.895C876.584 396.535 875.518 397.174 873.814 398.026Z" fill="#747474" fill-opacity="0.05"/>
<path d="M269.973 376.081C273.382 373.737 275.939 374.803 278.709 376.507C275.513 378.638 272.956 378.638 269.973 376.081Z" fill="#747474" fill-opacity="0.05"/>
<path d="M585.739 328.14C583.396 327.927 580.839 327.927 578.495 327.714C578.069 327.714 577.643 326.649 577.643 326.435C578.069 326.009 578.708 325.37 579.134 325.37C581.478 325.583 583.609 326.222 585.952 326.435C585.739 327.075 585.739 327.714 585.739 328.14Z" fill="#747474" fill-opacity="0.05"/>
<path d="M236.295 103.168C235.229 101.889 234.164 100.824 234.164 100.185C234.377 99.1195 235.442 98.4802 236.295 97.6279C237.147 98.4802 238.639 99.1194 238.639 99.9717C238.639 100.824 237.36 101.676 236.295 103.168Z" fill="#747474" fill-opacity="0.05"/>
<path d="M889.374 431.477C887.669 431.691 885.752 432.117 884.047 432.33C883.834 432.33 883.621 430.838 883.408 429.986C885.326 429.773 887.243 429.347 889.161 429.134C889.161 429.773 889.374 430.625 889.374 431.477Z" fill="#747474" fill-opacity="0.05"/>
<path d="M909.187 324.73C908.335 328.992 904.074 326.009 902.369 329.205C902.582 324.944 904.287 323.878 909.187 324.73Z" fill="#747474" fill-opacity="0.05"/>
<path d="M899.386 429.134C894.272 432.117 892.994 432.117 891.289 428.495C894.272 428.921 896.829 429.134 899.386 429.134Z" fill="#747474" fill-opacity="0.05"/>
<path d="M155.115 114.673C153.623 116.804 152.345 118.934 151.066 120.852C149.788 117.23 151.706 114.673 155.115 114.673Z" fill="#747474" fill-opacity="0.05"/>
<path d="M608.115 325.583C608.968 328.992 607.689 330.271 605.345 330.057C604.706 330.057 604.067 329.205 603.428 328.779C604.919 327.714 606.624 326.648 608.115 325.583Z" fill="#747474" fill-opacity="0.05"/>
<path d="M261.867 215.03C260.375 215.669 258.884 216.521 257.605 217.161C257.392 216.308 256.966 214.604 257.179 214.604C258.458 213.752 259.736 213.538 261.227 213.112C261.227 213.752 261.441 214.391 261.867 215.03Z" fill="#747474" fill-opacity="0.05"/>
<path d="M947.541 293.196C948.18 290.852 949.672 289.787 951.802 290.426C952.016 290.426 952.442 292.13 952.229 292.77C950.95 294.261 949.459 294.687 947.541 293.196Z" fill="#747474" fill-opacity="0.05"/>
<path d="M194.533 121.064C195.386 122.769 196.238 123.621 196.238 124.474C196.238 125.113 194.959 126.178 194.107 125.965C193.468 125.965 192.189 124.687 192.189 124.047C192.403 123.195 193.255 122.556 194.533 121.064Z" fill="#747474" fill-opacity="0.05"/>
<path d="M867.418 442.983C869.336 442.983 871.254 442.983 872.958 442.983C873.171 443.196 873.171 443.623 873.385 443.836C872.319 444.475 871.254 445.54 869.975 445.54C868.91 445.54 867.845 444.688 866.779 444.262C867.205 443.836 867.205 443.41 867.418 442.983Z" fill="#747474" fill-opacity="0.05"/>
<path d="M864.863 393.765C864.437 398.452 861.028 398.452 858.045 399.091C860.176 397.387 862.306 395.895 864.863 393.765Z" fill="#747474" fill-opacity="0.05"/>
<path d="M901.302 331.548C900.876 333.679 901.515 336.662 897.254 337.94C898.532 335.17 899.385 333.253 900.237 331.122C900.45 331.335 900.876 331.335 901.302 331.548Z" fill="#747474" fill-opacity="0.05"/>
<path d="M564.432 241.845C563.153 242.911 562.514 243.763 561.662 244.189C561.449 244.402 559.957 242.911 559.957 242.698C560.383 241.632 561.235 240.993 562.088 239.928C562.727 240.354 563.366 240.993 564.432 241.845Z" fill="#747474" fill-opacity="0.05"/>
<path d="M723.163 140.456C721.458 141.522 720.819 142.374 719.967 142.374C719.115 142.374 718.262 141.522 717.623 140.882C718.262 140.243 718.688 138.965 719.541 138.965C720.18 138.752 721.245 139.604 723.163 140.456Z" fill="#747474" fill-opacity="0.05"/>
<path d="M269.105 216.307C269.105 217.798 269.105 219.077 269.105 220.355C269.105 220.355 267.827 220.355 266.975 220.355C266.975 218.864 267.188 217.585 267.188 216.094C267.827 216.307 268.466 216.307 269.105 216.307Z" fill="#747474" fill-opacity="0.05"/>
<path d="M904.926 331.973C904.926 331.76 904.926 331.334 905.139 331.334C906.417 330.482 907.696 329.63 908.761 328.777C908.974 329.203 909.613 330.056 909.4 330.056C908.122 331.121 906.843 331.973 905.565 332.826C905.352 332.4 905.139 332.186 904.926 331.973Z" fill="#747474" fill-opacity="0.05"/>
</svg>
