<svg width="48" height="48" viewBox="0 0 48 48" fill="none" xmlns="http://www.w3.org/2000/svg">
<circle cx="24" cy="24" r="23.3" fill="url(#paint0_linear_1_247)" stroke="url(#paint1_linear_1_247)" stroke-width="1.4"/>
<g filter="url(#filter0_d_1_247)">
<path d="M33.1346 33.1346C33.6126 32.6567 33.6126 31.8818 33.1347 31.4038L29.2432 27.5117C28.5472 26.8156 28.4896 25.7248 28.8797 24.8211C29.2952 23.8586 29.5126 22.816 29.5115 21.7558C29.5115 17.4793 26.0322 14 21.7558 14C17.4793 14 14 17.4793 14 21.7558C14 26.0322 17.4793 29.5115 21.7558 29.5115C22.816 29.5126 23.8586 29.2952 24.8211 28.8797C25.7248 28.4896 26.8156 28.5472 27.5117 29.2432L31.4038 33.1347C31.8818 33.6126 32.6567 33.6126 33.1346 33.1346ZM21.7558 27.062C20.7062 27.0621 19.6801 26.7509 18.8073 26.1679C17.9346 25.5848 17.2543 24.756 16.8526 23.7863C16.4509 22.8166 16.3458 21.7496 16.5505 20.7201C16.7552 19.6907 17.2607 18.7451 18.0029 18.0029C18.7451 17.2607 19.6907 16.7552 20.7201 16.5505C21.7496 16.3458 22.8166 16.4509 23.7863 16.8526C24.756 17.2543 25.5848 17.9346 26.1679 18.8073C26.7509 19.6801 27.0621 20.7062 27.062 21.7558C27.0604 23.1626 26.5008 24.5113 25.506 25.506C24.5113 26.5008 23.1626 27.0604 21.7558 27.062Z" fill="white"/>
</g>
<defs>
<filter id="filter0_d_1_247" x="10" y="11" width="27.4931" height="27.493" filterUnits="userSpaceOnUse" color-interpolation-filters="sRGB">
<feFlood flood-opacity="0" result="BackgroundImageFix"/>
<feColorMatrix in="SourceAlpha" type="matrix" values="0 0 0 0 0 0 0 0 0 0 0 0 0 0 0 0 0 0 127 0" result="hardAlpha"/>
<feOffset dy="1"/>
<feGaussianBlur stdDeviation="2"/>
<feComposite in2="hardAlpha" operator="out"/>
<feColorMatrix type="matrix" values="0 0 0 0 0 0 0 0 0 0 0 0 0 0 0 0 0 0 0.32 0"/>
<feBlend mode="normal" in2="BackgroundImageFix" result="effect1_dropShadow_1_247"/>
<feBlend mode="normal" in="SourceGraphic" in2="effect1_dropShadow_1_247" result="shape"/>
</filter>
<linearGradient id="paint0_linear_1_247" x1="18.5" y1="9.5" x2="18.741" y2="48.1419" gradientUnits="userSpaceOnUse">
<stop stop-color="#00A6DB"/>
<stop offset="1" stop-color="#0065C1"/>
</linearGradient>
<linearGradient id="paint1_linear_1_247" x1="24" y1="0" x2="24" y2="48" gradientUnits="userSpaceOnUse">
<stop stop-color="white"/>
<stop offset="1" stop-color="#D8D5D0"/>
</linearGradient>
</defs>
</svg>
