<svg width="26" height="26" viewBox="0 0 26 26" fill="none" xmlns="http://www.w3.org/2000/svg">
<g>
<path fill-rule="evenodd" clip-rule="evenodd" d="M19.3038 3.61633C17.6199 1.93037 15.3803 1.00148 12.9944 1.00049C8.07802 1.00049 4.07679 5.0016 4.07482 9.9193C4.07416 11.4913 4.48483 13.0259 5.26541 14.3785L4 19.0005L8.72841 17.7601C10.0313 18.4708 11.4981 18.8454 12.9908 18.8458H12.9945C17.9103 18.8458 21.912 14.8444 21.9139 9.92644C21.9149 7.54307 20.9879 5.30219 19.3038 3.61633ZM12.9944 17.3395H12.9913C11.6611 17.3389 10.3565 16.9814 9.21807 16.3061L8.94747 16.1454L6.14157 16.8814L6.8905 14.1457L6.71417 13.8653C5.97205 12.6849 5.58016 11.3206 5.58082 9.91985C5.58236 5.83239 8.90814 2.50693 12.9974 2.50693C14.9775 2.50759 16.839 3.27971 18.2386 4.68102C19.6383 6.08232 20.4086 7.94495 20.408 9.92589C20.4062 14.0137 17.0807 17.3395 12.9944 17.3395ZM17.0609 11.7871C16.8381 11.6755 15.7423 11.1365 15.538 11.062C15.3338 10.9876 15.1851 10.9506 15.0366 11.1736C14.888 11.3966 14.461 11.8987 14.3309 12.0474C14.2008 12.1961 14.0709 12.2148 13.848 12.1032C13.6251 11.9916 12.9071 11.7562 12.0557 10.9969C11.3932 10.406 10.946 9.67617 10.8159 9.45315C10.6861 9.22991 10.8148 9.12092 10.9137 8.99832C11.155 8.69872 11.3965 8.38462 11.4708 8.23597C11.5452 8.08722 11.5079 7.95703 11.4521 7.84552C11.3965 7.73401 10.9508 6.63702 10.7652 6.19065C10.5841 5.75625 10.4005 5.81492 10.2636 5.80811C10.1338 5.80162 9.98513 5.8003 9.83649 5.8003C9.68795 5.8003 9.44647 5.85601 9.24213 6.07925C9.03789 6.30238 8.46221 6.84148 8.46221 7.93846C8.46221 9.03545 9.2608 10.0952 9.3722 10.2439C9.48361 10.3927 10.9438 12.6438 13.1794 13.6091C13.7111 13.8389 14.1262 13.9759 14.45 14.0786C14.9839 14.2482 15.4696 14.2243 15.8537 14.1669C16.2819 14.1029 17.1722 13.6277 17.3581 13.1072C17.5437 12.5866 17.5437 12.1404 17.4879 12.0474C17.4323 11.9544 17.2837 11.8987 17.0609 11.7871Z" fill="white"/>
</g>
<defs>
<filter id="filter0_d_1_205" x="0" y="0.000488281" width="25.9139" height="26" filterUnits="userSpaceOnUse" color-interpolation-filters="sRGB">
<feFlood flood-opacity="0" result="BackgroundImageFix"/>
<feColorMatrix in="SourceAlpha" type="matrix" values="0 0 0 0 0 0 0 0 0 0 0 0 0 0 0 0 0 0 127 0" result="hardAlpha"/>
<feOffset dy="3"/>
<feGaussianBlur stdDeviation="2"/>
<feComposite in2="hardAlpha" operator="out"/>
<feColorMatrix type="matrix" values="0 0 0 0 0 0 0 0 0 0 0 0 0 0 0 0 0 0 0.32 0"/>
<feBlend mode="normal" in2="BackgroundImageFix" result="effect1_dropShadow_1_205"/>
<feBlend mode="normal" in="SourceGraphic" in2="effect1_dropShadow_1_205" result="shape"/>
</filter>
</defs>
</svg>
