<svg width="12" height="16" viewBox="0 0 12 16" fill="none" xmlns="http://www.w3.org/2000/svg">
<path d="M6.73597 15.6469C7.47197 14.7268 8.1653 13.8014 8.81597 12.8706C9.7333 11.544 10.4586 10.3511 10.992 9.29188C11.664 7.94383 12 6.85256 12 6.01805C12 4.92678 11.728 3.91575 11.184 2.98495C10.6506 2.07556 9.93064 1.35339 9.02397 0.818456C8.09597 0.272819 7.08797 0 5.99997 0C4.91197 0 3.90397 0.272819 2.97597 0.818456C2.0693 1.35339 1.3493 2.07556 0.81597 2.98495C0.271969 3.91575 -3.05176e-05 4.92678 -3.05176e-05 6.01805C-3.05176e-05 6.85256 0.33597 7.94383 1.00797 9.29188C1.5413 10.3511 2.26664 11.544 3.18397 12.8706C3.82397 13.78 4.5173 14.7054 5.26397 15.6469C5.45597 15.8823 5.7013 16 5.99997 16C6.29864 16 6.54397 15.8823 6.73597 15.6469ZM5.99997 8.02407C5.6373 8.02407 5.30397 7.93313 4.99997 7.75125C4.69597 7.56938 4.4533 7.32598 4.27197 7.02106C4.09064 6.71615 3.99997 6.38181 3.99997 6.01805C3.99997 5.6543 4.09064 5.31996 4.27197 5.01505C4.4533 4.71013 4.69597 4.46673 4.99997 4.28485C5.30397 4.10298 5.6373 4.01204 5.99997 4.01204C6.36264 4.01204 6.69597 4.10298 6.99997 4.28485C7.30397 4.46673 7.54664 4.71013 7.72797 5.01505C7.9093 5.31996 7.99997 5.6543 7.99997 6.01805C7.99997 6.38181 7.9093 6.71615 7.72797 7.02106C7.54664 7.32598 7.30397 7.56938 6.99997 7.75125C6.69597 7.93313 6.36264 8.02407 5.99997 8.02407Z" fill="url(#paint0_linear_1_554)"/>
<defs>
<linearGradient id="paint0_linear_1_554" x1="4.62497" y1="12.8333" x2="4.73206" y2="-0.0469149" gradientUnits="userSpaceOnUse">
<stop stop-color="#00A6DB"/>
<stop offset="1" stop-color="#0065C1"/>
</linearGradient>
</defs>
</svg>
