<svg width="159" height="101" viewBox="0 0 159 101" fill="none" xmlns="http://www.w3.org/2000/svg">
<path d="M102.153 28.8623C94.7558 31.3881 87.071 36.6969 82.1101 40.9818C79.629 43.1247 79.4036 45.2667 80.3062 45.9433C81.2088 46.6198 84.1394 44.3646 85.0417 43.688L103.056 29.9899C103.506 29.5387 103.056 28.554 102.153 28.8623Z" fill="url(#paint0_linear_529_2)"/>
<path d="M56.4003 58.1212C38.3585 65.789 23.6744 80.0552 18.7135 84.3401C17.1343 85.9188 18.0368 87.4701 18.7134 88.174C19.9632 89.4743 22.7724 87.798 24.1255 86.5952L57.9543 59.7582C58.4049 59.307 59.7831 56.6838 56.4003 58.1212Z" fill="url(#paint1_linear_529_2)"/>
<path fill-rule="evenodd" clip-rule="evenodd" d="M110.384 14.6312L109.89 14.8968L110.963 15.3244L111.126 15.2343C111.319 15.1272 111.447 14.9393 111.445 14.7646C111.444 14.6241 111.392 14.5429 111.238 14.4357C111.063 14.3148 110.907 14.3505 110.384 14.6312ZM106.463 14.5544C105.987 14.6562 105.77 14.8232 105.837 15.0357C105.851 15.0804 106.046 15.2644 106.27 15.4446C106.682 15.7758 107.402 16.3904 107.749 16.7077C109.154 17.9918 110.556 19.3814 111.609 20.5345C111.988 20.9491 112.297 21.2521 112.357 21.2672C112.439 21.288 112.84 21.063 114.424 20.108C115.504 19.4562 116.42 18.8876 116.459 18.8444C116.541 18.7534 116.55 18.6296 116.483 18.4835C116.447 18.403 116.232 18.2873 115.507 17.9581C114.995 17.726 114.217 17.3926 113.778 17.2173C113.339 17.042 112.63 16.7541 112.203 16.5775C111.775 16.401 111.18 16.1552 110.879 16.0313C110.579 15.9075 109.775 15.5748 109.094 15.2921C107.105 14.4674 107.004 14.4389 106.463 14.5544ZM114.184 16.2666C113.969 16.3842 113.799 16.4867 113.806 16.4944C113.868 16.5565 114.831 16.8933 114.892 16.874C115.079 16.8143 115.186 16.6821 115.186 16.5096C115.186 16.2973 115.132 16.1958 114.976 16.1151C114.768 16.0066 114.603 16.038 114.184 16.2666ZM123.024 16.2701C122.602 16.3104 121.935 16.4774 121.478 16.6576C121.283 16.7345 120.69 17.0602 120.161 17.3814C119.631 17.7025 118.29 18.5152 117.181 19.1873C116.072 19.8595 115.004 20.5071 114.808 20.6266C114.611 20.746 113.931 21.158 113.295 21.5421C108.795 24.2627 108.478 24.4595 108.261 24.6716C108.047 24.8812 107.688 25.3694 107.722 25.404C107.731 25.4132 107.859 25.3499 108.006 25.2634C108.729 24.8378 109.494 25.2414 109.42 26.0101C109.389 26.3359 109.226 26.5391 108.82 26.759L108.485 26.9405L108.926 26.9202C109.168 26.9091 109.471 26.8684 109.598 26.8299C109.801 26.7683 112.103 25.616 116.845 23.2025C117.631 22.8026 119.332 21.9383 120.626 21.2819C121.92 20.6255 123.119 19.9922 123.29 19.8747C123.46 19.7571 123.764 19.499 123.965 19.3011C124.817 18.4605 125.279 17.5607 125.167 16.9601C125.126 16.7422 124.888 16.4941 124.625 16.3951C124.19 16.2318 123.771 16.1991 123.024 16.2701ZM122.909 17.4284C123.259 17.6704 123.389 17.9087 123.411 18.3427C123.43 18.7358 123.395 18.8132 123.174 18.8766C123.047 18.9129 123.02 18.9045 122.911 18.7953C122.818 18.7012 122.79 18.6347 122.79 18.503C122.79 18.2086 122.681 18.0465 122.387 17.9056C122.244 17.8371 122.115 17.7511 122.101 17.7144C122.049 17.577 122.079 17.4364 122.184 17.3311C122.339 17.1757 122.593 17.2097 122.909 17.4284ZM104.712 22.6997C104.494 22.8136 104.405 22.9488 104.445 23.106C104.458 23.1609 104.721 23.5007 105.028 23.8613C105.335 24.2218 105.781 24.748 106.021 25.0306C106.298 25.3581 106.495 25.5543 106.564 25.5717C106.728 25.613 106.861 25.5117 107.044 25.2063C107.135 25.0555 107.312 24.7971 107.437 24.632C107.685 24.3059 107.708 24.2173 107.584 24.0591C107.516 23.9719 106.773 23.5347 105.586 22.8827C105.447 22.8066 105.277 22.7098 105.208 22.6676C105.043 22.5672 104.955 22.5728 104.712 22.6997ZM116.95 23.9045C115.853 24.4637 114.912 24.9602 114.86 25.0078C114.744 25.1145 114.741 25.2438 114.848 25.5921C115.47 27.6186 116.236 31.1677 116.552 33.4912C116.59 33.7668 116.637 34.0368 116.658 34.0912C116.788 34.435 117.431 34.0239 117.733 33.4037C117.85 33.1639 117.912 32.8254 118.294 30.3322C118.526 28.8241 118.805 27.0418 118.986 25.9235C119.149 24.9174 119.345 23.4296 119.345 23.2018C119.345 23.022 119.222 22.8856 119.061 22.8868C118.995 22.8874 118.095 23.3212 116.95 23.9045ZM119.907 25.3076C119.783 25.3632 119.771 25.3887 119.708 25.74C119.601 26.3343 119.584 26.472 119.617 26.472C119.688 26.472 120.357 26.038 120.416 25.9539C120.517 25.8088 120.499 25.4923 120.383 25.3831C120.256 25.2637 120.07 25.2342 119.907 25.3076ZM108.355 25.7725C108.308 25.8055 107.817 26.0923 107.264 26.4099C106.711 26.7276 106.222 27.0216 106.179 27.0634C106.082 27.1565 106.114 27.3398 106.234 27.378C106.29 27.3961 106.666 27.2051 107.484 26.7433C108.127 26.38 108.676 26.0636 108.705 26.0402C108.772 25.986 108.773 25.8293 108.707 25.7632C108.639 25.6945 108.459 25.6993 108.355 25.7725ZM108.68 27.6086C108.156 27.6306 108.115 27.6386 108.04 27.7317C107.996 27.7865 107.959 27.8689 107.959 27.9147C107.959 27.9606 108.188 28.6989 108.467 29.5554C108.996 31.1776 109.025 31.2393 109.252 31.2393C109.37 31.2393 109.644 31.1036 109.726 31.005C109.775 30.9457 109.783 30.6707 109.774 29.4093C109.767 28.4929 109.745 27.8412 109.72 27.7747C109.67 27.6473 109.518 27.5653 109.354 27.577C109.292 27.5815 108.989 27.5957 108.68 27.6086ZM119.229 29.4327C119.08 29.5254 119.081 29.5212 118.987 30.1002C118.951 30.3206 118.911 30.5359 118.898 30.5787C118.865 30.6888 118.926 30.6654 119.413 30.3806C119.667 30.2326 119.864 30.0865 119.906 30.0155C120.091 29.7001 119.898 29.3375 119.548 29.3443C119.444 29.3463 119.307 29.3844 119.229 29.4327Z" fill="url(#paint2_linear_529_2)"/>
<path d="M20.7705 69.4025C19.8815 69.5565 19.0973 69.2344 18.418 68.4363C17.7387 67.6382 17.1763 66.6742 16.731 65.5442C16.326 64.4072 16.0535 63.4346 15.9136 62.6264C15.7247 61.5352 15.6096 60.3897 15.5683 59.1898C15.527 57.9898 15.5596 56.7355 15.666 55.4267C15.8383 52.8162 16.182 50.1136 16.6971 47.3189C17.2526 44.5172 17.946 41.6708 18.7774 38.7797C19.1597 37.3815 19.5525 36.044 19.9557 34.7671C20.3994 33.4832 20.8501 32.2397 21.3078 31.0366C22.1757 28.597 23.0153 26.4745 23.8265 24.6691C24.6712 22.8163 25.3872 21.4228 25.9747 20.4886C26.1084 20.299 26.2253 20.1331 26.3256 19.9908C26.4592 19.8012 26.5999 19.652 26.7476 19.5432C25.8725 19.7779 24.9306 20.1075 23.9218 20.5319C20.8622 21.8525 17.9674 23.644 15.2374 25.9066C13.8557 27.0615 12.697 28.3027 11.7614 29.6302C9.60881 32.5835 8.77043 35.4342 9.24624 38.1823C9.31621 38.5864 9.43009 39.0037 9.58788 39.4342C9.78609 39.8578 10.2058 40.1181 10.8469 40.2152L10.9181 40.2653C11.1341 40.3112 11.2631 40.4553 11.3051 40.6978C11.3611 41.0211 11.187 41.2177 10.7829 41.2877C10.3384 41.3647 9.66378 41.315 8.75915 41.1386C7.88793 40.9149 7.04584 40.4987 6.23289 39.8903C5.46035 39.2748 4.97612 38.4013 4.7802 37.2698C4.45833 35.4108 4.7003 33.6832 5.50612 32.0868C7.0315 29.1172 9.73197 26.4435 13.6075 24.0659C14.481 23.5817 15.3378 23.1212 16.1779 22.6844C17.011 22.2071 17.8309 21.7738 18.6376 21.3844C19.982 20.7354 21.3001 20.1742 22.5917 19.7008C23.8833 19.2274 24.7883 18.925 25.3066 18.7937C26.0201 18.5869 26.7335 18.3801 27.4469 18.1734C28.1937 17.9192 28.9713 17.7221 29.7795 17.5822C32.0426 17.1903 33.2546 17.4591 33.4155 18.3886C33.5345 19.0756 33.1658 19.9511 32.3094 21.0151C31.7608 21.6929 31.1337 22.7588 30.4281 24.2129C29.7156 25.6266 28.9606 27.2766 28.1634 29.1628C27.4066 31.042 26.647 33.0258 25.8847 35.1141L23.7588 41.2262C23.1038 43.2127 22.5253 45.0403 22.0234 46.7089C21.5214 48.3775 21.1524 49.7317 20.9162 50.7716C20.5619 52.3314 20.2927 54.0221 20.1087 55.8438C19.9246 57.6655 19.8038 59.3721 19.7464 60.9638C19.7294 62.5484 19.7944 63.7651 19.9414 64.6137C20.2142 66.1898 20.5325 66.9463 20.8963 66.8834C21.1387 66.8414 21.3823 66.4454 21.6271 65.6954C22.2751 63.6685 23.1975 61.3028 24.3941 58.5982C25.6242 55.8462 27.0116 52.9212 28.5564 49.8233C30.1416 46.7184 31.8376 43.532 33.6443 40.2639C35.451 36.9958 37.255 33.8322 39.0562 30.7732C46.8138 17.4008 55.709 8.55565 65.742 4.23784C66.9123 3.78546 67.9825 3.4753 68.9524 3.30737C70.0435 3.11845 70.9333 3.08924 71.6219 3.21976C72.3035 3.30987 72.6618 3.45595 72.6968 3.65801C72.7737 4.10255 71.9434 4.47525 70.2056 4.77613C68.7912 5.02103 67.2913 5.61371 65.706 6.55418C62.5353 8.43513 59.1249 11.3357 55.4748 15.256C54.5974 16.1987 53.7438 17.1582 52.9138 18.1344C52.0769 19.0701 51.2504 20.0665 50.4345 21.1235C48.7552 23.2041 47.1971 25.2637 45.7602 27.3023C44.3638 29.3339 43.1387 31.2734 42.085 33.1208C40.1975 36.4029 38.31 39.685 36.4224 42.967C34.5753 46.2421 32.8452 49.3513 31.232 52.2945C29.6522 55.1903 28.236 57.8289 26.9834 60.2102C25.7711 62.5845 24.8729 64.4883 24.2885 65.9214C23.4384 67.9833 22.2658 69.1437 20.7705 69.4025Z" fill="url(#paint3_linear_529_2)"/>
<path d="M53.5671 28.5729C53.0417 28.6638 52.5692 28.5791 52.1495 28.3188C51.7228 28.0181 51.464 27.605 51.3731 27.0797C51.2541 26.3927 51.3951 25.7647 51.7961 25.1958C52.1971 24.6269 52.7209 24.2865 53.3675 24.1745C54.0141 24.0626 54.5375 24.2009 54.9378 24.5894C55.3784 24.971 55.6108 25.4718 55.635 26.092C55.5783 26.7262 55.3627 27.2838 54.9881 27.7649C54.6065 28.2056 54.1329 28.4749 53.5671 28.5729ZM48.3336 56.7633C47.202 56.9592 46.2702 56.746 45.5381 56.1235C44.8393 55.4536 44.3745 54.4519 44.1436 53.1183C44.0387 52.5121 43.9838 51.8348 43.9791 51.0864C43.9938 50.2098 44.122 49.147 44.3636 47.8981C44.6387 46.6017 44.9743 45.2949 45.3706 43.9776C45.7668 42.6603 46.134 41.5353 46.472 40.6027C46.7836 39.7579 47.155 38.7778 47.5862 37.6626C48.0509 36.4999 48.4223 35.5199 48.7005 34.7225C48.9328 34.1412 49.0991 33.7794 49.1994 33.6372C49.3843 33.0224 49.8327 32.4869 50.5445 32.0307C51.2494 31.534 51.9251 31.2297 52.5717 31.1178C53.4204 30.9708 53.8902 31.16 53.9811 31.6854C54.0231 31.9279 53.9544 32.2519 53.7749 32.6576C53.224 34.0434 52.5666 35.6556 51.8027 37.4944C51.0723 39.2859 50.3726 41.1344 49.7036 43.04C49.0346 44.9457 48.5132 46.7425 48.1395 48.4306C47.7992 50.0712 47.7235 51.437 47.9125 52.5282C48.1084 53.6597 48.6307 54.152 49.4793 54.0051C50.0451 53.9071 50.6796 53.4851 51.3829 52.739C52.0862 51.9928 52.7553 51.1694 53.3902 50.2686C54.025 49.3678 54.5061 48.6602 54.8332 48.1457L55.8252 46.6628C55.9922 46.4257 56.1391 46.1922 56.2658 45.9621C56.3854 45.6917 56.5086 45.4414 56.6353 45.2114C56.7215 44.9883 56.8657 44.8593 57.0677 44.8243C57.5527 44.7404 57.8441 44.9813 57.9421 45.547C57.9911 45.8299 57.932 46.0899 57.7649 46.3269C57.4184 46.9697 57.0683 47.5922 56.7147 48.1945C56.3612 48.7968 55.9874 49.4027 55.5934 50.012C55.0463 50.9392 54.4219 51.9006 53.7202 52.8962C53.0115 53.8514 52.2212 54.6958 51.3493 55.4295C50.4703 56.1228 49.4651 56.5674 48.3336 56.7633Z" fill="url(#paint4_linear_529_2)"/>
<path d="M67.3905 81.6221C65.2083 81.9999 63.8408 80.5926 63.288 77.4C63.155 76.6322 63.0687 75.773 63.029 74.8226C62.9893 73.8721 63.0165 72.8268 63.1104 71.6867C63.2704 69.2448 63.6712 66.5115 64.3129 63.4868C64.9951 60.455 65.7783 57.4057 66.6625 54.339C67.0183 53.0287 67.4375 51.6033 67.9201 50.0629C68.3956 48.4822 68.8544 46.9251 69.2965 45.3917C69.8847 43.5001 70.3963 41.7673 70.8314 40.1935C69.9184 41.8917 68.9579 43.5565 67.95 45.1878C66.9422 46.8191 65.8554 48.2352 64.6897 49.436C63.5575 50.5894 62.3447 51.278 61.0516 51.5019C59.6301 51.7064 58.5771 51.5141 57.8923 50.9251C57.2006 50.2956 56.7673 49.4757 56.5924 48.4654C56.3895 47.2935 56.4352 45.9952 56.7297 44.5707C57.0241 43.1461 57.387 41.8762 57.8182 40.7609C58.5821 38.9221 59.5752 37.0852 60.7975 35.2503C62.0533 33.3679 63.4389 31.7544 64.9543 30.4098C66.5101 29.0582 68.0962 28.2425 69.7127 27.9626C71.5312 27.6477 73.1509 27.8668 74.5716 28.6198C75.2157 27.0514 75.8226 25.989 76.3923 25.4325C76.9549 24.8356 77.5999 24.4742 78.3273 24.3482C78.6506 24.2922 78.9774 24.2565 79.3077 24.2409C79.6784 24.2183 80.0728 24.2125 80.491 24.2233L80.7568 24.6768C79.9704 26.1449 79.2947 27.5314 78.7298 28.8363C78.1649 30.1412 77.5207 31.7096 76.7973 33.5414C76.6846 33.8523 76.5351 34.1903 76.3486 34.5556C76.2025 34.9139 76.0599 35.2924 75.9208 35.6911C75.8081 36.002 75.5704 36.7924 75.2075 38.0623C74.8377 39.2918 74.4783 40.5819 74.1295 41.9326C73.6345 43.6416 73.077 45.5904 72.457 47.779C71.8774 49.9605 71.3215 52.1587 70.7892 54.3737C71.8392 55.1492 72.6895 56.334 73.3401 57.9279C73.6137 58.5465 73.8302 59.1958 73.9896 59.8758C74.1893 60.5488 74.3557 61.2692 74.4886 62.0371C74.6846 63.1686 74.8032 64.3343 74.8444 65.5343C74.8857 66.7342 74.8496 67.9684 74.7363 69.2367C74.6213 70.2556 74.4589 71.241 74.2492 72.1931C74.0868 73.1785 73.8533 74.1139 73.5487 74.9991C72.2317 78.9316 70.179 81.1393 67.3905 81.6221ZM61.1797 49.3569C61.7858 49.252 62.6278 48.5859 63.7057 47.3587C68.3652 42.0566 71.7047 36.4627 73.7242 30.5771C73.1731 29.7984 72.4733 29.4825 71.6246 29.6295C70.6547 29.7974 69.5835 30.4616 68.4108 31.622C67.2715 32.7349 66.2244 34.0193 65.2694 35.475C64.1737 37.0799 63.2035 38.8087 62.3588 40.6616C61.5142 42.5144 60.9349 44.2172 60.621 45.77C60.332 46.9855 60.2435 47.9165 60.3554 48.5631C60.4604 49.1693 60.7351 49.4339 61.1797 49.3569ZM67.7739 79.8699C68.5014 79.744 69.1685 79.1498 69.7754 78.0874C70.9962 76.003 71.7654 72.8729 72.083 68.6971C72.1645 67.7257 72.2056 66.7612 72.2064 65.8037C72.2545 64.8797 72.242 63.9661 72.1689 63.0631C72.1517 62.4833 72.0977 61.9308 72.0067 61.4054C71.9228 60.9205 71.8423 60.4557 71.7653 60.0112C71.4225 58.031 70.979 56.6718 70.435 55.9335C69.6914 58.851 69.0085 61.758 68.3861 64.6546C67.7708 67.5915 67.3086 70.2106 66.9994 72.5118C66.667 75.3998 66.5987 77.4095 66.7946 78.5411C66.9626 79.511 67.289 79.9539 67.7739 79.8699Z" fill="url(#paint5_linear_529_2)"/>
<path d="M87.587 96.5364C86.9374 96.7256 86.2936 96.6153 85.6557 96.2053C85.0178 95.7954 84.5297 95.0067 84.1913 93.8392C84.0023 93.1868 83.8766 92.4974 83.8143 91.7708C83.7832 91.4075 83.7259 90.6981 83.6425 89.6426C83.559 88.587 83.5048 87.5044 83.4798 86.3946C83.4193 85.0345 83.4287 83.4678 83.508 81.6946C83.5774 79.8871 83.7416 77.9589 84.0006 75.9099C84.1639 74.2984 84.3691 72.7678 84.6163 71.3181C84.8636 69.8683 85.1208 68.4529 85.3879 67.0719L78.3103 69.1336C77.9342 69.2432 77.7213 69.2121 77.6715 69.0405C77.5621 68.6628 77.8834 68.3643 78.6356 68.1452L85.6107 66.1133C86.0176 64.3191 86.4836 62.6009 87.0088 60.9585C87.5339 59.3161 88.1864 57.7296 88.9664 56.1991C89.3486 55.3431 89.7393 54.708 90.1384 54.2938C90.5716 53.8697 91.0297 53.5315 91.5127 53.2791C92.02 52.9824 92.5785 52.6707 93.1884 52.3441C92.1729 54.7251 91.3155 56.9484 90.6164 59.0138C89.9416 61.035 89.35 63.0877 88.8417 65.1721L96.4322 62.9609C96.8425 62.8413 97.0775 62.8846 97.1372 63.0906C97.1671 63.1936 97.0993 63.3437 96.934 63.5408C96.7929 63.6936 96.5343 63.8248 96.1582 63.9344L88.619 66.1306C88.2163 67.8118 87.8728 69.5689 87.5883 71.4018C87.2939 73.2005 86.9929 75.1685 86.6855 77.3061C86.4252 79.0947 86.2682 80.9836 86.2144 82.9728C86.1848 84.9177 86.218 86.6954 86.314 88.3058C86.4099 89.9162 86.5524 91.0476 86.7415 91.7C87.1993 93.2795 87.8556 93.9447 88.7103 93.6957C89.1206 93.5762 89.5738 93.2208 90.0698 92.6295C91.1644 91.4169 92.1123 90.2099 92.9135 89.0084C93.7247 87.8412 94.4696 86.6374 95.1483 85.3971C95.5219 84.767 95.9411 83.9746 96.406 83.02C96.9051 82.0554 97.3992 81.0737 97.8883 80.0748C98.3774 79.0758 98.806 78.1877 99.1739 77.4102L99.7622 76.1777C99.8349 76.0448 99.9054 75.9684 99.9738 75.9484C100.179 75.8887 100.321 75.9961 100.401 76.2708C100.451 76.4425 100.432 76.6341 100.345 76.8457C100.254 77.1702 100.14 77.4825 100.005 77.7826C99.8351 78.0927 99.6875 78.4149 99.562 78.7494C98.6192 80.9975 97.5275 83.3077 96.287 85.6798C95.0464 88.0519 93.7098 90.2845 92.2771 92.3774C91.6698 93.2246 91.0184 94.0474 90.3228 94.8458C89.6273 95.6442 88.7153 96.2077 87.587 96.5364Z" fill="url(#paint6_linear_529_2)"/>
<path d="M106.294 81.4799C105.132 81.8185 104.013 81.6045 102.938 80.8378C101.897 80.0612 101.153 78.9003 100.705 77.3551C100.347 76.119 100.199 74.8403 100.261 73.519C100.333 72.232 100.556 70.9567 100.932 69.6931C101.341 68.4194 101.856 67.1896 102.476 66.0035C103.291 64.4631 104.303 63.0324 105.515 61.7113C106.761 60.3803 107.999 59.5355 109.23 59.1769C110.187 58.8981 110.992 58.9243 111.644 59.2556C112.321 59.5426 112.753 60.0123 112.942 60.6647C113.062 61.0767 113.054 61.563 112.92 62.1233C113.839 61.9674 114.726 61.7649 115.581 61.5159C116.23 61.3267 116.87 61.1031 117.5 60.8452C118.129 60.5872 118.749 60.295 119.359 59.9684L119.564 59.9086C119.838 59.8289 119.994 59.8578 120.034 59.9951C120.074 60.1325 119.955 60.2975 119.677 60.4901C119.375 60.7271 118.851 61.0288 118.104 61.3952C117.357 61.7616 116.572 62.1209 115.747 62.4729C114.912 62.7906 114.152 63.049 113.469 63.2482C113.229 63.3179 113.024 63.3777 112.853 63.4275C112.682 63.4773 112.523 63.5049 112.377 63.5105L111.938 63.9174C112.518 64.3816 112.957 65.1287 113.255 66.1588C113.654 67.5323 113.72 69.0397 113.454 70.6811C113.212 72.2781 112.723 73.8541 111.988 75.4089C111.276 76.9195 110.414 78.2318 109.402 79.3458C108.424 80.4498 107.389 81.1612 106.294 81.4799ZM106.398 80.1093C107.321 79.8404 108.132 79.2502 108.832 78.3388C109.522 77.3931 110.072 76.2835 110.481 75.0099C110.915 73.692 111.192 72.3452 111.313 70.9697C111.457 69.5498 111.446 68.2312 111.279 67.014C111.253 66.798 111.215 66.6042 111.166 66.4325C111.106 66.2265 111.051 66.0376 111.002 65.8659C110.912 65.5569 110.815 65.2872 110.711 65.0568C110.598 64.7921 110.47 64.606 110.327 64.4985C110.259 64.5184 110.202 64.5162 110.158 64.4918C109.728 64.5427 109.391 64.5293 109.146 64.4517C108.935 64.3642 108.685 64.2694 108.396 64.1674C108.209 64.0356 108.081 63.8495 108.012 63.6091C107.942 63.3688 107.973 63.155 108.104 62.9679C108.269 62.7708 108.481 62.6717 108.741 62.6706C109.645 62.5933 110.613 62.4789 111.645 62.3274C111.817 61.6441 111.834 61.062 111.695 60.5813C111.456 59.7572 110.721 59.5245 109.49 59.8831C108.738 60.1022 108.036 60.6231 107.385 61.4459C106.757 62.2244 106.185 63.1917 105.667 64.3479C105.14 65.4697 104.676 66.6846 104.276 67.9926C103.867 69.2662 103.555 70.4928 103.341 71.6723C103.198 72.4586 103.134 73.3895 103.149 74.4649C103.198 75.5304 103.357 76.5267 103.626 77.4538C103.875 78.3122 104.23 79.0278 104.693 79.6005C105.18 80.129 105.748 80.2985 106.398 80.1093Z" fill="url(#paint7_linear_529_2)"/>
<path d="M129.103 74.7798C128.419 74.979 127.858 74.9002 127.421 74.5435C126.984 74.1867 126.656 73.6307 126.437 72.8752C126.178 71.9825 126.041 70.8682 126.024 69.5325C126.032 68.1525 126.104 66.7354 126.238 65.2812C125.979 66.176 125.653 67.1644 125.262 68.2465C124.872 69.3285 124.432 70.3689 123.942 71.3678C123.453 72.3667 122.924 73.2283 122.356 73.9525C121.821 74.6668 121.263 75.1086 120.682 75.2779C119.725 75.5568 118.963 75.4248 118.398 74.882C117.867 74.3292 117.477 73.6236 117.228 72.7652C117.069 72.2158 116.949 71.6736 116.868 71.1386C116.812 70.5593 116.792 70.0438 116.809 69.5919C116.917 67.6614 117.188 65.5903 117.623 63.3786C118.047 61.1326 118.582 58.9475 119.227 56.8233C119.906 54.6892 120.672 52.7904 121.524 51.1271C122.106 50.0639 122.602 49.4726 123.013 49.3531C123.218 49.2933 123.355 49.3836 123.425 49.624C123.494 49.8643 123.474 50.2426 123.364 50.7587C123.289 51.2648 123.096 51.8795 122.786 52.6026C122.54 53.1586 122.266 54.1321 121.964 55.5231C121.653 56.8798 121.34 58.4231 121.026 60.1531C120.702 61.8487 120.411 63.5343 120.156 65.21C119.934 66.8757 119.76 68.3227 119.634 69.551C119.549 70.2831 119.513 70.9266 119.526 71.4815C119.573 72.0264 119.646 72.4706 119.745 72.8139C119.984 73.638 120.377 73.9703 120.924 73.811C121.642 73.6018 122.371 72.6633 123.111 70.9955C123.286 70.5724 123.529 69.9429 123.843 69.1067C124.147 68.2362 124.47 67.3043 124.813 66.3109C125.179 65.2732 125.522 64.2798 125.84 63.3307C126.158 62.3815 126.414 61.5997 126.606 60.985L127.159 58.4781C127.23 58.085 127.493 57.7107 127.946 57.3553C128.423 56.9555 128.884 56.6909 129.329 56.5615C129.636 56.4718 129.835 56.5815 129.924 56.8905C130.034 57.2682 130.063 57.688 130.011 58.1499C129.984 58.5674 129.898 59.0392 129.754 59.5653C129.48 60.5388 129.268 61.6618 129.118 62.9343C128.967 64.2069 128.859 65.4302 128.791 66.6042C128.757 67.7682 128.779 68.6742 128.856 69.3222C128.888 69.9457 128.989 70.5494 129.158 71.1331C129.198 71.2704 129.238 71.4078 129.277 71.5452C129.351 71.6725 129.42 71.7828 129.484 71.8758C129.682 72.3023 129.918 72.4756 130.191 72.396C130.328 72.3561 130.484 72.2548 130.659 72.092C131.302 71.4952 131.9 70.7439 132.453 69.838C132.997 68.8978 133.496 67.9332 133.951 66.9443C134.183 66.467 134.403 66.0118 134.612 65.5788C134.82 65.1458 135.006 64.7006 135.17 64.2432C135.243 64.1103 135.313 64.0339 135.382 64.014C135.587 63.9542 135.729 64.0617 135.809 64.3364C135.869 64.5424 135.85 64.734 135.753 64.9112L134.287 68.2983C134.041 68.8543 133.777 69.4152 133.496 69.9811C133.205 70.5127 132.926 71.0221 132.66 71.5094C132.165 72.361 131.596 73.0852 130.953 73.682C130.301 74.2445 129.684 74.6104 129.103 74.7798Z" fill="url(#paint8_linear_529_2)"/>
<path d="M142.986 79.9512C141.926 80.2599 141.077 80.2094 140.439 79.7994C139.846 79.4139 139.424 78.7919 139.176 77.9334C139.016 77.384 138.93 76.7018 138.916 75.8866C138.851 74.6395 138.945 73.2345 139.196 71.6718C139.492 70.1335 139.782 68.8947 140.066 67.9556C140.297 67.218 140.523 66.4632 140.744 65.6913C140.965 64.9194 141.199 64.1253 141.444 63.3091L142.793 58.5596C143.053 57.6648 143.073 56.8396 142.854 56.0842C142.615 55.2601 142.106 54.7195 141.327 54.4624L140.475 54.208C140.152 54.116 139.902 54.0212 139.725 53.9237L139.351 55.3175L138.961 56.6598C138.532 57.8647 138.029 59.2026 137.455 60.6733C136.88 62.144 136.324 63.5533 135.788 64.901C135.251 66.2488 134.787 67.3336 134.395 68.1553C134.322 68.2882 134.235 68.3696 134.132 68.3995C133.961 68.4493 133.817 68.3983 133.698 68.2465C133.546 68.1047 133.518 67.9452 133.615 67.768C134.511 65.8688 135.345 63.9501 136.118 62.012C136.916 60.0297 137.574 58.0135 138.092 55.9635L138.409 54.7541L138.711 53.4932C138.387 53.4012 138.041 53.1669 137.673 52.7902C137.294 52.3792 137.045 51.9677 136.926 51.5557C136.756 50.972 136.896 50.5589 137.345 50.3164L137.396 50.3015C137.738 50.2019 138.14 50.3083 138.601 50.6207C139.082 51.0018 139.49 51.8326 139.824 53.113C140.824 53.492 141.747 53.67 142.593 53.6469C143.439 53.6239 144.146 53.6971 144.714 53.8667C145.307 53.992 145.722 54.4667 145.961 55.2908C146.001 55.4281 146.029 55.5876 146.044 55.7693C146.094 55.941 146.127 56.1176 146.142 56.2993C146.21 57.1732 146.059 58.3156 145.69 59.7265C145.354 61.1275 144.943 62.5878 144.456 64.1072C143.96 65.5924 143.538 66.8881 143.192 67.9945C142.865 69.1696 142.529 70.4404 142.183 71.8071C141.848 73.2081 141.612 74.5055 141.476 75.6994C141.374 76.8834 141.481 77.7645 141.797 78.3427C141.999 78.6562 142.288 78.7582 142.664 78.6486C143.211 78.4892 143.813 78.0718 144.47 77.3964C145.351 76.4695 146.132 75.5161 146.812 74.5361C147.501 73.5904 148.186 72.4973 148.865 71.257C149.228 70.5926 149.669 69.6822 150.186 68.5261C150.748 67.3943 151.324 66.1838 151.915 64.8947C152.495 63.5713 153.037 62.3709 153.541 61.2933C153.729 60.7916 153.952 60.28 154.208 59.7584L154.906 58.3265C154.978 58.1936 155.049 58.1171 155.117 58.0972C155.322 58.0375 155.465 58.1449 155.544 58.4196C155.574 58.5226 155.538 58.7192 155.437 59.0094C155.235 59.5897 154.986 60.2021 154.69 60.8467C154.429 61.4812 154.176 62.0765 153.929 62.6324C153.338 63.9215 152.685 65.3778 151.969 67.0014C151.278 68.5806 150.564 70.1476 149.828 71.7025C149.126 73.2474 148.409 74.6106 147.676 75.7922C147.089 76.7081 146.442 77.548 145.737 78.3121C145.031 79.0761 144.114 79.6225 142.986 79.9512Z" fill="url(#paint9_linear_529_2)"/>
<path d="M20.7705 69.4025C19.8815 69.5565 19.0973 69.2344 18.418 68.4363C17.7387 67.6382 17.1763 66.6742 16.731 65.5442C16.326 64.4072 16.0535 63.4346 15.9136 62.6264C15.7247 61.5352 15.6096 60.3897 15.5683 59.1898C15.527 57.9898 15.5596 56.7355 15.666 55.4267C15.8383 52.8162 16.182 50.1136 16.6971 47.3189C17.2526 44.5172 17.946 41.6708 18.7774 38.7797C19.1597 37.3815 19.5525 36.044 19.9557 34.7671C20.3994 33.4832 20.8501 32.2397 21.3078 31.0366C22.1757 28.597 23.0153 26.4745 23.8265 24.6691C24.6712 22.8163 25.3872 21.4228 25.9747 20.4886C26.1084 20.299 26.2253 20.1331 26.3256 19.9908C26.4592 19.8012 26.5999 19.652 26.7476 19.5432C25.8725 19.7779 24.9306 20.1075 23.9218 20.5319C20.8622 21.8525 17.9674 23.644 15.2374 25.9066C13.8557 27.0615 12.697 28.3027 11.7614 29.6302C9.60881 32.5835 8.77043 35.4342 9.24624 38.1823C9.31621 38.5864 9.43009 39.0037 9.58788 39.4342C9.78609 39.8578 10.2058 40.1181 10.8469 40.2152L10.9181 40.2653C11.1341 40.3112 11.2631 40.4553 11.3051 40.6978C11.3611 41.0211 11.187 41.2177 10.7829 41.2877C10.3384 41.3647 9.66378 41.315 8.75915 41.1386C7.88793 40.9149 7.04584 40.4987 6.23289 39.8903C5.46035 39.2748 4.97612 38.4013 4.7802 37.2698C4.45833 35.4108 4.7003 33.6832 5.50612 32.0868C7.0315 29.1172 9.73197 26.4435 13.6075 24.0659C14.481 23.5817 15.3378 23.1212 16.1779 22.6844C17.011 22.2071 17.8309 21.7738 18.6376 21.3844C19.982 20.7354 21.3001 20.1742 22.5917 19.7008C23.8833 19.2274 24.7883 18.925 25.3066 18.7937C26.0201 18.5869 26.7335 18.3801 27.4469 18.1734C28.1937 17.9192 28.9713 17.7221 29.7795 17.5822C32.0426 17.1903 33.2546 17.4591 33.4155 18.3886C33.5345 19.0756 33.1658 19.9511 32.3094 21.0151C31.7608 21.6929 31.1337 22.7588 30.4281 24.2129C29.7156 25.6266 28.9606 27.2766 28.1634 29.1628C27.4066 31.042 26.647 33.0258 25.8847 35.1141L23.7588 41.2262C23.1038 43.2127 22.5253 45.0403 22.0234 46.7089C21.5214 48.3775 21.1524 49.7317 20.9162 50.7716C20.5619 52.3314 20.2927 54.0221 20.1087 55.8438C19.9246 57.6655 19.8038 59.3721 19.7464 60.9638C19.7294 62.5484 19.7944 63.7651 19.9414 64.6137C20.2142 66.1898 20.5325 66.9463 20.8963 66.8834C21.1387 66.8414 21.3823 66.4454 21.6271 65.6954C22.2751 63.6685 23.1975 61.3028 24.3941 58.5982C25.6242 55.8462 27.0116 52.9212 28.5564 49.8233C30.1416 46.7184 31.8376 43.532 33.6443 40.2639C35.451 36.9958 37.255 33.8322 39.0562 30.7732C46.8138 17.4008 55.709 8.55565 65.742 4.23784C66.9123 3.78546 67.9825 3.4753 68.9524 3.30737C70.0435 3.11845 70.9333 3.08924 71.6219 3.21976C72.3035 3.30987 72.6618 3.45595 72.6968 3.65801C72.7737 4.10255 71.9434 4.47525 70.2056 4.77613C68.7912 5.02103 67.2913 5.61371 65.706 6.55418C62.5353 8.43513 59.1249 11.3357 55.4748 15.256C54.5974 16.1987 53.7438 17.1582 52.9138 18.1344C52.0769 19.0701 51.2504 20.0665 50.4345 21.1235C48.7552 23.2041 47.1971 25.2637 45.7602 27.3023C44.3638 29.3339 43.1387 31.2734 42.085 33.1208C40.1975 36.4029 38.31 39.685 36.4224 42.967C34.5753 46.2421 32.8452 49.3513 31.232 52.2945C29.6522 55.1903 28.236 57.8289 26.9834 60.2102C25.7711 62.5845 24.8729 64.4883 24.2885 65.9214C23.4384 67.9833 22.2658 69.1437 20.7705 69.4025Z" stroke="url(#paint10_linear_529_2)" stroke-width="1.21774"/>
<path d="M53.5671 28.5729C53.0417 28.6638 52.5692 28.5791 52.1495 28.3188C51.7228 28.0181 51.464 27.605 51.3731 27.0797C51.2541 26.3927 51.3951 25.7647 51.7961 25.1958C52.1971 24.6269 52.7209 24.2865 53.3675 24.1745C54.0141 24.0626 54.5375 24.2009 54.9378 24.5894C55.3784 24.971 55.6108 25.4718 55.635 26.092C55.5783 26.7262 55.3627 27.2838 54.9881 27.7649C54.6065 28.2056 54.1329 28.4749 53.5671 28.5729ZM48.3336 56.7633C47.202 56.9592 46.2702 56.746 45.5381 56.1235C44.8393 55.4536 44.3745 54.4519 44.1436 53.1183C44.0387 52.5121 43.9838 51.8348 43.9791 51.0864C43.9938 50.2098 44.122 49.147 44.3636 47.8981C44.6387 46.6017 44.9743 45.2949 45.3706 43.9776C45.7668 42.6603 46.134 41.5353 46.472 40.6027C46.7836 39.7579 47.155 38.7778 47.5862 37.6626C48.0509 36.4999 48.4223 35.5199 48.7005 34.7225C48.9328 34.1412 49.0991 33.7794 49.1994 33.6372C49.3843 33.0224 49.8327 32.4869 50.5445 32.0307C51.2494 31.534 51.9251 31.2297 52.5717 31.1178C53.4204 30.9708 53.8902 31.16 53.9811 31.6854C54.0231 31.9279 53.9544 32.2519 53.7749 32.6576C53.224 34.0434 52.5666 35.6556 51.8027 37.4944C51.0723 39.2859 50.3726 41.1344 49.7036 43.04C49.0346 44.9457 48.5132 46.7425 48.1395 48.4306C47.7992 50.0712 47.7235 51.437 47.9125 52.5282C48.1084 53.6597 48.6307 54.152 49.4793 54.0051C50.0451 53.9071 50.6796 53.4851 51.3829 52.739C52.0862 51.9928 52.7553 51.1694 53.3902 50.2686C54.025 49.3678 54.5061 48.6602 54.8332 48.1457L55.8252 46.6628C55.9922 46.4257 56.1391 46.1922 56.2658 45.9621C56.3854 45.6917 56.5086 45.4414 56.6353 45.2114C56.7215 44.9883 56.8657 44.8593 57.0677 44.8243C57.5527 44.7404 57.8441 44.9813 57.9421 45.547C57.9911 45.8299 57.932 46.0899 57.7649 46.3269C57.4184 46.9697 57.0683 47.5922 56.7147 48.1945C56.3612 48.7968 55.9874 49.4027 55.5934 50.012C55.0463 50.9392 54.4219 51.9006 53.7202 52.8962C53.0115 53.8514 52.2212 54.6958 51.3493 55.4295C50.4703 56.1228 49.4651 56.5674 48.3336 56.7633Z" stroke="url(#paint11_linear_529_2)" stroke-width="1.21774"/>
<path d="M67.3905 81.6221C65.2083 81.9999 63.8408 80.5926 63.288 77.4C63.155 76.6322 63.0687 75.773 63.029 74.8226C62.9893 73.8721 63.0165 72.8268 63.1104 71.6867C63.2704 69.2448 63.6712 66.5115 64.3129 63.4868C64.9951 60.455 65.7783 57.4057 66.6625 54.339C67.0183 53.0287 67.4375 51.6033 67.9201 50.0629C68.3956 48.4822 68.8544 46.9251 69.2965 45.3917C69.8847 43.5001 70.3963 41.7673 70.8314 40.1935C69.9184 41.8917 68.9579 43.5565 67.95 45.1878C66.9422 46.8191 65.8554 48.2352 64.6897 49.436C63.5575 50.5894 62.3447 51.278 61.0516 51.5019C59.6301 51.7064 58.5771 51.5141 57.8923 50.9251C57.2006 50.2956 56.7673 49.4757 56.5924 48.4654C56.3895 47.2935 56.4352 45.9952 56.7297 44.5707C57.0241 43.1461 57.387 41.8762 57.8182 40.7609C58.5821 38.9221 59.5752 37.0852 60.7975 35.2503C62.0533 33.3679 63.4389 31.7544 64.9543 30.4098C66.5101 29.0582 68.0962 28.2425 69.7127 27.9626C71.5312 27.6477 73.1509 27.8668 74.5716 28.6198C75.2157 27.0514 75.8226 25.989 76.3923 25.4325C76.9549 24.8356 77.5999 24.4742 78.3273 24.3482C78.6506 24.2922 78.9774 24.2565 79.3077 24.2409C79.6784 24.2183 80.0728 24.2125 80.491 24.2233L80.7568 24.6768C79.9704 26.1449 79.2947 27.5314 78.7298 28.8363C78.1649 30.1412 77.5207 31.7096 76.7973 33.5414C76.6846 33.8523 76.5351 34.1903 76.3486 34.5556C76.2025 34.9139 76.0599 35.2924 75.9208 35.6911C75.8081 36.002 75.5704 36.7924 75.2075 38.0623C74.8377 39.2918 74.4783 40.5819 74.1295 41.9326C73.6345 43.6416 73.077 45.5904 72.457 47.779C71.8774 49.9605 71.3215 52.1587 70.7892 54.3737C71.8392 55.1492 72.6895 56.334 73.3401 57.9279C73.6137 58.5465 73.8302 59.1958 73.9896 59.8758C74.1893 60.5488 74.3557 61.2692 74.4886 62.0371C74.6846 63.1686 74.8032 64.3343 74.8444 65.5343C74.8857 66.7342 74.8496 67.9684 74.7363 69.2367C74.6213 70.2556 74.4589 71.241 74.2492 72.1931C74.0868 73.1785 73.8533 74.1139 73.5487 74.9991C72.2317 78.9316 70.179 81.1393 67.3905 81.6221ZM61.1797 49.3569C61.7858 49.252 62.6278 48.5859 63.7057 47.3587C68.3652 42.0566 71.7047 36.4627 73.7242 30.5771C73.1731 29.7984 72.4733 29.4825 71.6246 29.6295C70.6547 29.7974 69.5835 30.4616 68.4108 31.622C67.2715 32.7349 66.2244 34.0193 65.2694 35.475C64.1737 37.0799 63.2035 38.8087 62.3588 40.6616C61.5142 42.5144 60.9349 44.2172 60.621 45.77C60.332 46.9855 60.2435 47.9165 60.3554 48.5631C60.4604 49.1693 60.7351 49.4339 61.1797 49.3569ZM67.7739 79.8699C68.5014 79.744 69.1685 79.1498 69.7754 78.0874C70.9962 76.003 71.7654 72.8729 72.083 68.6971C72.1645 67.7257 72.2056 66.7612 72.2064 65.8037C72.2545 64.8797 72.242 63.9661 72.1689 63.0631C72.1517 62.4833 72.0977 61.9308 72.0067 61.4054C71.9228 60.9205 71.8423 60.4557 71.7653 60.0112C71.4225 58.031 70.979 56.6718 70.435 55.9335C69.6914 58.851 69.0085 61.758 68.3861 64.6546C67.7708 67.5915 67.3086 70.2106 66.9994 72.5118C66.667 75.3998 66.5987 77.4095 66.7946 78.5411C66.9626 79.511 67.289 79.9539 67.7739 79.8699Z" stroke="url(#paint12_linear_529_2)" stroke-width="1.21774"/>
<path d="M87.587 96.5364C86.9374 96.7256 86.2936 96.6153 85.6557 96.2053C85.0178 95.7954 84.5297 95.0067 84.1913 93.8392C84.0023 93.1868 83.8766 92.4974 83.8143 91.7708C83.7832 91.4075 83.7259 90.6981 83.6425 89.6426C83.559 88.587 83.5048 87.5044 83.4798 86.3946C83.4193 85.0345 83.4287 83.4678 83.508 81.6946C83.5774 79.8871 83.7416 77.9589 84.0006 75.9099C84.1639 74.2984 84.3691 72.7678 84.6163 71.3181C84.8636 69.8683 85.1208 68.4529 85.3879 67.0719L78.3103 69.1336C77.9342 69.2432 77.7213 69.2121 77.6715 69.0405C77.5621 68.6628 77.8834 68.3643 78.6356 68.1452L85.6107 66.1133C86.0176 64.3191 86.4836 62.6009 87.0088 60.9585C87.5339 59.3161 88.1864 57.7296 88.9664 56.1991C89.3486 55.3431 89.7393 54.708 90.1384 54.2938C90.5716 53.8697 91.0297 53.5315 91.5127 53.2791C92.02 52.9824 92.5785 52.6707 93.1884 52.3441C92.1729 54.7251 91.3155 56.9484 90.6164 59.0138C89.9416 61.035 89.35 63.0877 88.8417 65.1721L96.4322 62.9609C96.8425 62.8413 97.0775 62.8846 97.1372 63.0906C97.1671 63.1936 97.0993 63.3437 96.934 63.5408C96.7929 63.6936 96.5343 63.8248 96.1582 63.9344L88.619 66.1306C88.2163 67.8118 87.8728 69.5689 87.5883 71.4018C87.2939 73.2005 86.9929 75.1685 86.6855 77.3061C86.4252 79.0947 86.2682 80.9836 86.2144 82.9728C86.1848 84.9177 86.218 86.6954 86.314 88.3058C86.4099 89.9162 86.5524 91.0476 86.7415 91.7C87.1993 93.2795 87.8556 93.9447 88.7103 93.6957C89.1206 93.5762 89.5738 93.2208 90.0698 92.6295C91.1644 91.4169 92.1123 90.2099 92.9135 89.0084C93.7247 87.8412 94.4696 86.6374 95.1483 85.3971C95.5219 84.767 95.9411 83.9746 96.406 83.02C96.9051 82.0554 97.3992 81.0737 97.8883 80.0748C98.3774 79.0758 98.806 78.1877 99.1739 77.4102L99.7622 76.1777C99.8349 76.0448 99.9054 75.9684 99.9738 75.9484C100.179 75.8887 100.321 75.9961 100.401 76.2708C100.451 76.4425 100.432 76.6341 100.345 76.8457C100.254 77.1702 100.14 77.4825 100.005 77.7826C99.8351 78.0927 99.6875 78.4149 99.562 78.7494C98.6192 80.9975 97.5275 83.3077 96.287 85.6798C95.0464 88.0519 93.7098 90.2845 92.2771 92.3774C91.6698 93.2246 91.0184 94.0474 90.3228 94.8458C89.6273 95.6442 88.7153 96.2077 87.587 96.5364Z" stroke="url(#paint13_linear_529_2)" stroke-width="1.21774"/>
<path d="M106.294 81.4799C105.132 81.8185 104.013 81.6045 102.938 80.8378C101.897 80.0612 101.153 78.9003 100.705 77.3551C100.347 76.119 100.199 74.8403 100.261 73.519C100.333 72.232 100.556 70.9567 100.932 69.6931C101.341 68.4194 101.856 67.1896 102.476 66.0035C103.291 64.4631 104.303 63.0324 105.515 61.7113C106.761 60.3803 107.999 59.5355 109.23 59.1769C110.187 58.8981 110.992 58.9243 111.644 59.2556C112.321 59.5426 112.753 60.0123 112.942 60.6647C113.062 61.0767 113.054 61.563 112.92 62.1233C113.839 61.9674 114.726 61.7649 115.581 61.5159C116.23 61.3267 116.87 61.1031 117.5 60.8452C118.129 60.5872 118.749 60.295 119.359 59.9684L119.564 59.9086C119.838 59.8289 119.994 59.8578 120.034 59.9951C120.074 60.1325 119.955 60.2975 119.677 60.4901C119.375 60.7271 118.851 61.0288 118.104 61.3952C117.357 61.7616 116.572 62.1209 115.747 62.4729C114.912 62.7906 114.152 63.049 113.469 63.2482C113.229 63.3179 113.024 63.3777 112.853 63.4275C112.682 63.4773 112.523 63.5049 112.377 63.5105L111.938 63.9174C112.518 64.3816 112.957 65.1287 113.255 66.1588C113.654 67.5323 113.72 69.0397 113.454 70.6811C113.212 72.2781 112.723 73.8541 111.988 75.4089C111.276 76.9195 110.414 78.2318 109.402 79.3458C108.424 80.4498 107.389 81.1612 106.294 81.4799ZM106.398 80.1093C107.321 79.8404 108.132 79.2502 108.832 78.3388C109.522 77.3931 110.072 76.2835 110.481 75.0099C110.915 73.692 111.192 72.3452 111.313 70.9697C111.457 69.5498 111.446 68.2312 111.279 67.014C111.253 66.798 111.215 66.6042 111.166 66.4325C111.106 66.2265 111.051 66.0376 111.002 65.8659C110.912 65.5569 110.815 65.2872 110.711 65.0568C110.598 64.7921 110.47 64.606 110.327 64.4985C110.259 64.5184 110.202 64.5162 110.158 64.4918C109.728 64.5427 109.391 64.5293 109.146 64.4517C108.935 64.3642 108.685 64.2694 108.396 64.1674C108.209 64.0356 108.081 63.8495 108.012 63.6091C107.942 63.3688 107.973 63.155 108.104 62.9679C108.269 62.7708 108.481 62.6717 108.741 62.6706C109.645 62.5933 110.613 62.4789 111.645 62.3274C111.817 61.6441 111.834 61.062 111.695 60.5813C111.456 59.7572 110.721 59.5245 109.49 59.8831C108.738 60.1022 108.036 60.6231 107.385 61.4459C106.757 62.2244 106.185 63.1917 105.667 64.3479C105.14 65.4697 104.676 66.6846 104.276 67.9926C103.867 69.2662 103.555 70.4928 103.341 71.6723C103.198 72.4586 103.134 73.3895 103.149 74.4649C103.198 75.5304 103.357 76.5267 103.626 77.4538C103.875 78.3122 104.23 79.0278 104.693 79.6005C105.18 80.129 105.748 80.2985 106.398 80.1093Z" stroke="url(#paint14_linear_529_2)" stroke-width="1.21774"/>
<path d="M129.103 74.7798C128.419 74.979 127.858 74.9002 127.421 74.5435C126.984 74.1867 126.656 73.6307 126.437 72.8752C126.178 71.9825 126.041 70.8682 126.024 69.5325C126.032 68.1525 126.104 66.7354 126.238 65.2812C125.979 66.176 125.653 67.1644 125.262 68.2465C124.872 69.3285 124.432 70.3689 123.942 71.3678C123.453 72.3667 122.924 73.2283 122.356 73.9525C121.821 74.6668 121.263 75.1086 120.682 75.2779C119.725 75.5568 118.963 75.4248 118.398 74.882C117.867 74.3292 117.477 73.6236 117.228 72.7652C117.069 72.2158 116.949 71.6736 116.868 71.1386C116.812 70.5593 116.792 70.0438 116.809 69.5919C116.917 67.6614 117.188 65.5903 117.623 63.3786C118.047 61.1326 118.582 58.9475 119.227 56.8233C119.906 54.6892 120.672 52.7904 121.524 51.1271C122.106 50.0639 122.602 49.4726 123.013 49.3531C123.218 49.2933 123.355 49.3836 123.425 49.624C123.494 49.8643 123.474 50.2426 123.364 50.7587C123.289 51.2648 123.096 51.8795 122.786 52.6026C122.54 53.1586 122.266 54.1321 121.964 55.5231C121.653 56.8798 121.34 58.4231 121.026 60.1531C120.702 61.8487 120.411 63.5343 120.156 65.21C119.934 66.8757 119.76 68.3227 119.634 69.551C119.549 70.2831 119.513 70.9266 119.526 71.4815C119.573 72.0264 119.646 72.4706 119.745 72.8139C119.984 73.638 120.377 73.9703 120.924 73.811C121.642 73.6018 122.371 72.6633 123.111 70.9955C123.286 70.5724 123.529 69.9429 123.843 69.1067C124.147 68.2362 124.47 67.3043 124.813 66.3109C125.179 65.2732 125.522 64.2798 125.84 63.3307C126.158 62.3815 126.414 61.5997 126.606 60.985L127.159 58.4781C127.23 58.085 127.493 57.7107 127.946 57.3553C128.423 56.9555 128.884 56.6909 129.329 56.5615C129.636 56.4718 129.835 56.5815 129.924 56.8905C130.034 57.2682 130.063 57.688 130.011 58.1499C129.984 58.5674 129.898 59.0392 129.754 59.5653C129.48 60.5388 129.268 61.6618 129.118 62.9343C128.967 64.2069 128.859 65.4302 128.791 66.6042C128.757 67.7682 128.779 68.6742 128.856 69.3222C128.888 69.9457 128.989 70.5494 129.158 71.1331C129.198 71.2704 129.238 71.4078 129.277 71.5452C129.351 71.6725 129.42 71.7828 129.484 71.8758C129.682 72.3023 129.918 72.4756 130.191 72.396C130.328 72.3561 130.484 72.2548 130.659 72.092C131.302 71.4952 131.9 70.7439 132.453 69.838C132.997 68.8978 133.496 67.9332 133.951 66.9443C134.183 66.467 134.403 66.0118 134.612 65.5788C134.82 65.1458 135.006 64.7006 135.17 64.2432C135.243 64.1103 135.313 64.0339 135.382 64.014C135.587 63.9542 135.729 64.0617 135.809 64.3364C135.869 64.5424 135.85 64.734 135.753 64.9112L134.287 68.2983C134.041 68.8543 133.777 69.4152 133.496 69.9811C133.205 70.5127 132.926 71.0221 132.66 71.5094C132.165 72.361 131.596 73.0852 130.953 73.682C130.301 74.2445 129.684 74.6104 129.103 74.7798Z" stroke="url(#paint15_linear_529_2)" stroke-width="1.21774"/>
<path d="M142.986 79.9512C141.926 80.2599 141.077 80.2094 140.439 79.7994C139.846 79.4139 139.424 78.7919 139.176 77.9334C139.016 77.384 138.93 76.7018 138.916 75.8866C138.851 74.6395 138.945 73.2345 139.196 71.6718C139.492 70.1335 139.782 68.8947 140.066 67.9556C140.297 67.218 140.523 66.4632 140.744 65.6913C140.965 64.9194 141.199 64.1253 141.444 63.3091L142.793 58.5596C143.053 57.6648 143.073 56.8396 142.854 56.0842C142.615 55.2601 142.106 54.7195 141.327 54.4624L140.475 54.208C140.152 54.116 139.902 54.0212 139.725 53.9237L139.351 55.3175L138.961 56.6598C138.532 57.8647 138.029 59.2026 137.455 60.6733C136.88 62.144 136.324 63.5533 135.788 64.901C135.251 66.2488 134.787 67.3336 134.395 68.1553C134.322 68.2882 134.235 68.3696 134.132 68.3995C133.961 68.4493 133.817 68.3983 133.698 68.2465C133.546 68.1047 133.518 67.9452 133.615 67.768C134.511 65.8688 135.345 63.9501 136.118 62.012C136.916 60.0297 137.574 58.0135 138.092 55.9635L138.409 54.7541L138.711 53.4932C138.387 53.4012 138.041 53.1669 137.673 52.7902C137.294 52.3792 137.045 51.9677 136.926 51.5557C136.756 50.972 136.896 50.5589 137.345 50.3164L137.396 50.3015C137.738 50.2019 138.14 50.3083 138.601 50.6207C139.082 51.0018 139.49 51.8326 139.824 53.113C140.824 53.492 141.747 53.67 142.593 53.6469C143.439 53.6239 144.146 53.6971 144.714 53.8667C145.307 53.992 145.722 54.4667 145.961 55.2908C146.001 55.4281 146.029 55.5876 146.044 55.7693C146.094 55.941 146.127 56.1176 146.142 56.2993C146.21 57.1732 146.059 58.3156 145.69 59.7265C145.354 61.1275 144.943 62.5878 144.456 64.1072C143.96 65.5924 143.538 66.8881 143.192 67.9945C142.865 69.1696 142.529 70.4404 142.183 71.8071C141.848 73.2081 141.612 74.5055 141.476 75.6994C141.374 76.8834 141.481 77.7645 141.797 78.3427C141.999 78.6562 142.288 78.7582 142.664 78.6486C143.211 78.4892 143.813 78.0718 144.47 77.3964C145.351 76.4695 146.132 75.5161 146.812 74.5361C147.501 73.5904 148.186 72.4973 148.865 71.257C149.228 70.5926 149.669 69.6822 150.186 68.5261C150.748 67.3943 151.324 66.1838 151.915 64.8947C152.495 63.5713 153.037 62.3709 153.541 61.2933C153.729 60.7916 153.952 60.28 154.208 59.7584L154.906 58.3265C154.978 58.1936 155.049 58.1171 155.117 58.0972C155.322 58.0375 155.465 58.1449 155.544 58.4196C155.574 58.5226 155.538 58.7192 155.437 59.0094C155.235 59.5897 154.986 60.2021 154.69 60.8467C154.429 61.4812 154.176 62.0765 153.929 62.6324C153.338 63.9215 152.685 65.3778 151.969 67.0014C151.278 68.5806 150.564 70.1476 149.828 71.7025C149.126 73.2474 148.409 74.6106 147.676 75.7922C147.089 76.7081 146.442 77.548 145.737 78.3121C145.031 79.0761 144.114 79.6225 142.986 79.9512Z" stroke="url(#paint16_linear_529_2)" stroke-width="1.21774"/>
<defs>
<linearGradient id="paint0_linear_529_2" x1="55.1969" y1="38.7772" x2="78.632" y2="92.7599" gradientUnits="userSpaceOnUse">
<stop stop-color="#FF7A00"/>
<stop offset="0.0001" stop-color="#FF7A00"/>
<stop offset="1" stop-color="#D65A00"/>
</linearGradient>
<linearGradient id="paint1_linear_529_2" x1="55.1969" y1="38.7772" x2="78.632" y2="92.7599" gradientUnits="userSpaceOnUse">
<stop stop-color="#FF7A00"/>
<stop offset="0.0001" stop-color="#FF7A00"/>
<stop offset="1" stop-color="#D65A00"/>
</linearGradient>
<linearGradient id="paint2_linear_529_2" x1="112.188" y1="17.1019" x2="111.231" y2="29.1513" gradientUnits="userSpaceOnUse">
<stop stop-color="#FF9900"/>
<stop offset="1" stop-color="#FF7A00"/>
</linearGradient>
<linearGradient id="paint3_linear_529_2" x1="132.378" y1="10.4654" x2="6.55952" y2="71.5474" gradientUnits="userSpaceOnUse">
<stop stop-color="white"/>
<stop offset="1" stop-color="white"/>
</linearGradient>
<linearGradient id="paint4_linear_529_2" x1="132.378" y1="10.4654" x2="6.55952" y2="71.5474" gradientUnits="userSpaceOnUse">
<stop stop-color="white"/>
<stop offset="1" stop-color="white"/>
</linearGradient>
<linearGradient id="paint5_linear_529_2" x1="132.378" y1="10.4654" x2="6.55952" y2="71.5474" gradientUnits="userSpaceOnUse">
<stop stop-color="white"/>
<stop offset="1" stop-color="white"/>
</linearGradient>
<linearGradient id="paint6_linear_529_2" x1="132.378" y1="10.4654" x2="6.55952" y2="71.5474" gradientUnits="userSpaceOnUse">
<stop stop-color="white"/>
<stop offset="1" stop-color="white"/>
</linearGradient>
<linearGradient id="paint7_linear_529_2" x1="132.378" y1="10.4654" x2="6.55952" y2="71.5474" gradientUnits="userSpaceOnUse">
<stop stop-color="white"/>
<stop offset="1" stop-color="white"/>
</linearGradient>
<linearGradient id="paint8_linear_529_2" x1="132.378" y1="10.4654" x2="6.55952" y2="71.5474" gradientUnits="userSpaceOnUse">
<stop stop-color="white"/>
<stop offset="1" stop-color="white"/>
</linearGradient>
<linearGradient id="paint9_linear_529_2" x1="132.378" y1="10.4654" x2="6.55952" y2="71.5474" gradientUnits="userSpaceOnUse">
<stop stop-color="white"/>
<stop offset="1" stop-color="white"/>
</linearGradient>
<linearGradient id="paint10_linear_529_2" x1="132.378" y1="10.4654" x2="6.55952" y2="71.5474" gradientUnits="userSpaceOnUse">
<stop stop-color="white"/>
<stop offset="1" stop-color="white"/>
</linearGradient>
<linearGradient id="paint11_linear_529_2" x1="132.378" y1="10.4654" x2="6.55952" y2="71.5474" gradientUnits="userSpaceOnUse">
<stop stop-color="white"/>
<stop offset="1" stop-color="white"/>
</linearGradient>
<linearGradient id="paint12_linear_529_2" x1="132.378" y1="10.4654" x2="6.55952" y2="71.5474" gradientUnits="userSpaceOnUse">
<stop stop-color="white"/>
<stop offset="1" stop-color="white"/>
</linearGradient>
<linearGradient id="paint13_linear_529_2" x1="132.378" y1="10.4654" x2="6.55952" y2="71.5474" gradientUnits="userSpaceOnUse">
<stop stop-color="white"/>
<stop offset="1" stop-color="white"/>
</linearGradient>
<linearGradient id="paint14_linear_529_2" x1="132.378" y1="10.4654" x2="6.55952" y2="71.5474" gradientUnits="userSpaceOnUse">
<stop stop-color="white"/>
<stop offset="1" stop-color="white"/>
</linearGradient>
<linearGradient id="paint15_linear_529_2" x1="132.378" y1="10.4654" x2="6.55952" y2="71.5474" gradientUnits="userSpaceOnUse">
<stop stop-color="white"/>
<stop offset="1" stop-color="white"/>
</linearGradient>
<linearGradient id="paint16_linear_529_2" x1="132.378" y1="10.4654" x2="6.55952" y2="71.5474" gradientUnits="userSpaceOnUse">
<stop stop-color="white"/>
<stop offset="1" stop-color="white"/>
</linearGradient>
</defs>
</svg>
