<svg width="121" height="77" viewBox="0 0 121 77" fill="none" xmlns="http://www.w3.org/2000/svg">
<g clip-path="url(#clip0_1_188)">
<path d="M77.74 22.0315C72.1107 23.9537 66.2625 27.9936 62.4872 31.2545C60.5991 32.8852 60.4276 34.5153 61.1144 35.0302C61.8013 35.5451 64.0315 33.8289 64.7182 33.314L78.4268 22.8896C78.7697 22.5463 78.4268 21.7969 77.74 22.0315Z" fill="url(#paint0_linear_1_188)"/>
<path d="M42.9219 44.2977C29.192 50.1329 18.0173 60.9896 14.242 64.2505C13.0402 65.4518 13.727 66.6324 14.2419 67.1681C15.193 68.1576 17.3308 66.8819 18.3606 65.9666L44.1045 45.5435C44.4474 45.2001 45.4962 43.2038 42.9219 44.2977Z" fill="url(#paint1_linear_1_188)"/>
<path fill-rule="evenodd" clip-rule="evenodd" d="M84.0037 11.2016L83.6271 11.4037L84.4443 11.7291L84.5678 11.6606C84.7149 11.5791 84.8121 11.4361 84.8108 11.3031C84.8098 11.1962 84.7708 11.1344 84.653 11.0529C84.5201 10.9609 84.4016 10.988 84.0037 11.2016ZM81.0197 11.1432C80.6572 11.2206 80.4918 11.3477 80.5429 11.5095C80.5536 11.5435 80.7021 11.6835 80.8728 11.8206C81.1865 12.0727 81.7342 12.5404 81.9984 12.7818C83.0675 13.759 84.1341 14.8165 84.9356 15.6941C85.2238 16.0096 85.4591 16.2402 85.5048 16.2517C85.5675 16.2675 85.8728 16.0963 87.0778 15.3695C87.9001 14.8735 88.5971 14.4408 88.6268 14.4079C88.6892 14.3386 88.6955 14.2445 88.645 14.1332C88.6172 14.072 88.4535 13.9839 87.9016 13.7334C87.5124 13.5567 86.9205 13.303 86.5864 13.1696C86.2523 13.0362 85.7128 12.8172 85.3875 12.6828C85.0621 12.5484 84.6089 12.3614 84.3803 12.2671C84.1517 12.1729 83.5403 11.9197 83.0215 11.7045C81.5083 11.0769 81.4311 11.0553 81.0197 11.1432ZM86.8956 12.4461C86.7315 12.5357 86.602 12.6137 86.6078 12.6195C86.6551 12.6668 87.3877 12.9231 87.4337 12.9084C87.5763 12.863 87.6575 12.7624 87.6575 12.6311C87.6575 12.4695 87.6165 12.3923 87.4983 12.3309C87.3393 12.2483 87.2144 12.2722 86.8956 12.4461ZM93.6227 12.4488C93.3011 12.4795 92.7935 12.6066 92.4458 12.7437C92.2973 12.8022 91.8462 13.0501 91.4434 13.2945C91.0405 13.5389 90.0203 14.1574 89.1762 14.6689C88.3321 15.1804 87.5192 15.6732 87.3698 15.7641C87.2203 15.855 86.7023 16.1686 86.2187 16.4609C82.7941 18.5312 82.5532 18.681 82.388 18.8425C82.2249 19.0019 81.9515 19.3734 81.9777 19.3998C81.9847 19.4068 82.082 19.3586 82.1938 19.2928C82.7442 18.9689 83.3259 19.276 83.2699 19.861C83.2462 20.1089 83.1222 20.2636 82.8131 20.4309L82.5579 20.5691L82.8936 20.5536C83.0783 20.5452 83.3085 20.5142 83.4052 20.4849C83.5599 20.438 85.3118 19.5611 88.9204 17.7244C89.5183 17.4201 90.8132 16.7624 91.7979 16.2628C92.7827 15.7633 93.6947 15.2814 93.8247 15.1919C93.9546 15.1024 94.1859 14.906 94.3386 14.7554C94.9871 14.1157 95.3387 13.431 95.2533 12.9739C95.2223 12.8081 95.0411 12.6193 94.8407 12.544C94.5098 12.4197 94.191 12.3948 93.6227 12.4488ZM93.5347 13.3303C93.801 13.5145 93.9005 13.6958 93.9167 14.0261C93.9313 14.3252 93.9052 14.3841 93.7366 14.4324C93.6402 14.46 93.6195 14.4536 93.5368 14.3705C93.4655 14.2989 93.4445 14.2483 93.4445 14.1481C93.4445 13.9241 93.3612 13.8007 93.1376 13.6935C93.0288 13.6413 92.9311 13.5759 92.9204 13.5479C92.8804 13.4434 92.9035 13.3364 92.9834 13.2562C93.1011 13.138 93.2943 13.1639 93.5347 13.3303ZM79.6871 17.3418C79.5213 17.4285 79.4535 17.5313 79.4834 17.651C79.4939 17.6927 79.6935 17.9514 79.9271 18.2258C80.1607 18.5001 80.5008 18.9006 80.6829 19.1156C80.8939 19.3649 81.0438 19.5142 81.0963 19.5274C81.2209 19.5588 81.3223 19.4817 81.462 19.2493C81.531 19.1346 81.6655 18.9379 81.7609 18.8123C81.9495 18.5641 81.9668 18.4967 81.8725 18.3763C81.8205 18.3099 81.2554 17.9772 80.3518 17.4811C80.2463 17.4232 80.1168 17.3495 80.064 17.3174C79.9385 17.241 79.8718 17.2453 79.6871 17.3418ZM89.0003 18.2586C88.1651 18.6842 87.4493 19.0621 87.4097 19.0983C87.3211 19.1795 87.319 19.2778 87.4005 19.5429C87.8742 21.0851 88.4569 23.786 88.6974 25.5542C88.7259 25.7639 88.7621 25.9694 88.7778 26.0108C88.8768 26.2725 89.3663 25.9596 89.5963 25.4876C89.6852 25.3051 89.7323 25.0475 90.0232 23.1502C90.1993 22.0025 90.4121 20.6462 90.5497 19.7951C90.6735 19.0295 90.8228 17.8972 90.8228 17.7239C90.8228 17.5871 90.7293 17.4833 90.607 17.4842C90.5565 17.4846 89.8715 17.8148 89.0003 18.2586ZM91.2503 19.3264C91.1562 19.3687 91.1473 19.3882 91.0992 19.6555C91.0179 20.1077 91.0049 20.2125 91.03 20.2125C91.0841 20.2125 91.5929 19.8823 91.6375 19.8183C91.7146 19.7079 91.7007 19.467 91.6126 19.3839C91.5163 19.293 91.3746 19.2706 91.2503 19.3264ZM82.4593 19.6802C82.4236 19.7053 82.05 19.9236 81.6289 20.1653C81.2079 20.407 80.8363 20.6308 80.8032 20.6626C80.7294 20.7335 80.7538 20.873 80.8451 20.902C80.888 20.9157 81.1742 20.7704 81.7962 20.419C82.2855 20.1425 82.7038 19.9018 82.7258 19.8839C82.7765 19.8427 82.7774 19.7234 82.7274 19.6731C82.6753 19.6209 82.5385 19.6245 82.4593 19.6802ZM82.7068 21.0775C82.3078 21.0943 82.2763 21.1003 82.2192 21.1712C82.1857 21.2129 82.1582 21.2756 82.1582 21.3105C82.1582 21.3454 82.3321 21.9072 82.5445 22.5591C82.9469 23.7936 82.9688 23.8405 83.1418 23.8405C83.2316 23.8405 83.4404 23.7372 83.5025 23.6622C83.5398 23.6171 83.5461 23.4078 83.5391 22.4478C83.534 21.7504 83.5175 21.2545 83.4977 21.2039C83.4598 21.107 83.3445 21.0445 83.2198 21.0534C83.1723 21.0569 82.9414 21.0677 82.7068 21.0775ZM90.7347 22.4656C90.6209 22.5362 90.6221 22.533 90.5501 22.9736C90.5227 23.1414 90.4923 23.3052 90.4826 23.3377C90.4575 23.4215 90.5039 23.4037 90.8749 23.187C91.0677 23.0744 91.2177 22.9632 91.2494 22.9092C91.3906 22.6691 91.2436 22.3932 90.9771 22.3984C90.8984 22.3999 90.7939 22.4289 90.7347 22.4656Z" fill="url(#paint2_linear_1_188)"/>
<g filter="url(#filter0_d_1_188)">
<path d="M15.8066 52.8827C15.13 52.9998 14.5333 52.7547 14.0163 52.1474C13.4994 51.54 13.0714 50.8064 12.7325 49.9465C12.4243 49.0812 12.217 48.3411 12.1105 47.726C11.9667 46.8956 11.8791 46.0239 11.8477 45.1107C11.8163 44.1975 11.8411 43.243 11.922 42.247C12.0532 40.2604 12.3148 38.2037 12.7067 36.0769C13.1295 33.9448 13.6572 31.7786 14.2899 29.5785C14.5808 28.5145 14.8797 27.4966 15.1866 26.5249C15.5242 25.5478 15.8672 24.6015 16.2155 23.686C16.876 21.8294 17.5149 20.2142 18.1323 18.8403C18.775 17.4303 19.32 16.3698 19.7671 15.6589C19.8688 15.5146 19.9578 15.3883 20.0341 15.2801C20.1358 15.1357 20.2428 15.0222 20.3552 14.9394C19.6892 15.118 18.9725 15.3688 18.2048 15.6918C15.8764 16.6968 13.6734 18.0602 11.5959 19.782C10.5444 20.6609 9.66261 21.6055 8.9506 22.6157C7.31249 24.8632 6.67448 27.0326 7.03657 29.1239C7.08982 29.4314 7.17648 29.749 7.29657 30.0766C7.4474 30.3989 7.76678 30.5971 8.25472 30.6709L8.30884 30.7091C8.47325 30.744 8.57144 30.8537 8.60339 31.0382C8.64599 31.2842 8.51352 31.4339 8.20598 31.4871C7.86769 31.5457 7.35432 31.5079 6.66589 31.3737C6.00289 31.2034 5.36206 30.8867 4.7434 30.4237C4.15549 29.9553 3.78698 29.2906 3.63789 28.4294C3.39295 27.0148 3.57709 25.7 4.19032 24.4852C5.35115 22.2253 7.40622 20.1906 10.3556 18.3812C11.0203 18.0127 11.6723 17.6623 12.3116 17.3299C12.9456 16.9667 13.5695 16.6369 14.1834 16.3406C15.2066 15.8467 16.2096 15.4196 17.1925 15.0593C18.1755 14.6991 18.8642 14.469 19.2586 14.369C19.8016 14.2117 20.3445 14.0543 20.8874 13.897C21.4557 13.7035 22.0475 13.5536 22.6625 13.4471C24.3848 13.1489 25.3071 13.3534 25.4296 14.0608C25.5201 14.5836 25.2395 15.2499 24.5878 16.0596C24.1703 16.5753 23.6931 17.3865 23.1561 18.4931C22.6138 19.5689 22.0394 20.8246 21.4326 22.26C20.8567 23.6901 20.2787 25.1998 19.6986 26.789L18.0807 31.4403C17.5823 32.9521 17.142 34.3428 16.7601 35.6127C16.3781 36.8825 16.0972 37.9131 15.9175 38.7044C15.6479 39.8914 15.443 41.1781 15.3029 42.5644C15.1629 43.9507 15.071 45.2495 15.0273 46.4607C15.0144 47.6667 15.0638 48.5925 15.1756 49.2384C15.3833 50.4378 15.6255 51.0135 15.9023 50.9656C16.0868 50.9336 16.2722 50.6323 16.4585 50.0615C16.9516 48.5191 17.6535 46.7187 18.5642 44.6605C19.5003 42.5662 20.5561 40.3403 21.7318 37.9828C22.9381 35.6199 24.2287 33.195 25.6036 30.708C26.9786 28.2209 28.3514 25.8134 29.7222 23.4855C35.6257 13.309 42.3951 6.57782 50.0302 3.29194C50.9208 2.94767 51.7352 2.71164 52.4733 2.58384C53.3037 2.44007 53.9809 2.41785 54.5049 2.51717C55.0235 2.58574 55.2962 2.69691 55.3228 2.85068C55.3814 3.18898 54.7495 3.47261 53.4271 3.70158C52.3507 3.88795 51.2093 4.33898 50.0028 5.05469C47.5899 6.4861 44.9945 8.69348 42.2168 11.6768C41.5491 12.3943 40.8995 13.1244 40.2679 13.8673C39.631 14.5794 39.002 15.3377 38.3811 16.1421C37.1031 17.7254 35.9174 19.2927 34.8239 20.8441C33.7613 22.3902 32.829 23.8662 32.0271 25.272C30.5907 27.7697 29.1543 30.2674 27.7178 32.7651C26.3122 35.2575 24.9955 37.6236 23.7679 39.8634C22.5656 42.0671 21.4879 44.0751 20.5346 45.8873C19.6121 47.6941 18.9285 49.1429 18.4838 50.2335C17.8369 51.8026 16.9445 52.6857 15.8066 52.8827Z" fill="url(#paint3_linear_1_188)"/>
<path d="M40.765 21.811C40.3652 21.8803 40.0056 21.8158 39.6862 21.6177C39.3615 21.3889 39.1646 21.0745 39.0954 20.6747C39.0048 20.1519 39.1121 19.674 39.4173 19.2411C39.7224 18.8081 40.121 18.5491 40.6131 18.4639C41.1052 18.3787 41.5035 18.4839 41.8081 18.7796C42.1435 19.07 42.3203 19.4511 42.3387 19.9231C42.2956 20.4057 42.1315 20.8301 41.8464 21.1962C41.556 21.5315 41.1956 21.7365 40.765 21.811ZM36.7823 43.2642C35.9212 43.4132 35.212 43.2509 34.6549 42.7772C34.1232 42.2675 33.7694 41.5051 33.5937 40.4903C33.5138 40.029 33.4721 39.5135 33.4685 38.944C33.4797 38.2769 33.5772 37.4681 33.7611 36.5176C33.9704 35.5311 34.2259 34.5366 34.5274 33.5341C34.829 32.5316 35.1084 31.6755 35.3656 30.9658C35.6027 30.3229 35.8854 29.5771 36.2136 28.7284C36.5672 27.8436 36.8498 27.0978 37.0615 26.491C37.2383 26.0486 37.3649 25.7732 37.4412 25.665C37.5819 25.1972 37.9231 24.7897 38.4648 24.4425C39.0012 24.0645 39.5155 23.8329 40.0075 23.7477C40.6534 23.6359 41.0109 23.7799 41.0801 24.1797C41.1121 24.3642 41.0597 24.6108 40.9231 24.9196C40.5039 25.9741 40.0036 27.2011 39.4223 28.6004C38.8665 29.9637 38.334 31.3704 37.8249 32.8207C37.3158 34.2709 36.919 35.6383 36.6346 36.9229C36.3756 38.1714 36.318 39.2108 36.4618 40.0412C36.6109 40.9023 37.0084 41.2769 37.6542 41.1651C38.0848 41.0906 38.5676 40.7694 39.1028 40.2016C39.638 39.6338 40.1472 39.0071 40.6304 38.3216C41.1135 37.6361 41.4796 37.0976 41.7285 36.7061L42.4834 35.5776C42.6106 35.3972 42.7223 35.2195 42.8187 35.0444C42.9098 34.8386 43.0035 34.6481 43.0999 34.4731C43.1656 34.3033 43.2753 34.2051 43.429 34.1785C43.7981 34.1146 44.0199 34.2979 44.0944 34.7285C44.1317 34.9438 44.0868 35.1416 43.9596 35.322C43.6959 35.8111 43.4295 36.2849 43.1604 36.7432C42.8913 37.2016 42.6069 37.6627 42.3071 38.1264C41.8907 38.832 41.4156 39.5636 40.8816 40.3212C40.3422 41.0481 39.7408 41.6908 39.0772 42.2491C38.4084 42.7767 37.6434 43.1151 36.7823 43.2642Z" fill="url(#paint4_linear_1_188)"/>
<path d="M51.2847 62.1818C49.624 62.4694 48.5833 61.3984 48.1627 58.9688C48.0615 58.3845 47.9958 57.7307 47.9656 57.0074C47.9354 56.284 47.9561 55.4886 48.0276 54.6209C48.1493 52.7627 48.4543 50.6826 48.9427 48.3807C49.4618 46.0735 50.0578 43.753 50.7307 41.4192C51.0015 40.4221 51.3205 39.3374 51.6877 38.1651C52.0496 36.9621 52.3987 35.7772 52.7352 34.6103C53.1828 33.1707 53.5722 31.8521 53.9033 30.6545C53.2085 31.9468 52.4775 33.2136 51.7105 34.4551C50.9435 35.6966 50.1165 36.7742 49.2294 37.688C48.3678 38.5657 47.4449 39.0898 46.4607 39.2602C45.379 39.4158 44.5776 39.2695 44.0566 38.8212C43.5302 38.3422 43.2004 37.7183 43.0673 36.9494C42.9129 36.0576 42.9477 35.0696 43.1718 33.9855C43.3959 32.9014 43.672 31.935 44.0002 31.0862C44.5815 29.6869 45.3372 28.289 46.2674 26.8926C47.2231 25.4601 48.2775 24.2322 49.4307 23.209C50.6147 22.1804 51.8218 21.5596 53.0519 21.3466C54.4358 21.107 55.6684 21.2737 56.7496 21.8467C57.2398 20.6532 57.7016 19.8447 58.1351 19.4212C58.5633 18.967 59.0541 18.6919 59.6077 18.5961C59.8537 18.5535 60.1024 18.5262 60.3538 18.5144C60.6359 18.4972 60.9361 18.4928 61.2542 18.501L61.4565 18.8461C60.8581 19.9634 60.3439 21.0185 59.914 22.0115C59.4841 23.0046 58.9939 24.1981 58.4434 25.5921C58.3576 25.8287 58.2438 26.086 58.1019 26.364C57.9907 26.6366 57.8822 26.9247 57.7763 27.2281C57.6906 27.4646 57.5097 28.0661 57.2335 29.0325C56.9521 29.9682 56.6786 30.95 56.4131 31.9779C56.0365 33.2785 55.6122 34.7615 55.1403 36.427C54.6993 38.0872 54.2762 39.76 53.8712 41.4456C54.6702 42.0358 55.3173 42.9374 55.8124 44.1504C56.0206 44.6212 56.1854 45.1153 56.3067 45.6328C56.4587 46.145 56.5853 46.6932 56.6865 47.2775C56.8356 48.1386 56.9258 49.0258 56.9572 49.9389C56.9886 50.8521 56.9612 51.7913 56.8749 52.7565C56.7874 53.5319 56.6638 54.2818 56.5042 55.0063C56.3806 55.7562 56.203 56.468 55.9712 57.1417C54.9689 60.1344 53.4068 61.8144 51.2847 62.1818ZM46.5582 37.6279C47.0195 37.548 47.6603 37.0411 48.4806 36.1072C52.0265 32.0722 54.5679 27.8153 56.1047 23.3363C55.6853 22.7437 55.1527 22.5033 54.5069 22.6151C53.7688 22.7429 52.9536 23.2484 52.0612 24.1314C51.1942 24.9784 50.3973 25.9558 49.6705 27.0636C48.8367 28.2849 48.0984 29.6006 47.4556 31.0106C46.8128 32.4206 46.372 33.7165 46.1331 34.8982C45.9132 35.8232 45.8458 36.5317 45.931 37.0238C46.0109 37.4851 46.2199 37.6864 46.5582 37.6279ZM51.5765 60.8484C52.1301 60.7526 52.6378 60.3004 53.0997 59.4919C54.0287 57.9056 54.614 55.5236 54.8557 52.3459C54.9178 51.6066 54.9491 50.8726 54.9496 50.144C54.9862 49.4408 54.9767 48.7456 54.9211 48.0583C54.9081 47.6171 54.8669 47.1966 54.7977 46.7968C54.7338 46.4278 54.6726 46.0741 54.614 45.7358C54.3531 44.2289 54.0156 43.1945 53.6016 42.6327C53.0357 44.8529 52.516 47.0652 52.0424 49.2695C51.5741 51.5045 51.2224 53.4976 50.9871 55.2489C50.7341 57.4466 50.6822 58.976 50.8313 59.8372C50.9591 60.5752 51.2075 60.9123 51.5765 60.8484Z" fill="url(#paint5_linear_1_188)"/>
<path d="M66.6544 73.5317C66.16 73.6757 65.6701 73.5918 65.1847 73.2798C64.6992 72.9678 64.3278 72.3676 64.0703 71.4792C63.9264 70.9827 63.8307 70.458 63.7833 69.9051C63.7597 69.6286 63.7161 69.0887 63.6526 68.2855C63.5891 67.4822 63.5478 66.6583 63.5287 65.8137C63.4827 64.7787 63.4899 63.5865 63.5503 62.237C63.6031 60.8615 63.728 59.3941 63.9251 57.8348C64.0493 56.6085 64.2055 55.4437 64.3937 54.3404C64.5818 53.2372 64.7776 52.16 64.9809 51.109L59.5948 52.678C59.3085 52.7614 59.1465 52.7378 59.1086 52.6071C59.0253 52.3197 59.2699 52.0926 59.8423 51.9259L65.1504 50.3796C65.4601 49.0142 65.8147 47.7066 66.2143 46.4567C66.6139 45.2068 67.1105 43.9995 67.7041 42.8348C67.995 42.1833 68.2923 41.7 68.596 41.3849C68.9257 41.0621 69.2743 40.8047 69.6419 40.6126C70.0279 40.3868 70.453 40.1497 70.9171 39.9011C70.1443 41.7131 69.4918 43.405 68.9598 44.9768C68.4462 46.5149 67.996 48.0771 67.6092 49.6633L73.3856 47.9805C73.6979 47.8896 73.8767 47.9225 73.9221 48.0793C73.9449 48.1577 73.8933 48.2719 73.7675 48.4219C73.6601 48.5382 73.4633 48.638 73.1771 48.7214L67.4397 50.3927C67.1333 51.6721 66.8719 53.0093 66.6554 54.4042C66.4313 55.7729 66.2023 57.2706 65.9683 58.8973C65.7703 60.2585 65.6508 61.696 65.6098 63.2098C65.5873 64.6898 65.6126 66.0426 65.6856 67.2682C65.7586 68.4937 65.8671 69.3547 66.011 69.8512C66.3593 71.0532 66.8588 71.5595 67.5092 71.37C67.8215 71.279 68.1663 71.0085 68.5438 70.5585C69.3768 69.6358 70.0982 68.7172 70.7079 67.8028C71.3252 66.9146 71.8921 65.9985 72.4086 65.0547C72.6929 64.5751 73.0119 63.9721 73.3657 63.2457C73.7455 62.5116 74.1215 61.7645 74.4937 61.0043C74.866 60.2441 75.1921 59.5682 75.4721 58.9766L75.9198 58.0386C75.9751 57.9375 76.0288 57.8793 76.0808 57.8642C76.2369 57.8187 76.3453 57.9005 76.4059 58.1095C76.4437 58.2402 76.4296 58.386 76.3633 58.547C76.2938 58.7939 76.2075 59.0316 76.1044 59.26C75.9753 59.4959 75.863 59.7412 75.7674 59.9957C75.05 61.7066 74.2192 63.4646 73.2751 65.2698C72.331 67.075 71.3139 68.774 70.2236 70.3667C69.7614 71.0114 69.2657 71.6376 68.7364 72.2451C68.207 72.8527 67.5131 73.2816 66.6544 73.5317Z" fill="url(#paint6_linear_1_188)"/>
<path d="M80.8908 62.0736C80.0061 62.3313 79.1548 62.1685 78.3367 61.585C77.5446 60.994 76.9782 60.1105 76.6374 58.9347C76.3648 57.994 76.252 57.0209 76.2992 56.0153C76.354 55.0359 76.5242 54.0654 76.8098 53.1038C77.1214 52.1345 77.5133 51.1986 77.9853 50.296C78.6049 49.1237 79.3757 48.0349 80.2977 47.0296C81.2456 46.0167 82.188 45.3738 83.1247 45.1009C83.8532 44.8887 84.4657 44.9086 84.962 45.1608C85.4768 45.3792 85.8061 45.7367 85.95 46.2331C86.0408 46.5467 86.0352 46.9167 85.9331 47.3432C86.6323 47.2245 87.3072 47.0704 87.9577 46.8809C88.4521 46.7369 88.9389 46.5667 89.4181 46.3705C89.8973 46.1742 90.369 45.9518 90.8331 45.7032L90.9892 45.6578C91.1973 45.5971 91.3166 45.6191 91.3469 45.7236C91.3772 45.8281 91.2866 45.9537 91.0751 46.1003C90.8452 46.2806 90.4462 46.5102 89.878 46.7891C89.3099 47.0679 88.7119 47.3413 88.0841 47.6092C87.4488 47.8509 86.8709 48.0476 86.3505 48.1992C86.1683 48.2523 86.0122 48.2977 85.8821 48.3356C85.752 48.3735 85.6312 48.3946 85.5195 48.3988L85.186 48.7085C85.627 49.0617 85.9611 49.6303 86.1883 50.4142C86.4912 51.4594 86.5415 52.6066 86.3392 53.8557C86.1553 55.071 85.7834 56.2703 85.2234 57.4536C84.6818 58.6031 84.026 59.6018 83.2559 60.4495C82.5118 61.2897 81.7234 61.8311 80.8908 62.0736ZM80.9695 61.0306C81.672 60.8259 82.2896 60.3768 82.8222 59.6833C83.3472 58.9636 83.7656 58.1191 84.0772 57.1499C84.4073 56.147 84.6182 55.1221 84.7098 54.0753C84.8199 52.9948 84.8113 51.9913 84.6839 51.065C84.6645 50.9006 84.6358 50.7531 84.598 50.6225C84.5525 50.4657 84.5109 50.322 84.473 50.1913C84.4048 49.9561 84.3313 49.7509 84.2522 49.5755C84.1656 49.3741 84.0681 49.2325 83.9598 49.1507C83.9077 49.1658 83.8649 49.1641 83.8313 49.1456C83.5039 49.1843 83.247 49.1741 83.0606 49.1151C82.9002 49.0484 82.71 48.9763 82.49 48.8987C82.3481 48.7984 82.2506 48.6568 82.1976 48.4739C82.1446 48.291 82.168 48.1283 82.2678 47.9859C82.3936 47.8359 82.5552 47.7605 82.7525 47.7597C83.4408 47.7008 84.1774 47.6138 84.9623 47.4985C85.0938 46.9784 85.1065 46.5355 85.0005 46.1697C84.8187 45.5426 84.2595 45.3654 83.3227 45.6383C82.7503 45.8051 82.2162 46.2015 81.7205 46.8276C81.2432 47.4201 80.8076 48.1562 80.4136 49.0361C80.012 49.8898 79.6592 50.8144 79.3552 51.8097C79.0435 52.7789 78.8061 53.7123 78.643 54.61C78.5343 55.2084 78.4857 55.9168 78.4971 56.7352C78.5346 57.5461 78.6556 58.3042 78.8601 59.0098C79.0494 59.663 79.3201 60.2076 79.6721 60.6434C80.0426 61.0456 80.4751 61.1746 80.9695 61.0306Z" fill="url(#paint7_linear_1_188)"/>
<path d="M98.248 56.9748C97.7276 57.1264 97.3011 57.0664 96.9684 56.795C96.6358 56.5235 96.3862 56.1003 96.2196 55.5254C96.0227 54.846 95.918 53.9981 95.9056 52.9816C95.9116 51.9314 95.9658 50.853 96.0683 49.7463C95.8707 50.4273 95.6231 51.1795 95.3256 52.0029C95.0282 52.8263 94.6933 53.6181 94.3211 54.3783C93.9488 55.1385 93.5463 55.7941 93.1135 56.3453C92.7067 56.8888 92.2821 57.225 91.8398 57.3539C91.1113 57.5661 90.5319 57.4657 90.1018 57.0526C89.6977 56.6319 89.401 56.0949 89.2117 55.4417C89.0905 55.0236 88.9992 54.611 88.9376 54.2038C88.8945 53.763 88.8795 53.3707 88.8927 53.0268C88.9748 51.5577 89.1811 49.9816 89.5116 48.2984C89.8345 46.5892 90.2414 44.9263 90.7323 43.3098C91.2492 41.6857 91.8321 40.2408 92.481 38.9749C92.9237 38.1659 93.3012 37.7159 93.6134 37.6249C93.7696 37.5794 93.8741 37.6482 93.9271 37.8311C93.9801 38.014 93.9648 38.3018 93.8811 38.6946C93.8235 39.0798 93.6768 39.5475 93.4413 40.0978C93.2535 40.5209 93.045 41.2617 92.8157 42.3203C92.5788 43.3528 92.3408 44.5273 92.1015 45.8438C91.8548 47.1341 91.634 48.4169 91.4392 49.6921C91.2705 50.9598 91.1382 52.0609 91.0423 52.9957C90.978 53.5528 90.9506 54.0425 90.9602 54.4648C90.9957 54.8795 91.0513 55.2175 91.1271 55.4788C91.3088 56.1059 91.6078 56.3588 92.0242 56.2375C92.5706 56.0784 93.1254 55.3642 93.6887 54.0949C93.8212 53.773 94.0068 53.2939 94.2456 52.6576C94.4769 51.9951 94.7228 51.2859 94.9834 50.5299C95.2624 49.7402 95.523 48.9842 95.7651 48.2619C96.0073 47.5397 96.2016 46.9446 96.3482 46.4769L96.7688 44.5692C96.8232 44.27 97.0228 43.9851 97.3676 43.7146C97.7309 43.4104 98.0817 43.2091 98.42 43.1105C98.6541 43.0423 98.8053 43.1258 98.8735 43.361C98.9568 43.6484 98.9788 43.9679 98.9396 44.3193C98.9188 44.6371 98.8536 44.9961 98.7439 45.3965C98.5353 46.1373 98.3739 46.9919 98.2595 47.9603C98.1452 48.9288 98.0623 49.8597 98.0108 50.7531C97.9854 51.639 98.0018 52.3284 98.0601 52.8215C98.0847 53.2961 98.1614 53.7554 98.2902 54.1997C98.3205 54.3042 98.3508 54.4087 98.381 54.5132C98.4374 54.6102 98.4899 54.694 98.5386 54.7649C98.6891 55.0894 98.8684 55.2213 99.0766 55.1607C99.1807 55.1304 99.2994 55.0533 99.4328 54.9294C99.922 54.4752 100.377 53.9034 100.798 53.2141C101.211 52.4986 101.591 51.7645 101.937 51.0119C102.114 50.6487 102.282 50.3023 102.44 49.9728C102.599 49.6433 102.741 49.3045 102.865 48.9564C102.921 48.8553 102.974 48.7971 103.026 48.782C103.183 48.7365 103.291 48.8183 103.351 49.0273C103.397 49.1841 103.383 49.3299 103.309 49.4647L102.194 52.0424C102.006 52.4655 101.805 52.8923 101.591 53.323C101.37 53.7275 101.158 54.1152 100.955 54.486C100.578 55.1341 100.146 55.6852 99.6565 56.1394C99.1598 56.5675 98.6903 56.8459 98.248 56.9748Z" fill="url(#paint8_linear_1_188)"/>
<path d="M108.813 60.9103C108.007 61.1452 107.361 61.1068 106.875 60.7948C106.424 60.5014 106.103 60.028 105.914 59.3748C105.792 58.9567 105.727 58.4374 105.716 57.8171C105.667 56.868 105.738 55.7989 105.929 54.6096C106.154 53.4389 106.375 52.4962 106.591 51.7815C106.767 51.2202 106.939 50.6459 107.107 50.0584C107.276 49.471 107.453 48.8667 107.64 48.2455L108.666 44.6311C108.864 43.9502 108.88 43.3222 108.713 42.7473C108.531 42.1202 108.144 41.7088 107.551 41.5131L106.903 41.3195C106.657 41.2495 106.466 41.1774 106.332 41.1032L106.047 42.1639L105.75 43.1854C105.424 44.1023 105.041 45.1204 104.604 46.2397C104.166 47.3589 103.744 48.4313 103.335 49.457C102.927 50.4827 102.574 51.3082 102.276 51.9335C102.22 52.0347 102.154 52.0966 102.075 52.1193C101.945 52.1572 101.835 52.1184 101.745 52.003C101.63 51.895 101.608 51.7737 101.682 51.6388C102.364 50.1935 102.999 48.7333 103.587 47.2585C104.194 45.7499 104.694 44.2155 105.089 42.6555L105.33 41.7351L105.56 40.7756C105.314 40.7056 105.05 40.5272 104.77 40.2406C104.482 39.9278 104.292 39.6147 104.201 39.3011C104.073 38.8569 104.179 38.5425 104.521 38.358L104.56 38.3466C104.82 38.2708 105.125 38.3518 105.476 38.5896C105.843 38.8796 106.153 39.5118 106.407 40.4863C107.168 40.7747 107.87 40.9101 108.514 40.8926C109.158 40.875 109.696 40.9308 110.129 41.0598C110.58 41.1552 110.896 41.5164 111.078 42.1436C111.108 42.2481 111.129 42.3694 111.141 42.5077C111.179 42.6383 111.204 42.7728 111.215 42.911C111.267 43.576 111.152 44.4454 110.871 45.5192C110.615 46.5854 110.303 47.6966 109.932 48.8529C109.555 49.9831 109.234 50.9692 108.97 51.8112C108.721 52.7054 108.465 53.6725 108.202 54.7125C107.947 55.7787 107.768 56.7661 107.664 57.6747C107.587 58.5757 107.668 59.2462 107.908 59.6862C108.062 59.9248 108.282 60.0024 108.568 59.919C108.985 59.7977 109.443 59.4801 109.943 58.966C110.613 58.2607 111.207 57.5351 111.725 56.7893C112.25 56.0696 112.77 55.2378 113.287 54.294C113.564 53.7883 113.899 53.0955 114.293 52.2157C114.721 51.3544 115.159 50.4332 115.608 49.4522C116.05 48.4451 116.462 47.5315 116.846 46.7115C116.989 46.3297 117.158 45.9404 117.354 45.5434L117.884 44.4537C117.94 44.3526 117.993 44.2944 118.045 44.2793C118.201 44.2338 118.31 44.3156 118.37 44.5246C118.393 44.603 118.366 44.7526 118.289 44.9734C118.135 45.4151 117.945 45.8811 117.721 46.3716C117.522 46.8545 117.329 47.3075 117.141 47.7306C116.692 48.7116 116.195 49.8198 115.65 51.0554C115.123 52.2572 114.58 53.4497 114.02 54.633C113.486 55.8086 112.94 56.8461 112.383 57.7453C111.936 58.4422 111.444 59.0814 110.907 59.6629C110.37 60.2443 109.672 60.6601 108.813 60.9103Z" fill="url(#paint9_linear_1_188)"/>
<path d="M15.8066 52.8827C15.13 52.9998 14.5333 52.7547 14.0163 52.1474C13.4994 51.54 13.0714 50.8064 12.7325 49.9465C12.4243 49.0812 12.217 48.3411 12.1105 47.726C11.9667 46.8956 11.8791 46.0239 11.8477 45.1107C11.8163 44.1975 11.8411 43.243 11.922 42.247C12.0532 40.2604 12.3148 38.2037 12.7067 36.0769C13.1295 33.9448 13.6572 31.7786 14.2899 29.5785C14.5808 28.5145 14.8797 27.4966 15.1866 26.5249C15.5242 25.5478 15.8672 24.6015 16.2155 23.686C16.876 21.8294 17.5149 20.2142 18.1323 18.8403C18.775 17.4303 19.32 16.3698 19.7671 15.6589C19.8688 15.5146 19.9578 15.3883 20.0341 15.2801C20.1358 15.1357 20.2428 15.0222 20.3552 14.9394C19.6892 15.118 18.9725 15.3688 18.2048 15.6918C15.8764 16.6968 13.6734 18.0602 11.5959 19.782C10.5444 20.6609 9.66261 21.6055 8.9506 22.6157C7.31249 24.8632 6.67448 27.0326 7.03657 29.1239C7.08982 29.4314 7.17648 29.749 7.29657 30.0766C7.4474 30.3989 7.76678 30.5971 8.25472 30.6709L8.30884 30.7091C8.47325 30.744 8.57144 30.8537 8.60339 31.0382C8.64599 31.2842 8.51352 31.4339 8.20598 31.4871C7.86769 31.5457 7.35432 31.5079 6.66589 31.3737C6.00289 31.2034 5.36206 30.8867 4.7434 30.4237C4.15549 29.9553 3.78698 29.2906 3.63789 28.4294C3.39295 27.0148 3.57709 25.7 4.19032 24.4852C5.35115 22.2253 7.40622 20.1906 10.3556 18.3812C11.0203 18.0127 11.6723 17.6623 12.3116 17.3299C12.9456 16.9667 13.5695 16.6369 14.1834 16.3406C15.2066 15.8467 16.2096 15.4196 17.1925 15.0593C18.1755 14.6991 18.8642 14.469 19.2586 14.369C19.8016 14.2117 20.3445 14.0543 20.8874 13.897C21.4557 13.7035 22.0475 13.5536 22.6625 13.4471C24.3848 13.1489 25.3071 13.3534 25.4296 14.0608C25.5201 14.5836 25.2395 15.2499 24.5878 16.0596C24.1703 16.5753 23.6931 17.3865 23.1561 18.4931C22.6138 19.5689 22.0394 20.8246 21.4326 22.26C20.8567 23.6901 20.2787 25.1998 19.6986 26.789L18.0807 31.4403C17.5823 32.9521 17.142 34.3428 16.7601 35.6127C16.3781 36.8825 16.0972 37.9131 15.9175 38.7044C15.6479 39.8914 15.443 41.1781 15.3029 42.5644C15.1629 43.9507 15.071 45.2495 15.0273 46.4607C15.0144 47.6667 15.0638 48.5925 15.1756 49.2384C15.3833 50.4378 15.6255 51.0135 15.9023 50.9656C16.0868 50.9336 16.2722 50.6323 16.4585 50.0615C16.9516 48.5191 17.6535 46.7187 18.5642 44.6605C19.5003 42.5662 20.5561 40.3403 21.7318 37.9828C22.9381 35.6199 24.2287 33.195 25.6036 30.708C26.9786 28.2209 28.3514 25.8134 29.7222 23.4855C35.6257 13.309 42.3951 6.57782 50.0302 3.29194C50.9208 2.94767 51.7352 2.71164 52.4733 2.58384C53.3037 2.44007 53.9809 2.41785 54.5049 2.51717C55.0235 2.58574 55.2962 2.69691 55.3228 2.85068C55.3814 3.18898 54.7495 3.47261 53.4271 3.70158C52.3507 3.88795 51.2093 4.33898 50.0028 5.05469C47.5899 6.4861 44.9945 8.69348 42.2168 11.6768C41.5491 12.3943 40.8995 13.1244 40.2679 13.8673C39.631 14.5794 39.002 15.3377 38.3811 16.1421C37.1031 17.7254 35.9174 19.2927 34.8239 20.8441C33.7613 22.3902 32.829 23.8662 32.0271 25.272C30.5907 27.7697 29.1543 30.2674 27.7178 32.7651C26.3122 35.2575 24.9955 37.6236 23.7679 39.8634C22.5656 42.0671 21.4879 44.0751 20.5346 45.8873C19.6121 47.6941 18.9285 49.1429 18.4838 50.2335C17.8369 51.8026 16.9445 52.6857 15.8066 52.8827Z" stroke="url(#paint10_linear_1_188)" stroke-width="0.926706"/>
<path d="M40.765 21.811C40.3652 21.8803 40.0056 21.8158 39.6862 21.6177C39.3615 21.3889 39.1646 21.0745 39.0954 20.6747C39.0048 20.1519 39.1121 19.674 39.4173 19.2411C39.7224 18.8081 40.121 18.5491 40.6131 18.4639C41.1052 18.3787 41.5035 18.4839 41.8081 18.7796C42.1435 19.07 42.3203 19.4511 42.3387 19.9231C42.2956 20.4057 42.1315 20.8301 41.8464 21.1962C41.556 21.5315 41.1956 21.7365 40.765 21.811ZM36.7823 43.2642C35.9212 43.4132 35.212 43.2509 34.6549 42.7772C34.1232 42.2675 33.7694 41.5051 33.5937 40.4903C33.5138 40.029 33.4721 39.5135 33.4685 38.944C33.4797 38.2769 33.5772 37.4681 33.7611 36.5176C33.9704 35.5311 34.2259 34.5366 34.5274 33.5341C34.829 32.5316 35.1084 31.6755 35.3656 30.9658C35.6027 30.3229 35.8854 29.5771 36.2136 28.7284C36.5672 27.8436 36.8498 27.0978 37.0615 26.491C37.2383 26.0486 37.3649 25.7732 37.4412 25.665C37.5819 25.1972 37.9231 24.7897 38.4648 24.4425C39.0012 24.0645 39.5155 23.8329 40.0075 23.7477C40.6534 23.6359 41.0109 23.7799 41.0801 24.1797C41.1121 24.3642 41.0597 24.6108 40.9231 24.9196C40.5039 25.9741 40.0036 27.2011 39.4223 28.6004C38.8665 29.9637 38.334 31.3704 37.8249 32.8207C37.3158 34.2709 36.919 35.6383 36.6346 36.9229C36.3756 38.1714 36.318 39.2108 36.4618 40.0412C36.6109 40.9023 37.0084 41.2769 37.6542 41.1651C38.0848 41.0906 38.5676 40.7694 39.1028 40.2016C39.638 39.6338 40.1472 39.0071 40.6304 38.3216C41.1135 37.6361 41.4796 37.0976 41.7285 36.7061L42.4834 35.5776C42.6106 35.3972 42.7223 35.2195 42.8187 35.0444C42.9098 34.8386 43.0035 34.6481 43.0999 34.4731C43.1656 34.3033 43.2753 34.2051 43.429 34.1785C43.7981 34.1146 44.0199 34.2979 44.0944 34.7285C44.1317 34.9438 44.0868 35.1416 43.9596 35.322C43.6959 35.8111 43.4295 36.2849 43.1604 36.7432C42.8913 37.2016 42.6069 37.6627 42.3071 38.1264C41.8907 38.832 41.4156 39.5636 40.8816 40.3212C40.3422 41.0481 39.7408 41.6908 39.0772 42.2491C38.4084 42.7767 37.6434 43.1151 36.7823 43.2642Z" stroke="url(#paint11_linear_1_188)" stroke-width="0.926706"/>
<path d="M51.2847 62.1818C49.624 62.4694 48.5833 61.3984 48.1627 58.9688C48.0615 58.3845 47.9958 57.7307 47.9656 57.0074C47.9354 56.284 47.9561 55.4886 48.0276 54.6209C48.1493 52.7627 48.4543 50.6826 48.9427 48.3807C49.4618 46.0735 50.0578 43.753 50.7307 41.4192C51.0015 40.4221 51.3205 39.3374 51.6877 38.1651C52.0496 36.9621 52.3987 35.7772 52.7352 34.6103C53.1828 33.1707 53.5722 31.8521 53.9033 30.6545C53.2085 31.9468 52.4775 33.2136 51.7105 34.4551C50.9435 35.6966 50.1165 36.7742 49.2294 37.688C48.3678 38.5657 47.4449 39.0898 46.4607 39.2602C45.379 39.4158 44.5776 39.2695 44.0566 38.8212C43.5302 38.3422 43.2004 37.7183 43.0673 36.9494C42.9129 36.0576 42.9477 35.0696 43.1718 33.9855C43.3959 32.9014 43.672 31.935 44.0002 31.0862C44.5815 29.6869 45.3372 28.289 46.2674 26.8926C47.2231 25.4601 48.2775 24.2322 49.4307 23.209C50.6147 22.1804 51.8218 21.5596 53.0519 21.3466C54.4358 21.107 55.6684 21.2737 56.7496 21.8467C57.2398 20.6532 57.7016 19.8447 58.1351 19.4212C58.5633 18.967 59.0541 18.6919 59.6077 18.5961C59.8537 18.5535 60.1024 18.5262 60.3538 18.5144C60.6359 18.4972 60.9361 18.4928 61.2542 18.501L61.4565 18.8461C60.8581 19.9634 60.3439 21.0185 59.914 22.0115C59.4841 23.0046 58.9939 24.1981 58.4434 25.5921C58.3576 25.8287 58.2438 26.086 58.1019 26.364C57.9907 26.6366 57.8822 26.9247 57.7763 27.2281C57.6906 27.4646 57.5097 28.0661 57.2335 29.0325C56.9521 29.9682 56.6786 30.95 56.4131 31.9779C56.0365 33.2785 55.6122 34.7615 55.1403 36.427C54.6993 38.0872 54.2762 39.76 53.8712 41.4456C54.6702 42.0358 55.3173 42.9374 55.8124 44.1504C56.0206 44.6212 56.1854 45.1153 56.3067 45.6328C56.4587 46.145 56.5853 46.6932 56.6865 47.2775C56.8356 48.1386 56.9258 49.0258 56.9572 49.9389C56.9886 50.8521 56.9612 51.7913 56.8749 52.7565C56.7874 53.5319 56.6638 54.2818 56.5042 55.0063C56.3806 55.7562 56.203 56.468 55.9712 57.1417C54.9689 60.1344 53.4068 61.8144 51.2847 62.1818ZM46.5582 37.6279C47.0195 37.548 47.6603 37.0411 48.4806 36.1072C52.0265 32.0722 54.5679 27.8153 56.1047 23.3363C55.6853 22.7437 55.1527 22.5033 54.5069 22.6151C53.7688 22.7429 52.9536 23.2484 52.0612 24.1314C51.1942 24.9784 50.3973 25.9558 49.6705 27.0636C48.8367 28.2849 48.0984 29.6006 47.4556 31.0106C46.8128 32.4206 46.372 33.7165 46.1331 34.8982C45.9132 35.8232 45.8458 36.5317 45.931 37.0238C46.0109 37.4851 46.2199 37.6864 46.5582 37.6279ZM51.5765 60.8484C52.1301 60.7526 52.6378 60.3004 53.0997 59.4919C54.0287 57.9056 54.614 55.5236 54.8557 52.3459C54.9178 51.6066 54.9491 50.8726 54.9496 50.144C54.9862 49.4408 54.9767 48.7456 54.9211 48.0583C54.9081 47.6171 54.8669 47.1966 54.7977 46.7968C54.7338 46.4278 54.6726 46.0741 54.614 45.7358C54.3531 44.2289 54.0156 43.1945 53.6016 42.6327C53.0357 44.8529 52.516 47.0652 52.0424 49.2695C51.5741 51.5045 51.2224 53.4976 50.9871 55.2489C50.7341 57.4466 50.6822 58.976 50.8313 59.8372C50.9591 60.5752 51.2075 60.9123 51.5765 60.8484Z" stroke="url(#paint12_linear_1_188)" stroke-width="0.926706"/>
<path d="M66.6544 73.5317C66.16 73.6757 65.6701 73.5918 65.1847 73.2798C64.6992 72.9678 64.3278 72.3676 64.0703 71.4792C63.9264 70.9827 63.8307 70.458 63.7833 69.9051C63.7597 69.6286 63.7161 69.0887 63.6526 68.2855C63.5891 67.4822 63.5478 66.6583 63.5287 65.8137C63.4827 64.7787 63.4899 63.5865 63.5503 62.237C63.6031 60.8615 63.728 59.3941 63.9251 57.8348C64.0493 56.6085 64.2055 55.4437 64.3937 54.3404C64.5818 53.2372 64.7776 52.16 64.9809 51.109L59.5948 52.678C59.3085 52.7614 59.1465 52.7378 59.1086 52.6071C59.0253 52.3197 59.2699 52.0926 59.8423 51.9259L65.1504 50.3796C65.4601 49.0142 65.8147 47.7066 66.2143 46.4567C66.6139 45.2068 67.1105 43.9995 67.7041 42.8348C67.995 42.1833 68.2923 41.7 68.596 41.3849C68.9257 41.0621 69.2743 40.8047 69.6419 40.6126C70.0279 40.3868 70.453 40.1497 70.9171 39.9011C70.1443 41.7131 69.4918 43.405 68.9598 44.9768C68.4462 46.5149 67.996 48.0771 67.6092 49.6633L73.3856 47.9805C73.6979 47.8896 73.8767 47.9225 73.9221 48.0793C73.9449 48.1577 73.8933 48.2719 73.7675 48.4219C73.6601 48.5382 73.4633 48.638 73.1771 48.7214L67.4397 50.3927C67.1333 51.6721 66.8719 53.0093 66.6554 54.4042C66.4313 55.7729 66.2023 57.2706 65.9683 58.8973C65.7703 60.2585 65.6508 61.696 65.6098 63.2098C65.5873 64.6898 65.6126 66.0426 65.6856 67.2682C65.7586 68.4937 65.8671 69.3547 66.011 69.8512C66.3593 71.0532 66.8588 71.5595 67.5092 71.37C67.8215 71.279 68.1663 71.0085 68.5438 70.5585C69.3768 69.6358 70.0982 68.7172 70.7079 67.8028C71.3252 66.9146 71.8921 65.9985 72.4086 65.0547C72.6929 64.5751 73.0119 63.9721 73.3657 63.2457C73.7455 62.5116 74.1215 61.7645 74.4937 61.0043C74.866 60.2441 75.1921 59.5682 75.4721 58.9766L75.9198 58.0386C75.9751 57.9375 76.0288 57.8793 76.0808 57.8642C76.2369 57.8187 76.3453 57.9005 76.4059 58.1095C76.4437 58.2402 76.4296 58.386 76.3633 58.547C76.2938 58.7939 76.2075 59.0316 76.1044 59.26C75.9753 59.4959 75.863 59.7412 75.7674 59.9957C75.05 61.7066 74.2192 63.4646 73.2751 65.2698C72.331 67.075 71.3139 68.774 70.2236 70.3667C69.7614 71.0114 69.2657 71.6376 68.7364 72.2451C68.207 72.8527 67.5131 73.2816 66.6544 73.5317Z" stroke="url(#paint13_linear_1_188)" stroke-width="0.926706"/>
<path d="M80.8908 62.0736C80.0061 62.3313 79.1548 62.1685 78.3367 61.585C77.5446 60.994 76.9782 60.1105 76.6374 58.9347C76.3648 57.994 76.252 57.0209 76.2992 56.0153C76.354 55.0359 76.5242 54.0654 76.8098 53.1038C77.1214 52.1345 77.5133 51.1986 77.9853 50.296C78.6049 49.1237 79.3757 48.0349 80.2977 47.0296C81.2456 46.0167 82.188 45.3738 83.1247 45.1009C83.8532 44.8887 84.4657 44.9086 84.962 45.1608C85.4768 45.3792 85.8061 45.7367 85.95 46.2331C86.0408 46.5467 86.0352 46.9167 85.9331 47.3432C86.6323 47.2245 87.3072 47.0704 87.9577 46.8809C88.4521 46.7369 88.9389 46.5667 89.4181 46.3705C89.8973 46.1742 90.369 45.9518 90.8331 45.7032L90.9892 45.6578C91.1973 45.5971 91.3166 45.6191 91.3469 45.7236C91.3772 45.8281 91.2866 45.9537 91.0751 46.1003C90.8452 46.2806 90.4462 46.5102 89.878 46.7891C89.3099 47.0679 88.7119 47.3413 88.0841 47.6092C87.4488 47.8509 86.8709 48.0476 86.3505 48.1992C86.1683 48.2523 86.0122 48.2977 85.8821 48.3356C85.752 48.3735 85.6312 48.3946 85.5195 48.3988L85.186 48.7085C85.627 49.0617 85.9611 49.6303 86.1883 50.4142C86.4912 51.4594 86.5415 52.6066 86.3392 53.8557C86.1553 55.071 85.7834 56.2703 85.2234 57.4536C84.6818 58.6031 84.026 59.6018 83.2559 60.4495C82.5118 61.2897 81.7234 61.8311 80.8908 62.0736ZM80.9695 61.0306C81.672 60.8259 82.2896 60.3768 82.8222 59.6833C83.3472 58.9636 83.7656 58.1191 84.0772 57.1499C84.4073 56.147 84.6182 55.1221 84.7098 54.0753C84.8199 52.9948 84.8113 51.9913 84.6839 51.065C84.6645 50.9006 84.6358 50.7531 84.598 50.6225C84.5525 50.4657 84.5109 50.322 84.473 50.1913C84.4048 49.9561 84.3313 49.7509 84.2522 49.5755C84.1656 49.3741 84.0681 49.2325 83.9598 49.1507C83.9077 49.1658 83.8649 49.1641 83.8313 49.1456C83.5039 49.1843 83.247 49.1741 83.0606 49.1151C82.9002 49.0484 82.71 48.9763 82.49 48.8987C82.3481 48.7984 82.2506 48.6568 82.1976 48.4739C82.1446 48.291 82.168 48.1283 82.2678 47.9859C82.3936 47.8359 82.5552 47.7605 82.7525 47.7597C83.4408 47.7008 84.1774 47.6138 84.9623 47.4985C85.0938 46.9784 85.1065 46.5355 85.0005 46.1697C84.8187 45.5426 84.2595 45.3654 83.3227 45.6383C82.7503 45.8051 82.2162 46.2015 81.7205 46.8276C81.2432 47.4201 80.8076 48.1562 80.4136 49.0361C80.012 49.8898 79.6592 50.8144 79.3552 51.8097C79.0435 52.7789 78.8061 53.7123 78.643 54.61C78.5343 55.2084 78.4857 55.9168 78.4971 56.7352C78.5346 57.5461 78.6556 58.3042 78.8601 59.0098C79.0494 59.663 79.3201 60.2076 79.6721 60.6434C80.0426 61.0456 80.4751 61.1746 80.9695 61.0306Z" stroke="url(#paint14_linear_1_188)" stroke-width="0.926706"/>
<path d="M98.248 56.9748C97.7276 57.1264 97.3011 57.0664 96.9684 56.795C96.6358 56.5235 96.3862 56.1003 96.2196 55.5254C96.0227 54.846 95.918 53.9981 95.9056 52.9816C95.9116 51.9314 95.9658 50.853 96.0683 49.7463C95.8707 50.4273 95.6231 51.1795 95.3256 52.0029C95.0282 52.8263 94.6933 53.6181 94.3211 54.3783C93.9488 55.1385 93.5463 55.7941 93.1135 56.3453C92.7067 56.8888 92.2821 57.225 91.8398 57.3539C91.1113 57.5661 90.5319 57.4657 90.1018 57.0526C89.6977 56.6319 89.401 56.0949 89.2117 55.4417C89.0905 55.0236 88.9992 54.611 88.9376 54.2038C88.8945 53.763 88.8795 53.3707 88.8927 53.0268C88.9748 51.5577 89.1811 49.9816 89.5116 48.2984C89.8345 46.5892 90.2414 44.9263 90.7323 43.3098C91.2492 41.6857 91.8321 40.2408 92.481 38.9749C92.9237 38.1659 93.3012 37.7159 93.6134 37.6249C93.7696 37.5794 93.8741 37.6482 93.9271 37.8311C93.9801 38.014 93.9648 38.3018 93.8811 38.6946C93.8235 39.0798 93.6768 39.5475 93.4413 40.0978C93.2535 40.5209 93.045 41.2617 92.8157 42.3203C92.5788 43.3528 92.3408 44.5273 92.1015 45.8438C91.8548 47.1341 91.634 48.4169 91.4392 49.6921C91.2705 50.9598 91.1382 52.0609 91.0423 52.9957C90.978 53.5528 90.9506 54.0425 90.9602 54.4648C90.9957 54.8795 91.0513 55.2175 91.1271 55.4788C91.3088 56.1059 91.6078 56.3588 92.0242 56.2375C92.5706 56.0784 93.1254 55.3642 93.6887 54.0949C93.8212 53.773 94.0068 53.2939 94.2456 52.6576C94.4769 51.9951 94.7228 51.2859 94.9834 50.5299C95.2624 49.7402 95.523 48.9842 95.7651 48.2619C96.0073 47.5397 96.2016 46.9446 96.3482 46.4769L96.7688 44.5692C96.8232 44.27 97.0228 43.9851 97.3676 43.7146C97.7309 43.4104 98.0817 43.2091 98.42 43.1105C98.6541 43.0423 98.8053 43.1258 98.8735 43.361C98.9568 43.6484 98.9788 43.9679 98.9396 44.3193C98.9188 44.6371 98.8536 44.9961 98.7439 45.3965C98.5353 46.1373 98.3739 46.9919 98.2595 47.9603C98.1452 48.9288 98.0623 49.8597 98.0108 50.7531C97.9854 51.639 98.0018 52.3284 98.0601 52.8215C98.0847 53.2961 98.1614 53.7554 98.2902 54.1997C98.3205 54.3042 98.3508 54.4087 98.381 54.5132C98.4374 54.6102 98.4899 54.694 98.5386 54.7649C98.6891 55.0894 98.8684 55.2213 99.0766 55.1607C99.1807 55.1304 99.2994 55.0533 99.4328 54.9294C99.922 54.4752 100.377 53.9034 100.798 53.2141C101.211 52.4986 101.591 51.7645 101.937 51.0119C102.114 50.6487 102.282 50.3023 102.44 49.9728C102.599 49.6433 102.741 49.3045 102.865 48.9564C102.921 48.8553 102.974 48.7971 103.026 48.782C103.183 48.7365 103.291 48.8183 103.351 49.0273C103.397 49.1841 103.383 49.3299 103.309 49.4647L102.194 52.0424C102.006 52.4655 101.805 52.8923 101.591 53.323C101.37 53.7275 101.158 54.1152 100.955 54.486C100.578 55.1341 100.146 55.6852 99.6565 56.1394C99.1598 56.5675 98.6903 56.8459 98.248 56.9748Z" stroke="url(#paint15_linear_1_188)" stroke-width="0.926706"/>
<path d="M108.813 60.9103C108.007 61.1452 107.361 61.1068 106.875 60.7948C106.424 60.5014 106.103 60.028 105.914 59.3748C105.792 58.9567 105.727 58.4374 105.716 57.8171C105.667 56.868 105.738 55.7989 105.929 54.6096C106.154 53.4389 106.375 52.4962 106.591 51.7815C106.767 51.2202 106.939 50.6459 107.107 50.0584C107.276 49.471 107.453 48.8667 107.64 48.2455L108.666 44.6311C108.864 43.9502 108.88 43.3222 108.713 42.7473C108.531 42.1202 108.144 41.7088 107.551 41.5131L106.903 41.3195C106.657 41.2495 106.466 41.1774 106.332 41.1032L106.047 42.1639L105.75 43.1854C105.424 44.1023 105.041 45.1204 104.604 46.2397C104.166 47.3589 103.744 48.4313 103.335 49.457C102.927 50.4827 102.574 51.3082 102.276 51.9335C102.22 52.0347 102.154 52.0966 102.075 52.1193C101.945 52.1572 101.835 52.1184 101.745 52.003C101.63 51.895 101.608 51.7737 101.682 51.6388C102.364 50.1935 102.999 48.7333 103.587 47.2585C104.194 45.7499 104.694 44.2155 105.089 42.6555L105.33 41.7351L105.56 40.7756C105.314 40.7056 105.05 40.5272 104.77 40.2406C104.482 39.9278 104.292 39.6147 104.201 39.3011C104.073 38.8569 104.179 38.5425 104.521 38.358L104.56 38.3466C104.82 38.2708 105.125 38.3518 105.476 38.5896C105.843 38.8796 106.153 39.5118 106.407 40.4863C107.168 40.7747 107.87 40.9101 108.514 40.8926C109.158 40.875 109.696 40.9308 110.129 41.0598C110.58 41.1552 110.896 41.5164 111.078 42.1436C111.108 42.2481 111.129 42.3694 111.141 42.5077C111.179 42.6383 111.204 42.7728 111.215 42.911C111.267 43.576 111.152 44.4454 110.871 45.5192C110.615 46.5854 110.303 47.6966 109.932 48.8529C109.555 49.9831 109.234 50.9692 108.97 51.8112C108.721 52.7054 108.465 53.6725 108.202 54.7125C107.947 55.7787 107.768 56.7661 107.664 57.6747C107.587 58.5757 107.668 59.2462 107.908 59.6862C108.062 59.9248 108.282 60.0024 108.568 59.919C108.985 59.7977 109.443 59.4801 109.943 58.966C110.613 58.2607 111.207 57.5351 111.725 56.7893C112.25 56.0696 112.77 55.2378 113.287 54.294C113.564 53.7883 113.899 53.0955 114.293 52.2157C114.721 51.3544 115.159 50.4332 115.608 49.4522C116.05 48.4451 116.462 47.5315 116.846 46.7115C116.989 46.3297 117.158 45.9404 117.354 45.5434L117.884 44.4537C117.94 44.3526 117.993 44.2944 118.045 44.2793C118.201 44.2338 118.31 44.3156 118.37 44.5246C118.393 44.603 118.366 44.7526 118.289 44.9734C118.135 45.4151 117.945 45.8811 117.721 46.3716C117.522 46.8545 117.329 47.3075 117.141 47.7306C116.692 48.7116 116.195 49.8198 115.65 51.0554C115.123 52.2572 114.58 53.4497 114.02 54.633C113.486 55.8086 112.94 56.8461 112.383 57.7453C111.936 58.4422 111.444 59.0814 110.907 59.6629C110.37 60.2443 109.672 60.6601 108.813 60.9103Z" stroke="url(#paint16_linear_1_188)" stroke-width="0.926706"/>
</g>
</g>
<defs>
<filter id="filter0_d_1_188" x="-0.930298" y="-1.00708" width="123.772" height="80.0704" filterUnits="userSpaceOnUse" color-interpolation-filters="sRGB">
<feFlood flood-opacity="0" result="BackgroundImageFix"/>
<feColorMatrix in="SourceAlpha" type="matrix" values="0 0 0 0 0 0 0 0 0 0 0 0 0 0 0 0 0 0 127 0" result="hardAlpha"/>
<feOffset dy="1"/>
<feGaussianBlur stdDeviation="2"/>
<feComposite in2="hardAlpha" operator="out"/>
<feColorMatrix type="matrix" values="0 0 0 0 0 0 0 0 0 0 0 0 0 0 0 0 0 0 0.32 0"/>
<feBlend mode="normal" in2="BackgroundImageFix" result="effect1_dropShadow_1_188"/>
<feBlend mode="normal" in="SourceGraphic" in2="effect1_dropShadow_1_188" result="shape"/>
</filter>
<linearGradient id="paint0_linear_1_188" x1="55.7503" y1="26.6145" x2="41.6083" y2="67.2909" gradientUnits="userSpaceOnUse">
<stop stop-color="#FF7A00"/>
<stop offset="0.0001" stop-color="#FF7A00"/>
<stop offset="1" stop-color="#FF7102"/>
</linearGradient>
<linearGradient id="paint1_linear_1_188" x1="55.7503" y1="26.6145" x2="41.6083" y2="67.2909" gradientUnits="userSpaceOnUse">
<stop stop-color="#FF7A00"/>
<stop offset="0.0001" stop-color="#FF7A00"/>
<stop offset="1" stop-color="#FF7102"/>
</linearGradient>
<linearGradient id="paint2_linear_1_188" x1="85.3764" y1="13.0819" x2="84.6481" y2="22.2515" gradientUnits="userSpaceOnUse">
<stop stop-color="#FF9900"/>
<stop offset="1" stop-color="#FF7A00"/>
</linearGradient>
<linearGradient id="paint3_linear_1_188" x1="100.74" y1="8.03116" x2="4.99197" y2="54.5149" gradientUnits="userSpaceOnUse">
<stop stop-color="white"/>
<stop offset="1" stop-color="white"/>
</linearGradient>
<linearGradient id="paint4_linear_1_188" x1="100.74" y1="8.03116" x2="4.99197" y2="54.5149" gradientUnits="userSpaceOnUse">
<stop stop-color="white"/>
<stop offset="1" stop-color="white"/>
</linearGradient>
<linearGradient id="paint5_linear_1_188" x1="100.74" y1="8.03116" x2="4.99197" y2="54.5149" gradientUnits="userSpaceOnUse">
<stop stop-color="white"/>
<stop offset="1" stop-color="white"/>
</linearGradient>
<linearGradient id="paint6_linear_1_188" x1="100.74" y1="8.03116" x2="4.99197" y2="54.5149" gradientUnits="userSpaceOnUse">
<stop stop-color="white"/>
<stop offset="1" stop-color="white"/>
</linearGradient>
<linearGradient id="paint7_linear_1_188" x1="100.74" y1="8.03116" x2="4.99197" y2="54.5149" gradientUnits="userSpaceOnUse">
<stop stop-color="white"/>
<stop offset="1" stop-color="white"/>
</linearGradient>
<linearGradient id="paint8_linear_1_188" x1="100.74" y1="8.03116" x2="4.99197" y2="54.5149" gradientUnits="userSpaceOnUse">
<stop stop-color="white"/>
<stop offset="1" stop-color="white"/>
</linearGradient>
<linearGradient id="paint9_linear_1_188" x1="100.74" y1="8.03116" x2="4.99197" y2="54.5149" gradientUnits="userSpaceOnUse">
<stop stop-color="white"/>
<stop offset="1" stop-color="white"/>
</linearGradient>
<linearGradient id="paint10_linear_1_188" x1="100.74" y1="8.03116" x2="4.99197" y2="54.5149" gradientUnits="userSpaceOnUse">
<stop stop-color="white"/>
<stop offset="1" stop-color="white"/>
</linearGradient>
<linearGradient id="paint11_linear_1_188" x1="100.74" y1="8.03116" x2="4.99197" y2="54.5149" gradientUnits="userSpaceOnUse">
<stop stop-color="white"/>
<stop offset="1" stop-color="white"/>
</linearGradient>
<linearGradient id="paint12_linear_1_188" x1="100.74" y1="8.03116" x2="4.99197" y2="54.5149" gradientUnits="userSpaceOnUse">
<stop stop-color="white"/>
<stop offset="1" stop-color="white"/>
</linearGradient>
<linearGradient id="paint13_linear_1_188" x1="100.74" y1="8.03116" x2="4.99197" y2="54.5149" gradientUnits="userSpaceOnUse">
<stop stop-color="white"/>
<stop offset="1" stop-color="white"/>
</linearGradient>
<linearGradient id="paint14_linear_1_188" x1="100.74" y1="8.03116" x2="4.99197" y2="54.5149" gradientUnits="userSpaceOnUse">
<stop stop-color="white"/>
<stop offset="1" stop-color="white"/>
</linearGradient>
<linearGradient id="paint15_linear_1_188" x1="100.74" y1="8.03116" x2="4.99197" y2="54.5149" gradientUnits="userSpaceOnUse">
<stop stop-color="white"/>
<stop offset="1" stop-color="white"/>
</linearGradient>
<linearGradient id="paint16_linear_1_188" x1="100.74" y1="8.03116" x2="4.99197" y2="54.5149" gradientUnits="userSpaceOnUse">
<stop stop-color="white"/>
<stop offset="1" stop-color="white"/>
</linearGradient>
<clipPath id="clip0_1_188">
<rect width="121" height="76.8476" fill="white" transform="translate(0 0.0668945)"/>
</clipPath>
</defs>
</svg>
